<?xml version="1.0" encoding="utf-8"?>
<!-- Generator: Adobe Illustrator 24.2.0, SVG Export Plug-In . SVG Version: 6.00 Build 0)  -->
<svg version="1.1" id="Layer_1" xmlns="http://www.w3.org/2000/svg" xmlns:xlink="http://www.w3.org/1999/xlink" x="0px" y="0px"
	 viewBox="0 0 382.7 451.86" enable-background="new 0 0 382.7 451.86" xml:space="preserve">
<g>
	<path fill="#F86EAC" d="M240.4,5.48c4.4,1.64,8.93,3.01,13.19,4.97c8.8,4.03,15.52,10.55,18.61,19.7
		c2.8,8.32,4.29,17.08,6.51,26.28c0.66,0,2.21,0,3.76,0c20.58,0,41.15,0.22,61.73-0.1c8.96-0.14,16.87,6.33,17.31,16.4
		c5.5,0,11.04,0,16.83,0c0,11.98,0,23.54,0,35.3c-124.83,0-249.49,0-374.37,0c0-11.66,0-23.11,0-35.02c5.51,0,11.05,0,16.48,0
		c2.31-12.29,7.46-16.58,19.43-16.58c21.43,0,42.85,0,64.46,0c1.03-6.24,1.87-12.34,3.06-18.38c2.05-10.43,7.36-19.06,16.38-24.62
		c5.57-3.43,12.08-5.35,18.17-7.95C174.76,5.48,207.58,5.48,240.4,5.48z M141.13,56.2c33.6,0,66.76,0,100.3,0
		c-0.38-1.92-0.84-3.54-1.01-5.18c-0.74-7.53-2.88-10.03-10.17-10.08c-26.02-0.15-52.04-0.11-78.06-0.02
		c-5.74,0.02-9.06,2.27-10.05,6.57C141.51,50.22,141.47,53.08,141.13,56.2z"/>
	<path fill="#F86EAC" d="M37.43,123.96c102.6,0,204.72,0,307.47,0c0,1.69,0,3.35,0,5.01c0,89.06,0.17,178.12-0.11,267.18
		c-0.08,24.83-15.36,44.58-40.19,50.54c-2.59,0.62-5.33,0.88-7.99,0.88c-70.51,0.05-141.02,0.21-211.53-0.1
		c-14.59-0.06-26.3-7.14-35.76-18.36c-9.13-10.85-11.88-23.46-11.88-37.07c-0.01-87.48,0-174.95,0-262.43
		C37.43,127.89,37.43,126.17,37.43,123.96z M106.84,175.78c0,68.05,0,135.72,0,203.4c10.9,0,21.5,0,32.27,0
		c0-67.88,0-135.54,0-203.4C128.28,175.78,117.69,175.78,106.84,175.78z M207.29,379.18c0-67.98,0-135.65,0-203.25
		c-10.99,0-21.68,0-32.32,0c0,67.9,0,135.47,0,203.25C185.77,379.18,196.36,379.18,207.29,379.18z M275.73,175.96
		c-10.84,0-21.63,0-32.45,0c0,67.84,0,135.5,0,203.09c10.99,0,21.68,0,32.45,0C275.73,311.24,275.73,243.78,275.73,175.96z"/>
</g>
<g>
</g>
<g>
</g>
<g>
</g>
<g>
</g>
<g>
</g>
<g>
</g>
</svg>
