<?xml version="1.0" encoding="utf-8"?>
<!-- Generator: Adobe Illustrator 24.1.2, SVG Export Plug-In . SVG Version: 6.00 Build 0)  -->
<svg version="1.1" id="Layer_1" xmlns="http://www.w3.org/2000/svg" xmlns:xlink="http://www.w3.org/1999/xlink" x="0px" y="0px"
	 viewBox="0 0 28.18 25.4" enable-background="new 0 0 28.18 25.4" xml:space="preserve">
<g>
	<path fill="#FFFFFF" d="M27.84,5.1c-0.03,0.11-0.05,0.22-0.08,0.33c-0.05,0.23-0.1,0.46-0.16,0.68c-0.09,0.4-0.19,0.8-0.28,1.2
		C27.25,7.66,27.16,8,27.08,8.34c-0.11,0.46-0.22,0.92-0.33,1.37c-0.07,0.29-0.14,0.59-0.21,0.88c-0.09,0.38-0.18,0.77-0.27,1.15
		c-0.09,0.37-0.17,0.73-0.26,1.1c-0.09,0.37-0.17,0.73-0.26,1.1c-0.07,0.31-0.15,0.62-0.22,0.93c-0.05,0.23-0.1,0.45-0.16,0.68
		c-0.06,0.22-0.19,0.39-0.38,0.51c-0.16,0.1-0.34,0.14-0.53,0.14c-4.76,0-9.51,0-14.27,0c-0.03,0-0.06,0-0.09,0
		c0.22,0.81,0.44,1.62,0.66,2.43c0.03,0,0.06,0,0.09,0c4.38,0,8.76,0,13.14,0c0.19,0,0.36,0.08,0.5,0.19
		c0.17,0.13,0.26,0.3,0.31,0.5c0.06,0.26,0,0.5-0.15,0.72c-0.13,0.19-0.32,0.3-0.55,0.35c-0.06,0.01-0.12,0.02-0.18,0.02
		c-4.6,0-9.21,0-13.81,0c-0.42,0-0.78-0.25-0.89-0.65c-0.09-0.33-0.18-0.66-0.27-0.99c-0.13-0.49-0.27-0.99-0.4-1.48
		c-0.08-0.3-0.16-0.61-0.25-0.91c-0.08-0.29-0.16-0.58-0.24-0.88C8,15.2,7.92,14.91,7.84,14.61c-0.08-0.3-0.16-0.6-0.24-0.89
		c-0.15-0.56-0.3-1.11-0.45-1.67c-0.13-0.48-0.27-0.96-0.4-1.44c-0.12-0.46-0.24-0.92-0.37-1.38C6.24,8.69,6.08,8.14,5.94,7.6
		c-0.15-0.57-0.3-1.14-0.46-1.71C5.34,5.36,5.2,4.84,5.06,4.31C4.91,3.79,4.77,3.26,4.63,2.73C4.6,2.62,4.57,2.51,4.54,2.4
		C4.53,2.35,4.5,2.32,4.44,2.32c-1.08,0-2.16,0-3.24,0c-0.38,0-0.74-0.28-0.83-0.64C0.27,1.35,0.35,1.05,0.59,0.8
		c0.13-0.14,0.29-0.23,0.49-0.24c0,0,0.01-0.01,0.01-0.01c1.41,0,2.82,0,4.24,0C5.4,0.57,5.47,0.58,5.54,0.61
		C5.76,0.7,5.93,0.85,6.01,1.08c0.07,0.2,0.12,0.41,0.18,0.62c0.08,0.28,0.15,0.56,0.23,0.85C6.5,2.83,6.58,3.12,6.66,3.41
		c0.07,0.24,0.13,0.49,0.2,0.73c0.03,0,0.06,0,0.09,0c6.66,0,13.32,0,19.98,0c0.08,0,0.16,0.01,0.24,0.03
		c0.31,0.08,0.52,0.27,0.62,0.58c0.03,0.07,0.04,0.15,0.05,0.22C27.84,5.02,27.84,5.06,27.84,5.1z M11.19,9.27
		c-0.15-1.12-0.29-2.23-0.44-3.34c-1.14,0-2.27,0-3.41,0C7.39,6.13,7.44,6.32,7.5,6.5c0.08,0.29,0.16,0.58,0.24,0.87
		c0.08,0.3,0.16,0.6,0.24,0.89C8.05,8.58,8.14,8.89,8.22,9.2c0.01,0.05,0.03,0.08,0.09,0.08c0.94,0,1.87,0,2.81,0
		C11.14,9.27,11.16,9.27,11.19,9.27z M17.59,5.93c0,1.12,0,2.23,0,3.34c0.97,0,1.94,0,2.91,0c0.14-1.11,0.29-2.23,0.43-3.34
		C19.81,5.93,18.71,5.93,17.59,5.93z M12.55,5.93c0.15,1.12,0.29,2.23,0.44,3.34c0.94,0,1.88,0,2.81,0c0-1.11,0-2.23,0-3.34
		C14.72,5.93,13.64,5.93,12.55,5.93z M22.3,9.27c0.91,0,1.82,0,2.73,0c0.26-1.11,0.52-2.22,0.79-3.34c-1.04,0-2.06,0-3.09,0
		C22.59,7.05,22.45,8.16,22.3,9.27z M19.84,14.4c0.14-1.11,0.29-2.23,0.43-3.34c-0.9,0-1.79,0-2.68,0c0,1.11,0,2.23,0,3.34
		C18.34,14.4,19.09,14.4,19.84,14.4z M11.86,14.4c-0.15-1.12-0.29-2.23-0.44-3.34c-0.9,0-1.8,0-2.7,0c0.05,0.18,0.1,0.37,0.15,0.55
		c0.13,0.49,0.27,0.99,0.4,1.48c0.11,0.41,0.23,0.83,0.33,1.24c0.01,0.06,0.03,0.07,0.09,0.07c0.7,0,1.39,0,2.09,0
		C11.81,14.4,11.84,14.4,11.86,14.4z M13.22,11.06c0.15,1.12,0.29,2.23,0.44,3.34c0.72,0,1.43,0,2.14,0c0-1.11,0-2.23,0-3.34
		C14.94,11.06,14.08,11.06,13.22,11.06z M23.82,14.4c0.26-1.11,0.52-2.23,0.79-3.34c-0.85,0-1.69,0-2.54,0
		c-0.14,1.11-0.29,2.22-0.43,3.34C22.37,14.4,23.09,14.4,23.82,14.4z"/>
	<path fill="#FFFFFF" d="M23.75,23.04c0.03,0.96-0.81,1.87-1.92,1.8c-0.87-0.05-1.71-0.79-1.68-1.87c0.03-0.91,0.78-1.77,1.89-1.73
		C22.95,21.27,23.76,22.03,23.75,23.04z"/>
	<path fill="#FFFFFF" d="M11.53,24.84c-0.51,0-0.94-0.18-1.3-0.54c-0.37-0.39-0.53-0.86-0.5-1.39c0.05-0.85,0.79-1.71,1.88-1.67
		c0.92,0.03,1.74,0.78,1.73,1.85C13.32,24.04,12.54,24.85,11.53,24.84z"/>
</g>
</svg>
