<?xml version="1.0" encoding="utf-8"?>
<!-- Generator: Adobe Illustrator 24.1.2, SVG Export Plug-In . SVG Version: 6.00 Build 0)  -->
<svg version="1.1" id="Layer_1" xmlns="http://www.w3.org/2000/svg" xmlns:xlink="http://www.w3.org/1999/xlink" x="0px" y="0px"
	 viewBox="0 0 79.01 43.71" enable-background="new 0 0 79.01 43.71" xml:space="preserve">
<path fill="#636466" d="M73.18,42.54H6.15c-2.69,0-4.88-2.18-4.88-4.88V6.14c0-2.69,2.18-4.88,4.88-4.88h67.03
	c2.69,0,4.88,2.18,4.88,4.88v31.52C78.06,40.35,75.88,42.54,73.18,42.54z"/>
<g>
	<path fill="#FFFFFF" d="M22.04,10.5c0,0.28-0.52,1.02-0.76,1.02c-0.15,0-0.66-0.45-1.83-0.45c-1.86,0-2.74,1.4-2.74,3.7
		c0,1.56,0.67,2.33,2.09,2.33c1.37,0,2.25-0.64,2.39-0.64c0.06,0,0.13,0.01,0.13,0.16c0,0.07-0.02,0.54-0.11,0.99
		c-0.14,0.65-1.82,0.85-2.56,0.85c-2.43,0-3.58-1.09-3.58-3.46c0-2.81,1.1-5.3,4.58-5.3C20.76,9.7,22.04,10.05,22.04,10.5z"/>
	<path fill="#FFFFFF" d="M27.26,9.99l1.99,7.96c0.01,0.04,0.02,0.13,0.02,0.17c0,0.16-0.2,0.27-0.61,0.27h-0.38
		c-0.33,0-0.55-0.06-0.6-0.23l-0.4-1.68h-3.2l-0.76,1.68c-0.09,0.17-0.28,0.23-0.56,0.23h-0.33c-0.43,0-0.64-0.07-0.64-0.23
		c0-0.06,0.02-0.12,0.07-0.22l3.63-7.95c0.07-0.17,0.32-0.23,0.64-0.23h0.54C26.97,9.76,27.22,9.82,27.26,9.99z M26.16,11.63
		c-0.07,0.26-0.16,0.53-0.26,0.76l-1.24,2.72h2.27l-0.64-2.72c-0.06-0.25-0.09-0.5-0.09-0.76H26.16z"/>
	<path fill="#FFFFFF" d="M35.52,10.48c0,0.27-0.42,0.94-0.66,0.94c-0.06,0-0.12-0.04-0.23-0.07c-0.21-0.11-0.59-0.29-1.19-0.29
		c-1.02,0-1.41,0.5-1.41,1.03c0,0.69,0.59,0.98,1.26,1.3c0.94,0.44,2.06,0.97,2.06,2.49c0,1.74-1.42,2.58-3.07,2.58
		c-0.86,0-2.23-0.23-2.23-0.96c0-0.85,0.13-1.08,0.27-1.08c0.09,0,0.2,0.07,0.34,0.17c0.36,0.23,0.88,0.5,1.57,0.5
		c0.75,0,1.45-0.33,1.45-1.1c0-0.75-0.69-1.08-1.37-1.42c-0.88-0.44-1.94-0.97-1.94-2.39c0-1.68,1.5-2.48,3.08-2.48
		C34.6,9.7,35.52,10.1,35.52,10.48z"/>
	<path fill="#FFFFFF" d="M44.17,10.1l-0.82,7.95c-0.02,0.22-0.26,0.34-0.69,0.34h-0.31c-0.27,0-0.61-0.05-0.61-0.34l0.36-3.39h-3.73
		l-0.34,3.39c-0.02,0.22-0.26,0.34-0.69,0.34h-0.31c-0.27,0-0.61-0.05-0.61-0.34l0.83-7.95c0.01-0.22,0.25-0.34,0.67-0.34h0.31
		c0.27,0,0.61,0.05,0.61,0.34l-0.33,3.19h3.72l0.34-3.19c0.01-0.22,0.25-0.34,0.67-0.34h0.31C43.83,9.76,44.17,9.81,44.17,10.1z"/>
	<path fill="#FFFFFF" d="M56.15,13.27c0,3.35-1.61,5.19-4.39,5.19c-2.25,0-3.46-1.24-3.46-3.56c0-2.6,1.15-5.2,4.38-5.2
		C54.94,9.7,56.15,10.94,56.15,13.27z M49.96,14.75c0,1.53,0.67,2.34,1.96,2.34c1.56,0,2.59-1.29,2.59-3.68
		c0-1.55-0.67-2.36-1.96-2.36C50.96,11.06,49.96,12.35,49.96,14.75z"/>
	<path fill="#FFFFFF" d="M65.02,10.1l-0.83,7.95c-0.02,0.22-0.23,0.34-0.67,0.34h-0.39c-0.31,0-0.53-0.05-0.65-0.27l-2.92-5.25
		l-0.2-0.4l-0.59,5.58c-0.02,0.22-0.23,0.34-0.67,0.34h-0.26c-0.47,0-0.61-0.12-0.61-0.34l0.83-7.95c0.01-0.22,0.22-0.34,0.67-0.34
		h0.43c0.33,0,0.54,0.05,0.67,0.29l2.82,5.08l0.23,0.48l0.58-5.51c0.02-0.22,0.23-0.34,0.69-0.34h0.26
		C64.86,9.76,65.02,9.88,65.02,10.1z"/>
	<path fill="#FFFFFF" d="M20.45,28.04c0,3.45-1.86,5.05-4.38,5.05h-2.7c-0.29,0-0.41-0.1-0.41-0.37c0-0.15,0.54-5.18,0.81-7.78
		c0.02-0.31,0.17-0.44,0.49-0.44h2.7C19.13,24.5,20.45,25.64,20.45,28.04z M15.28,25.86l-0.63,5.86h1.52c1.47,0,2.63-1.12,2.63-3.52
		c0-1.62-0.76-2.34-2-2.34H15.28z"/>
	<path fill="#FFFFFF" d="M27.47,24.91c0,0.52-0.07,0.96-0.42,0.96h-3.28l-0.23,2.15h2.92c0.2,0,0.28,0.12,0.28,0.42
		c0,0.5-0.07,0.94-0.4,0.94h-2.93l-0.26,2.36h3.29c0.2,0,0.28,0.12,0.28,0.4c0,0.52-0.07,0.96-0.4,0.96h-4.45
		c-0.29,0-0.4-0.1-0.4-0.36c0-0.06,0.5-4.92,0.81-7.79c0.02-0.31,0.17-0.44,0.49-0.44h4.43C27.39,24.5,27.47,24.63,27.47,24.91z"/>
	<path fill="#FFFFFF" d="M30.58,24.82l-0.72,6.91h3.04c0.18,0,0.27,0.12,0.27,0.4c0,0.52-0.06,0.96-0.4,0.96h-4.21
		c-0.31,0-0.4-0.1-0.4-0.38l0.82-7.89c0.02-0.22,0.26-0.34,0.69-0.34h0.31C30.22,24.48,30.58,24.53,30.58,24.82z"/>
	<path fill="#FFFFFF" d="M36.52,24.82l-0.82,7.95c-0.02,0.22-0.26,0.34-0.69,0.34h-0.31c-0.27,0-0.61-0.05-0.61-0.34l0.83-7.95
		c0.01-0.22,0.25-0.34,0.67-0.34h0.31C36.18,24.48,36.52,24.53,36.52,24.82z"/>
	<path fill="#FFFFFF" d="M44.87,24.74c0,0.06-0.02,0.12-0.06,0.2l-3.53,7.95c-0.09,0.17-0.32,0.23-0.64,0.23h-0.54
		c-0.33,0-0.55-0.06-0.6-0.23c-1.89-8.02-1.9-8.05-1.9-8.08c0-0.26,0.32-0.32,0.69-0.32h0.31c0.31,0,0.55,0.07,0.61,0.29l1.28,5.75
		l0.07,0.52h0.05l0.2-0.53l2.5-5.74c0.09-0.21,0.36-0.29,0.66-0.29h0.27C44.53,24.48,44.87,24.52,44.87,24.74z"/>
	<path fill="#FFFFFF" d="M51.13,24.91c0,0.52-0.07,0.96-0.42,0.96h-3.28l-0.23,2.15h2.92c0.2,0,0.28,0.12,0.28,0.42
		c0,0.5-0.07,0.94-0.4,0.94h-2.93l-0.26,2.36h3.29c0.2,0,0.28,0.12,0.28,0.4c0,0.52-0.07,0.96-0.4,0.96h-4.45
		c-0.29,0-0.4-0.1-0.4-0.36c0-0.06,0.5-4.92,0.81-7.79c0.02-0.31,0.17-0.44,0.49-0.44h4.43C51.05,24.5,51.13,24.63,51.13,24.91z"/>
	<path fill="#FFFFFF" d="M58.17,26.45c0,1.15-0.66,1.94-1.64,2.31v0.05c0.34,0.14,0.63,0.64,0.82,1.28l0.76,2.59
		c0.02,0.09,0.04,0.15,0.04,0.2c-0.01,0.15-0.21,0.25-0.69,0.25h-0.36c-0.33,0-0.56-0.06-0.61-0.23l-0.71-2.4
		c-0.21-0.65-0.49-0.9-1.35-0.9h-0.71l-0.33,3.19c-0.02,0.22-0.25,0.34-0.67,0.34h-0.31c-0.47,0-0.61-0.12-0.61-0.34l0.82-7.83
		c0.02-0.31,0.17-0.44,0.49-0.44h2.27C57.27,24.5,58.17,25.17,58.17,26.45z M54.13,25.86l-0.25,2.33h1.33c0.7,0,1.31-0.63,1.31-1.36
		c0-0.63-0.43-0.97-1.15-0.97H54.13z"/>
	<path fill="#FFFFFF" d="M65.41,24.48c0.29,0,0.64,0.04,0.64,0.23c0,0.06-0.05,0.16-0.12,0.27l-2.91,3.93l-0.4,3.86
		c-0.02,0.22-0.23,0.34-0.67,0.34h-0.31c-0.47,0-0.61-0.12-0.61-0.34l0.4-3.9l-2.07-3.89c-0.05-0.09-0.07-0.16-0.07-0.23
		c0-0.23,0.29-0.27,0.71-0.27h0.38c0.32,0,0.55,0.05,0.64,0.22l1.4,2.76l2-2.77c0.11-0.16,0.37-0.21,0.69-0.21H65.41z"/>
</g>
</svg>
