<?xml version="1.0" encoding="utf-8"?>
<!-- Generator: Adobe Illustrator 24.1.2, SVG Export Plug-In . SVG Version: 6.00 Build 0)  -->
<svg version="1.1" id="Layer_1" xmlns="http://www.w3.org/2000/svg" xmlns:xlink="http://www.w3.org/1999/xlink" x="0px" y="0px"
	 viewBox="0 0 49 46.77" enable-background="new 0 0 49 46.77" xml:space="preserve">
<g>
	<g>
		<path fill="#FF96C5" d="M0.85,26.23c0.05-0.43,0.18-0.83,0.46-1.17c0.42-0.51,0.99-0.73,1.62-0.81c0.41-0.06,0.4-0.05,0.44-0.47
			c0.03-0.38,0.09-0.75,0.14-1.12c0.09-0.72,0.88-1.6,1.77-1.5c0.03,0,0.06-0.01,0.1-0.01c0.1-0.7,0.19-1.39,0.31-2.08
			c0.57-3.35,1.8-6.43,3.78-9.19c0.36-0.5,0.63-1.02,0.65-1.65c0.02-0.63,0.32-1.14,0.75-1.57c2.36-2.39,5.11-4.14,8.35-5.09
			c1.29-0.38,2.61-0.66,3.95-0.75c0.94-0.06,1.9-0.01,2.85,0.05c3.97,0.27,7.46,1.78,10.52,4.27c0.62,0.5,1.17,1.08,1.75,1.63
			c0.45,0.43,0.64,0.98,0.67,1.58c0.02,0.39,0.15,0.72,0.37,1.03c0.72,1.01,1.39,2.05,1.95,3.16c1.03,2.05,1.7,4.21,2.09,6.47
			c0.11,0.64,0.19,1.29,0.27,1.93c0.02,0.14,0.07,0.2,0.2,0.22c1.17,0.21,1.69,0.78,1.8,1.99c0.03,0.34,0.06,0.69,0.09,1.06
			c0.2,0.03,0.41,0.05,0.61,0.08c0.82,0.13,1.38,0.61,1.78,1.31c0.03,0.05,0.04,0.11,0.04,0.16c0,1.53,0.02,3.06,0,4.59
			c-0.01,0.78-0.59,1.5-1.34,1.73c-0.34,0.1-0.7,0.15-1.08,0.22c-0.04,0.42-0.09,0.86-0.14,1.3c-0.01,0.08-0.03,0.16-0.05,0.24
			c-0.23,0.97-0.79,1.44-1.78,1.48c-0.56,0.02-1.13,0.02-1.69,0.01c-0.19,0-0.28,0.05-0.37,0.22c-0.95,1.97-2.24,3.7-3.84,5.19
			c-1.52,1.42-3.2,2.58-5.22,3.19c-0.24,0.07-0.39,0.22-0.47,0.46c-0.23,0.64-0.71,1.05-1.28,1.39c-0.27,0.16-0.54,0.23-0.86,0.23
			c-1.42-0.02-2.85-0.03-4.27,0.01c-0.57,0.02-1.03-0.18-1.46-0.5c-1.13-0.83-1.4-2.41-0.62-3.57c0.38-0.57,0.95-0.87,1.55-1.14
			c0.07-0.03,0.16-0.01,0.24-0.01c1.54,0,3.07,0,4.61,0.01c0.18,0,0.38,0.06,0.55,0.13c0.56,0.23,1.03,0.59,1.36,1.11
			c0.11,0.17,0.22,0.16,0.38,0.1c2.26-0.82,4.04-2.29,5.58-4.08c0.76-0.88,1.38-1.85,1.93-2.88c-0.01-0.02-0.02-0.05-0.03-0.06
			c-0.67-0.54-0.8-1.29-0.81-2.08c-0.02-0.93-0.04-1.85-0.04-2.78c0-2.13,0.02-4.26,0.04-6.4c0-0.33,0.03-0.66,0.06-0.99
			c0.06-0.85,0.55-1.36,1.3-1.66c0.16-0.06,0.2-0.13,0.19-0.3c-0.38-3.5-1.53-6.7-3.6-9.57c-0.19-0.26-0.4-0.42-0.75-0.43
			c-0.47-0.01-0.86-0.25-1.22-0.54c-0.67-0.54-1.31-1.12-1.98-1.65c-1.93-1.51-4.11-2.47-6.54-2.83c-1.1-0.16-2.22-0.14-3.32-0.04
			c-3.07,0.28-5.67,1.62-7.97,3.61c-0.27,0.23-0.53,0.46-0.8,0.7c-0.51,0.46-1.1,0.75-1.8,0.78c-0.08,0-0.18,0.06-0.23,0.13
			c-1.57,2.17-2.76,4.53-3.37,7.15c-0.2,0.83-0.3,1.69-0.44,2.54c-0.04,0.25,0.05,0.41,0.29,0.52c0.81,0.35,1.2,0.99,1.21,1.86
			c0.03,1.69,0.06,3.38,0.06,5.07c-0.01,1.83-0.07,3.65-0.09,5.48c-0.01,0.66-0.66,1.62-1.59,1.63c-1.09,0.01-2.19-0.01-3.28-0.02
			c-0.84-0.01-1.32-0.51-1.54-1.25c-0.13-0.43-0.14-0.88-0.2-1.33c-0.02-0.13-0.02-0.27-0.03-0.41c-0.3-0.05-0.58-0.09-0.87-0.15
			c-0.74-0.15-1.59-0.85-1.58-1.85c0-0.08-0.03-0.16-0.04-0.23C0.85,28.77,0.85,27.5,0.85,26.23z"/>
	</g>
</g>
</svg>
