<?xml version="1.0" encoding="utf-8"?>
<!-- Generator: Adobe Illustrator 24.1.2, SVG Export Plug-In . SVG Version: 6.00 Build 0)  -->
<svg version="1.1" id="Layer_1" xmlns="http://www.w3.org/2000/svg" xmlns:xlink="http://www.w3.org/1999/xlink" x="0px" y="0px"
	 viewBox="0 0 49 24.01" enable-background="new 0 0 49 24.01" xml:space="preserve">
<g>
	<path fill="#FF96C5" d="M43.66,19.15c-0.1,1.88-0.96,3.1-2.49,3.83c-1.83,0.88-3.97,0.4-5.31-1.12c-1.42-1.62-1.3-3.97,0.29-5.46
		c2.34-2.18,6.22-1.33,7.26,1.6C43.56,18.41,43.6,18.86,43.66,19.15z M39.22,20.94c1.05,0,1.78-0.66,1.78-1.62
		c0-0.98-0.7-1.7-1.64-1.7c-1.07,0-1.84,0.68-1.84,1.64C37.52,20.22,38.25,20.94,39.22,20.94z"/>
	<path fill="#FF96C5" d="M18.35,23.4c-2.18-0.01-3.97-1.48-4.3-3.62c-0.22-1.45,0.32-2.64,1.45-3.57c1.85-1.51,4.59-1.36,6.15,0.34
		c1.81,1.97,1.35,4.89-0.97,6.23C19.95,23.2,19.18,23.39,18.35,23.4z M20.11,19.35c0-0.98-0.68-1.72-1.61-1.73
		c-1.05-0.01-1.87,0.69-1.87,1.62c0,0.96,0.75,1.7,1.72,1.7C19.38,20.94,20.1,20.29,20.11,19.35z"/>
	<path fill="#FF96C5" d="M9.61,14.03c0,0.38,0,0.71,0,1.07c-3.13,0-6.24,0-9.37,0c0-0.37,0-0.71,0-1.07
		C3.38,14.03,6.48,14.03,9.61,14.03z"/>
	<path fill="#FF96C5" d="M9.61,11.98c0,0.38,0,0.7,0,1.07c-2.69,0.07-5.37,0.07-8.06,0c0-0.39,0-0.72,0-1.06
		C4.25,11.98,6.91,11.98,9.61,11.98z"/>
	<path fill="#FF96C5" d="M9.61,10.07c0,0.38,0,0.71,0,1.07c-2.28,0-4.54,0-6.82,0c0-0.36,0-0.71,0-1.07
		C5.06,10.07,7.32,10.07,9.61,10.07z"/>
	<path fill="#FF96C5" d="M48.72,16.58c-0.03-0.38-0.22-0.55-0.6-0.62c-0.19-0.03-0.38-0.06-0.59-0.09
		c-0.01-0.11-0.02-0.21-0.02-0.31c0-1.5,0.01-3-0.01-4.5c0-0.28-0.06-0.61-0.22-0.82c-1.7-2.2-3.67-4.16-5.6-6.15
		c-0.4-0.41-0.88-0.61-1.47-0.6c-1.89,0.03-3.77,0.02-5.66,0.03c-0.1,0-0.19,0-0.29,0c-0.01-0.1-0.02-0.16-0.02-0.22
		c0-0.57,0.01-1.13,0-1.7c-0.01-0.64-0.2-0.88-0.83-0.99c-0.26-0.05-0.52-0.07-0.79-0.07c-2.21,0-4.42,0-6.63,0
		c-3.09,0-6.18-0.03-9.28-0.01c-1.69,0.01-3.38,0.07-5.08,0.12c-0.4,0.01-0.6,0.18-0.69,0.56c-0.06,0.29-0.07,0.6-0.07,0.9
		c0,4.4,0.01,8.81,0.01,13.21c0,0.55-0.01,0.55-0.55,0.64c-0.47,0.07-0.65,0.23-0.69,0.7c-0.04,0.43-0.05,0.87-0.01,1.3
		c0.06,0.68,0.32,0.9,1.01,0.9c0.84,0,1.68-0.01,2.52,0c0.25,0,0.34-0.08,0.4-0.33c0.97-4.04,5.14-4.73,7.66-3.14
		c1.16,0.74,1.85,1.79,2.11,3.13c0.05,0.26,0.16,0.33,0.43,0.33c3.38-0.01,6.75-0.01,10.13,0c0.1,0,0.2,0,0.32,0
		c0.03-0.13,0.06-0.25,0.09-0.37c0.57-2.37,2.43-3.88,4.79-3.89c2.47-0.01,4.34,1.45,4.91,3.82c0.08,0.32,0.26,0.44,0.56,0.43
		c1.13-0.02,2.27-0.02,3.4-0.05c0.48-0.01,0.71-0.22,0.74-0.71C48.77,17.59,48.75,17.08,48.72,16.58z M44.17,10.79
		c-0.38,0.02-0.77,0.01-1.15,0.01c-1.18,0-2.35,0-3.53,0c-1.42,0-2.84,0-4.26,0c-0.1,0-0.2,0-0.3,0c-0.52-0.02-0.62-0.09-0.63-0.61
		c-0.03-1.47-0.03-2.93-0.03-4.4c0-0.44,0.18-0.6,0.66-0.61c1.13-0.02,2.27-0.01,3.4-0.01c0.46,0,0.91,0,1.37-0.01
		c0.42-0.01,0.77,0.12,1.06,0.43c1.13,1.22,2.27,2.43,3.39,3.65c0.2,0.22,0.38,0.48,0.51,0.75C44.91,10.47,44.72,10.77,44.17,10.79z
		"/>
</g>
</svg>
