<?xml version="1.0" encoding="utf-8"?>
<!-- Generator: Adobe Illustrator 24.1.2, SVG Export Plug-In . SVG Version: 6.00 Build 0)  -->
<svg version="1.1" id="Layer_1" xmlns="http://www.w3.org/2000/svg" xmlns:xlink="http://www.w3.org/1999/xlink" x="0px" y="0px"
	 viewBox="0 0 61.17 79.29" enable-background="new 0 0 61.17 79.29" xml:space="preserve">
<path fill="none" stroke="#FFFFFF" stroke-width="2" stroke-miterlimit="10" d="M29.12,66.5c0,0-0.67,8.58-9.58,11.66"/>
<path fill="#FFFFFF" d="M60.38,30.05c0-16.5-13.38-29.88-29.88-29.88c-16.5,0-29.88,13.38-29.88,29.88
	c0,15.06,11.15,27.48,25.64,29.55c-0.03,0.02-0.05,0.03-0.05,0.03l-1.09,7.51h8.3l-1.42-7.21c-0.02-0.03-0.04-0.05-0.06-0.07
	C47.77,59.11,60.38,46.07,60.38,30.05z M39.19,17.46c0,0.26-0.21,0.47-0.47,0.47h-3.76c-0.92,0-1.67,0.75-1.67,1.67v3.93h5.34
	c0.28,0,0.49,0.24,0.47,0.51l-0.47,5.54c-0.02,0.24-0.22,0.43-0.47,0.43H33.3v18.4c0,0.26-0.21,0.47-0.47,0.47H26.1
	c-0.26,0-0.47-0.21-0.47-0.47v-18.1v-0.29h-3.36c-0.26,0-0.47-0.21-0.47-0.47V24c0-0.26,0.21-0.47,0.47-0.47h3.36v-5.34
	c0-3.72,3.02-6.74,6.74-6.74h6.35c0.26,0,0.47,0.21,0.47,0.47V17.46z"/>
</svg>
