<?xml version="1.0" encoding="utf-8"?>
<!-- Generator: Adobe Illustrator 24.1.2, SVG Export Plug-In . SVG Version: 6.00 Build 0)  -->
<svg version="1.1" id="Layer_1" xmlns="http://www.w3.org/2000/svg" xmlns:xlink="http://www.w3.org/1999/xlink" x="0px" y="0px"
	 viewBox="0 0 35.65 34.47" enable-background="new 0 0 35.65 34.47" xml:space="preserve">
<g>
	<g>
		<path fill-rule="evenodd" clip-rule="evenodd" fill="#FFFFFF" d="M10.68,17.47v16.5c0,0.24,0.19,0.43,0.43,0.43h6.13
			c0.24,0,0.43-0.19,0.43-0.43V17.2h4.44c0.22,0,0.41-0.17,0.43-0.39l0.43-5.05c0.02-0.25-0.18-0.47-0.43-0.47h-4.87V7.7
			c0-0.84,0.68-1.52,1.52-1.52h3.42c0.24,0,0.43-0.19,0.43-0.43V0.7c0-0.24-0.19-0.43-0.43-0.43h-5.78c-3.39,0-6.15,2.75-6.15,6.15
			v4.87H7.62c-0.24,0-0.43,0.19-0.43,0.43v5.05c0,0.24,0.19,0.43,0.43,0.43h3.06V17.47z"/>
	</g>
</g>
</svg>
