<?xml version="1.0" encoding="utf-8"?>
<!-- Generator: Adobe Illustrator 24.1.3, SVG Export Plug-In . SVG Version: 6.00 Build 0)  -->
<svg version="1.1" id="Layer_1" xmlns="http://www.w3.org/2000/svg" xmlns:xlink="http://www.w3.org/1999/xlink" x="0px" y="0px"
	 viewBox="0 0 198.74 190.95" enable-background="new 0 0 198.74 190.95" xml:space="preserve">
<g>
	<g>
		<path fill="#FF96C5" d="M35.77,4.97c32.59,0,65.18,0,97.77,0c0.54,0.13,1.08,0.38,1.61,0.38c3.58-0.01,7.01,0.76,10.21,2.26
			c11.65,5.49,17.78,14.75,17.93,27.62c0.18,15.68,0.06,31.36,0.04,47.05c-0.01,6.28-1.6,12.14-5.26,17.28
			c-5.97,8.38-14.14,12.81-24.46,12.88c-14.8,0.09-29.6,0.01-44.4,0.05c-0.81,0-1.82,0.22-2.39,0.73
			c-13.78,12.25-27.5,24.56-41.24,36.86c-2.16,1.93-4.34,3.85-6.77,6c-0.07-0.88-0.15-1.4-0.16-1.92c-0.05-3.26-0.09-6.51-0.11-9.77
			c-0.05-9.94-0.12-19.88-0.09-29.82c0-1.68-0.51-2.37-2.18-2.11c-0.27,0.04-0.55,0.01-0.83,0.01
			C19.61,112.29,6.46,99.39,6.33,83.59C6.19,66.97,6.16,50.35,6.34,33.73C6.51,18.38,19.35,5.59,34.49,5.35
			C34.92,5.34,35.34,5.1,35.77,4.97z M138.58,73.9c0.76-1.27,1.54-2.35,2.1-3.54c2.12-4.57,2.52-9.4,2.17-14.38
			c-0.73-10.38-8-17.54-17.68-18.37c-7.66-0.66-15.14,2.87-18.75,9.37c-2.61,4.72-2.99,9.89-2.65,15.11
			c0.32,4.95,1.77,9.55,5.3,13.24c5.76,6.02,15.95,7.59,23.38,3.59c0.99-0.53,1.61-0.55,2.41,0.3c1.19,1.27,2.53,2.39,3.87,3.63
			c1.49-1.6,2.86-3.07,4.32-4.64C141.43,76.65,139.97,75.24,138.58,73.9z M99.75,79.97c-0.04-0.42-0.02-0.7-0.1-0.95
			c-4.61-13.08-9.22-26.17-13.89-39.23c-0.16-0.44-0.92-0.93-1.41-0.95c-2.26-0.1-4.53,0.03-6.78-0.07
			c-1.3-0.06-1.92,0.33-2.37,1.62c-4.43,12.57-8.93,25.1-13.41,37.65c-0.19,0.55-0.33,1.11-0.57,1.93c2.89,0,5.53,0.04,8.16-0.05
			c0.36-0.01,0.85-0.61,1.01-1.04c0.73-2.02,1.41-4.06,2.03-6.11c0.26-0.89,0.7-1.23,1.64-1.22c4.25,0.04,8.5,0.05,12.75-0.01
			c0.94-0.01,1.38,0.31,1.63,1.19c0.59,2.01,1.2,4.01,1.92,5.97c0.19,0.51,0.81,1.19,1.25,1.21C94.27,80.02,96.97,79.97,99.75,79.97
			z M55.51,62.74c0-2.44,0-4.66,0-7.08c-6,0-11.89,0-17.98,0c0-2.49-0.01-4.79,0-7.1c0.02-2.75-0.37-2.51,2.44-2.52
			c5.47-0.01,10.94,0,16.4-0.01c0.59,0,1.17-0.05,1.9-0.09c0-2.08,0.06-4.01-0.05-5.92c-0.02-0.36-0.69-0.97-1.07-0.98
			c-8.95-0.06-17.9-0.04-26.84-0.05c-0.9,0-1.32,0.31-1.29,1.25c0.04,1.32,0.01,2.65,0.01,3.98c0,11.32,0.01,22.65-0.02,33.97
			c0,1.15,0.11,1.91,1.58,1.81c1.7-0.11,3.43-0.12,5.13,0c1.52,0.11,1.85-0.51,1.83-1.91c-0.08-4.53,0.02-9.06-0.06-13.59
			c-0.02-1.34,0.31-1.83,1.73-1.8c3.92,0.09,7.84,0.03,11.76,0.03C52.48,62.74,53.95,62.74,55.51,62.74z"/>
		<path fill="#FF96C5" d="M172.82,35.42c0.92,0.43,1.63,0.67,2.24,1.07c9.44,6.32,14.58,15.21,14.76,26.52
			c0.25,16.07,0.08,32.15,0.04,48.22c-0.02,6.75-1.62,13.03-6.14,18.28c-4.28,4.98-9.88,7.77-16.16,9.09
			c-4.24,0.89-8.61,1.22-13.18,1.84c-0.5,15.45-1.01,31.26-1.54,47.54c-0.75-0.73-1.2-1.15-1.63-1.6
			c-14.05-14.53-28.12-29.06-42.14-43.62c-1.03-1.07-2.05-1.59-3.58-1.59c-9.44-0.02-18.89-0.14-28.33-0.24
			c-0.74-0.01-1.48-0.1-2.53-0.17c0.59-0.66,0.93-1.07,1.3-1.45c5.77-5.95,11.55-11.88,17.28-17.86c0.84-0.88,1.69-1.2,2.89-1.2
			c13.92,0.03,27.84,0.04,41.76,0.01c5.6-0.01,11.15-0.5,16.38-2.73c9.67-4.13,15.16-11.73,17.39-21.71
			c0.85-3.83,0.93-7.88,0.98-11.83c0.16-15.35,0.17-30.71,0.23-46.07C172.82,37.17,172.82,36.4,172.82,35.42z"/>
		<path fill="#FF96C5" d="M127.87,72.66c-6,2.74-12.41,0.06-14.51-6.02c-1.66-4.83-1.62-9.77-0.04-14.63
			c1.48-4.55,5.24-7.14,10.04-7.15c4.85-0.02,8.27,2.39,9.94,6.99c1.87,5.16,1.53,11.92-0.91,16.08c-1.35-1.22-2.66-2.42-4.14-3.76
			c-1.47,1.54-2.89,3.04-4.56,4.8C125.12,70.21,126.43,71.38,127.87,72.66z"/>
		<path fill="#FF96C5" d="M75.29,64.21c1.72-5.21,3.38-10.24,5.04-15.28c0.12,0,0.25,0,0.37,0c1.61,5.03,3.22,10.06,4.89,15.28
			C82.11,64.21,78.84,64.21,75.29,64.21z"/>
	</g>
</g>
</svg>
