<?xml version="1.0" encoding="utf-8"?>
<!-- Generator: Adobe Illustrator 24.1.2, SVG Export Plug-In . SVG Version: 6.00 Build 0)  -->
<svg version="1.1" id="Layer_1" xmlns="http://www.w3.org/2000/svg" xmlns:xlink="http://www.w3.org/1999/xlink" x="0px" y="0px"
	 viewBox="0 0 22.43 19.18" enable-background="new 0 0 22.43 19.18" xml:space="preserve">
<g>
	<path fill="#FFFFFF" stroke="#FFFFFF" stroke-width="1.5" stroke-miterlimit="10" d="M11.33,4.27c0.12-0.2,0.22-0.37,0.33-0.54
		c0.65-1.03,1.44-1.9,2.63-2.3c3.87-1.29,7.43,1.69,7.09,5.51c-0.17,1.9-1.06,3.42-2.42,4.67c-1.18,1.08-2.46,2.07-3.68,3.11
		c-1.2,1.03-2.38,2.07-3.57,3.12c-0.27,0.24-0.47,0.27-0.71,0.03c-1.67-1.65-3.53-3.07-5.35-4.54c-1.12-0.9-2.24-1.82-3.09-3.01
		C1.32,8.59,0.87,6.68,1.58,4.62c0.72-2.13,2.8-3.51,5.04-3.48c1.95,0.02,3.35,0.94,4.35,2.55C11.08,3.87,11.19,4.06,11.33,4.27z
		 M11.33,17.02c0.03-0.02,0.06-0.04,0.08-0.06c1.55-1.5,3.27-2.81,4.95-4.17c1.07-0.86,2.13-1.73,2.96-2.84
		c0.97-1.29,1.43-2.74,1.16-4.35C20.15,3.68,18.54,2.19,16.6,2c-1.61-0.15-2.97,0.34-3.92,1.72c-0.34,0.5-0.63,1.03-0.93,1.55
		c-0.1,0.18-0.22,0.36-0.43,0.31C11.16,5.54,11,5.4,10.91,5.27c-0.22-0.33-0.39-0.7-0.59-1.05C9.41,2.68,8.09,1.89,6.27,1.98
		C4.6,2.07,2.99,3.19,2.41,4.77C1.79,6.44,2.1,8.02,3.02,9.5c0.62,1.01,1.48,1.81,2.38,2.56c1.43,1.18,2.87,2.34,4.3,3.52
		C10.26,16.03,10.78,16.53,11.33,17.02z"/>
</g>
</svg>
