<?xml version="1.0" encoding="utf-8"?>
<!-- Generator: Adobe Illustrator 24.1.2, SVG Export Plug-In . SVG Version: 6.00 Build 0)  -->
<svg version="1.1" id="Layer_1" xmlns="http://www.w3.org/2000/svg" xmlns:xlink="http://www.w3.org/1999/xlink" x="0px" y="0px"
	 viewBox="0 0 62.67 19.15" enable-background="new 0 0 62.67 19.15" xml:space="preserve">
<g>
	<path fill="#FED228" d="M31.36,18.86c-9.46,0-18.91,0-28.37,0c-1.54,0-2.37-0.83-2.37-2.36c0-4.6,0-9.21,0-13.81
		c0-1.51,0.84-2.34,2.36-2.34c18.95,0,37.9,0,56.85,0c1.52,0,2.35,0.83,2.35,2.34c0,4.62,0,9.23,0,13.85c0,1.48-0.85,2.32-2.34,2.32
		C50.35,18.86,40.86,18.86,31.36,18.86z"/>
	<path fill="#006D95" d="M29.41,11.62c-0.23,0.79-0.6,1.47-1.4,1.82c-0.6,0.26-1.23,0.33-1.87,0.34c-0.17,0-0.27-0.05-0.27-0.25
		c0-0.43,0.01-0.86,0-1.29c0-0.23,0.13-0.24,0.3-0.25c0.38-0.01,0.75-0.05,1.03-0.46c-0.47,0-0.88,0.03-1.29-0.01
		c-1.44-0.12-2.51-1.15-2.74-2.62c-0.24-1.5,0.47-2.89,1.74-3.43c1.43-0.6,3.03-0.22,3.89,0.92c0.5,0.67,0.65,1.43,0.63,2.25
		c-0.02,0.84,0,0.84,0.83,0.84c0.59,0,1.17-0.01,1.76,0.01c0.28,0.01,0.36-0.05,0.29-0.34c-0.14-0.59-0.11-1.19,0.04-1.78
		c0.39-1.45,1.61-2.27,3.29-2.17c1.21,0.07,2.24,0.53,2.74,1.69c0.52,1.21,0.45,2.42-0.35,3.52c-0.44,0.6-1.07,0.89-1.76,1.09
		c-0.14,0.14-0.32,0.09-0.48,0.09c-1.96,0-3.91,0-5.87,0C29.75,11.6,29.58,11.6,29.41,11.62z"/>
	<path fill="#006D95" d="M14.46,7.24c-0.12,0.24,0.1,0.13,0.16,0.13c0.76,0.01,1.51,0.02,2.27,0c0.31-0.01,0.41,0.09,0.39,0.4
		c-0.04,0.81,0.07,1.62-0.12,2.42c-0.44,1.94-2.11,3.37-4.26,3.57c-2.07,0.2-3.78-0.48-4.93-2.29c-0.43-0.67-0.62-1.43-0.63-2.23
		c-0.01-0.51,0-1.02,0-1.53c0-0.14-0.03-0.29,0.1-0.4C8.08,7.22,8.72,7.23,9.36,7.3C9.51,7.4,9.5,7.56,9.51,7.72
		c0,0.56-0.02,1.12,0.02,1.68c0.1,1.31,1.05,2.21,2.44,2.35c1.41,0.14,2.65-0.56,3-1.72C14.99,9.96,15,9.88,15.01,9.8
		c-0.06-0.09,0.03-0.19-0.02-0.29c-0.01-0.03-0.02-0.06-0.04-0.09c-0.03-0.02-0.06-0.04-0.1-0.05c-1.03-0.02-2.05,0-3.07-0.01
		c-0.05,0-0.09-0.01-0.13-0.03c-0.19-1.94,1.05-4.75,4.17-4.74c0.96,0,0.96,0,0.96,0.96c0,0.25-0.02,0.5,0,0.74
		c0.03,0.31-0.08,0.42-0.4,0.41c-0.49-0.02-0.99-0.05-1.45,0.19C14.81,6.95,14.67,7,14.6,7.13C14.59,7.21,14.54,7.25,14.46,7.24z"/>
	<path fill="#FEFEFE" d="M53.91,4.38c0.71,0.69,1.29,1.47,1.56,2.45c-0.2,0.04-0.22-0.13-0.29-0.25c-0.03,0.28-0.17,0.52-0.31,0.71
		c-0.39,0.53-0.79,1.04-1.33,1.45c-0.32,0.25-0.68,0.42-1.03,0.6c-0.18,0.1-0.24,0.21-0.27,0.38c-0.02,0.06-0.06,0.1-0.13,0.11
		c-0.04,0-0.08-0.01-0.11-0.03c-0.04-0.05-0.06-0.1-0.07-0.16c-0.01-0.13-0.01-0.27-0.06-0.4c-0.01-0.04-0.02-0.08-0.02-0.11
		c-0.05-0.76-0.11-0.81-0.81-0.56c-0.76,0.28-1.53,0.51-2.28,0.81c-0.05,0.02-0.11,0.03-0.17,0.03c-0.14-0.04-0.43,0.09-0.27-0.27
		c0.02-0.04-0.12-0.08-0.19-0.12c-0.88-0.55-1.55-1.31-1.98-2.24c-0.44-0.96-0.54-1.99-0.27-3.04c0.07-0.25,0.09-0.52,0.25-0.73
		c0.18-0.23-0.2-0.2-0.14-0.36c1.21-0.54,2.47-0.61,3.76-0.43c0.45,0.06,0.9,0.14,1.31,0.35c0.29,0.22,0.34,0.54,0.36,0.87
		c0.05,0.84-0.07,1.66-0.33,2.46c-0.12,0.37-0.24,0.74-0.38,1.11c-0.06,0.14-0.14,0.3-0.01,0.44c0.12,0.13,0.27,0.02,0.4-0.02
		c0.33-0.11,0.66-0.23,1-0.33c0.35-0.1,0.43-0.04,0.52,0.32c0.04,0.18,0.05,0.36,0.07,0.54c0.02,0.14,0.04,0.32,0.2,0.35
		c0.18,0.04,0.22-0.15,0.27-0.28c0.35-0.94,0.62-1.9,0.63-2.92C53.8,4.88,53.72,4.61,53.91,4.38z"/>
	<path fill="#006E95" d="M22.05,5.2c0.15,0.13,0.1,0.31,0.1,0.48c0,1.77-0.01,3.53-0.02,5.3c0.03,0.02,0.03,0.04,0.02,0.05
		c-0.01,0.01-0.02,0.02-0.03,0.02c-0.02,0.04-0.04,0.07-0.05,0.11c-0.32,1.55-1.06,2.27-2.61,2.53c-0.33,0.05-0.67,0.06-1.01,0.09
		c-0.23,0.02-0.33-0.07-0.32-0.31c0.01-0.39,0.02-0.78,0-1.17c-0.01-0.24,0.09-0.31,0.31-0.32c0.56-0.04,1.09-0.16,1.34-0.76
		c0.04-0.23,0.02-0.47,0.16-0.68c0.08-0.27,0.03-0.54,0.04-0.81c0.01-1.37,0-2.73,0-4.1c0-0.15-0.04-0.32,0.12-0.43
		C20.75,5.12,21.4,5.11,22.05,5.2z"/>
	<path fill="#006D95" d="M53.91,4.38c0.11,1.3-0.2,2.54-0.65,3.74c-0.07,0.18-0.11,0.4-0.38,0.37c-0.26-0.03-0.24-0.27-0.28-0.45
		c0-0.01,0-0.03-0.01-0.04c-0.05-0.29,0.04-0.7-0.19-0.82c-0.18-0.09-0.53,0.13-0.8,0.22c-0.2,0.06-0.39,0.14-0.59,0.21
		c-0.16,0.06-0.32,0.13-0.47-0.03c-0.13-0.15-0.05-0.29,0.01-0.44c0.33-0.82,0.61-1.66,0.73-2.55c0.09-0.68,0.12-1.35-0.23-1.98
		C52.18,2.93,53.11,3.54,53.91,4.38z"/>
	<path fill="#F5F5F6" d="M44.98,3.14c0.14-0.11,0.29-0.2,0.47-0.23c0.53-0.06,0.53-0.06,0.35,0.45c-0.56,1.59-0.23,3.03,0.73,4.38
		c0.37,0.53,0.82,0.98,1.35,1.33c0.17,0.11,0.18,0.27,0.18,0.44c-0.17,0.22-0.51,0.29-0.56,0.61c-0.07,0.02-0.11-0.02-0.14-0.07
		c0.02-0.31-0.15-0.51-0.39-0.7c-1.07-0.84-1.74-1.94-2.02-3.26c-0.17-0.79-0.2-1.59-0.04-2.39C44.95,3.52,44.96,3.33,44.98,3.14z"
		/>
	<path fill="#026E95" d="M13.64,14.74c0.95,0,0.96,0,0.95,0.97c-0.01,0.99,0.16,0.86-0.86,0.87c-1.08,0.01-1.08,0-1.08-1.07
		c0-0.76,0-0.76,0.76-0.76C13.49,14.74,13.57,14.74,13.64,14.74z"/>
	<path fill="#036E94" d="M10.08,14.9c0.05-0.07,0.1-0.16,0.21-0.16c0.52,0,1.04,0,1.56,0c0.12,0,0.19,0.07,0.19,0.2
		c0,0.48,0,0.96,0,1.45c0,0.11-0.07,0.18-0.17,0.18c-0.55,0-1.09,0-1.64-0.01c-0.05,0-0.1-0.08-0.15-0.12
		C10,15.92,10.01,15.41,10.08,14.9z"/>
	<path fill="#FAFAFA" d="M48.05,9.5c-0.44-0.67-1.21-1.02-1.65-1.73c-0.29-0.46-0.52-0.94-0.73-1.44c-0.19-0.45-0.19-0.92-0.28-1.39
		c-0.04-0.22,0-0.47,0.06-0.69c0.12-0.44,0.13-0.91,0.42-1.29c-0.14-0.13-0.31,0.14-0.43-0.06c0.18-0.09,0.34-0.22,0.55-0.23
		c0.4,0.06,0.33,0.19,0.17,0.5c-0.3,0.6-0.32,1.28-0.31,1.96c0,0.53,0.23,1,0.32,1.51c0.04,0.22,0.24,0.32,0.32,0.52
		c0.3,0.72,1.41,1.72,2.01,1.93c0.02,0.13-0.16,0.1-0.17,0.23c0.08,0,0.15,0,0.23,0C48.44,9.55,48.38,9.57,48.05,9.5z"/>
	<path fill="#016E95" d="M34.41,2.75c0.03-0.12,0.13-0.12,0.22-0.12c0.47,0,0.93,0,1.4,0c0.11,0,0.28-0.01,0.27,0.15
		c-0.01,0.54,0.13,1.1-0.07,1.63c-0.48-0.03-0.96-0.02-1.44-0.01c-0.27,0-0.37-0.1-0.37-0.37C34.42,3.61,34.43,3.18,34.41,2.75z"/>
	<path fill="#BABCBF" d="M41.53,7.44c0.01-0.19,0.08-0.36,0.17-0.53c0.23-0.01,0.22,0.18,0.26,0.32c0.46,1.73,1.39,3.18,2.72,4.36
		c0.54,0.48,1.13,0.92,1.79,1.23c0.12,0.06,0.23,0.12,0.26,0.26c-0.01,0.17-0.11,0.25-0.26,0.29c-0.39-0.01-0.68-0.26-0.98-0.45
		c-1.33-0.88-2.42-1.99-3.21-3.4C42,9,41.8,8.44,41.56,7.89C41.49,7.75,41.47,7.59,41.53,7.44z"/>
	<path fill="#DADADB" d="M42.86,4.92c0.02-0.03,0.05-0.05,0.07-0.08c0.29-0.08,0.34,0.1,0.34,0.32c0,1.31,0.48,2.47,1.14,3.56
		c0.71,1.17,1.71,2.06,2.93,2.68c0.2,0.1,0.41,0.19,0.5,0.41c0.04,0.14-0.03,0.24-0.14,0.31c-0.05,0.03-0.11,0.05-0.17,0.04
		c-0.14-0.14-0.29-0.24-0.47-0.33c-2.05-1.06-3.4-2.69-4-4.93c-0.13-0.49-0.29-0.97-0.29-1.49C42.77,5.25,42.79,5.08,42.86,4.92z"/>
	<path fill="#ADAFB1" d="M41.24,8.86c-0.03-0.25,0.05-0.48,0.1-0.71c0.14-0.2,0.19-0.01,0.24,0.07c0.1,0.17,0.17,0.35,0.25,0.53
		c0.53,1.14,1.21,2.18,2.13,3.06c0.57,0.54,1.21,0.98,1.88,1.38c0.2,0.12,0.44,0.23,0.3,0.54c-0.02,0.05-0.05,0.1-0.1,0.13
		c-0.05,0.03-0.1,0.06-0.15,0.06C43.78,12.73,42.18,11.1,41.24,8.86z"/>
	<path fill="#C1C3C5" d="M46.73,13.1c-0.18-0.22-0.46-0.27-0.69-0.4c-1.15-0.66-2.1-1.55-2.85-2.63c-0.61-0.88-1.12-1.83-1.33-2.91
		c-0.02-0.11-0.05-0.2-0.15-0.25c0.03-0.18,0.11-0.34,0.22-0.49c0.2,0.05,0.23,0.23,0.27,0.39c0.25,0.89,0.56,1.76,1.05,2.56
		c0.48,0.78,1.1,1.45,1.78,2.06c0.5,0.44,1.04,0.83,1.65,1.11c0.13,0.06,0.25,0.14,0.3,0.29C46.98,12.99,46.9,13.09,46.73,13.1z"/>
	<path fill="#E5E6E6" d="M43.5,4.24c0.06-0.1,0.13-0.18,0.24-0.22C43.96,4.12,44,4.3,44,4.53c-0.01,1.44,0.38,2.79,1.17,3.99
		c0.66,1.02,1.59,1.77,2.7,2.28c0.14,0.07,0.29,0.13,0.38,0.26c0.03,0.05,0.06,0.11,0.07,0.17c0,0.14-0.06,0.23-0.21,0.26
		c-1.93-0.79-3.31-2.13-4.11-4.09c-0.38-0.94-0.5-1.9-0.47-2.89C43.54,4.41,43.47,4.34,43.5,4.24z"/>
	<path fill="#F5F5F6" d="M52.09,9.81c0.03-0.03,0.06-0.06,0.09-0.08c0.08-0.09,0.17-0.16,0.29-0.18c0.74-0.17,1.27-0.68,1.78-1.19
		c0.34-0.34,0.64-0.71,0.86-1.14c0.09-0.17,0.25-0.26,0.43-0.29c0.15,0.2,0.2,0.44,0.24,0.68c-0.01,0.12,0.18,0.32-0.14,0.32
		c-0.09,0-0.11,0.1-0.15,0.16c-0.54,0.83-1.26,1.46-2.15,1.91c-0.39,0.2-0.8,0.33-1.19,0.53c-0.07-0.05-0.1-0.13-0.13-0.21
		C52,10.13,51.97,9.96,52.09,9.81z"/>
	<path fill="#F0F1F1" d="M44.98,3.14c0.17,0.11,0.11,0.25,0.08,0.41c-0.22,0.92-0.16,1.83,0.06,2.76c0.17,0.72,0.5,1.34,0.9,1.94
		c0.3,0.46,0.71,0.84,1.15,1.16c0.27,0.19,0.26,0.39,0.25,0.64c-0.36-0.1-0.64-0.34-0.9-0.57c-1.21-1.03-1.79-2.39-2-3.95
		c-0.1-0.73-0.03-1.43,0.08-2.15C44.7,3.27,44.82,3.18,44.98,3.14z"/>
	<path fill="#D0D2D3" d="M42.31,5.71c0.03-0.16,0.11-0.28,0.24-0.38c0.15,0.05,0.16,0.19,0.18,0.32c0.1,0.64,0.26,1.27,0.46,1.89
		c0.44,1.32,1.26,2.38,2.28,3.29c0.53,0.47,1.12,0.85,1.75,1.16c0.11,0.05,0.2,0.12,0.27,0.21c0.03,0.29-0.13,0.45-0.39,0.53
		c-0.06-0.01-0.11-0.04-0.11-0.11c0.01-0.09,0.08-0.2-0.07-0.25c-0.23-0.09-0.42-0.26-0.63-0.38c-1.61-0.96-2.74-2.34-3.46-4.05
		C42.54,7.24,42.38,6.48,42.31,5.71z"/>
	<path fill="#CFD1D2" d="M55.87,11.29c-0.01,0.11,0,0.22-0.08,0.31c-0.51,0.53-1.17,0.8-1.82,1.08c-0.95,0.41-1.94,0.65-2.98,0.66
		c-0.15,0-0.28,0.04-0.41,0.1c-0.1,0.05-0.2,0.08-0.25-0.07c-0.02-0.16,0.08-0.27,0.16-0.39c0.08-0.1,0.17-0.17,0.3-0.19
		c0.35-0.08,0.71-0.02,1.06-0.08c0.42,0.1,0.48-0.21,0.56-0.49c0.22,0,0.16,0.18,0.19,0.29c0.01,0.05,0.03,0.09,0.02,0.03
		c0,0,0.02-0.01,0.03-0.02c0.69-0.29,1.41-0.51,2.07-0.88c0.28-0.16,0.54-0.35,0.81-0.54C55.73,10.98,55.86,11.02,55.87,11.29z"/>
	<path fill="#D5D6D7" d="M47.51,12.24c-0.86-0.35-1.64-0.86-2.3-1.49c-0.65-0.63-1.25-1.32-1.67-2.16c-0.49-0.98-0.76-2-0.91-3.08
		c-0.01-0.06-0.05-0.12-0.07-0.18c0.08-0.15,0.17-0.29,0.31-0.41c-0.03,1.3,0.33,2.51,0.94,3.63c0.48,0.9,1.13,1.69,1.95,2.34
		c0.5,0.4,1.02,0.75,1.63,0.96c0.17,0.06,0.09,0.22,0.18,0.3C47.59,12.21,47.56,12.23,47.51,12.24z"/>
	<path fill="#E1E2E3" d="M43.5,4.24c0.12,0.03,0.18,0.06,0.16,0.23c-0.06,0.94,0.03,1.86,0.39,2.75c0.23,0.57,0.49,1.11,0.83,1.61
		c0.74,1.08,1.73,1.87,2.92,2.41c0.12,0.05,0.23,0.12,0.32,0.2c0.03,0.13-0.04,0.22-0.14,0.29c-0.05,0.03-0.11,0.05-0.17,0.03
		c-0.1-0.17-0.25-0.29-0.43-0.38c-2.07-1.01-3.33-2.7-3.91-4.88c-0.17-0.65-0.27-1.35-0.22-2.04C43.32,4.38,43.39,4.3,43.5,4.24z"/>
	<path fill="#C7C9CB" d="M47.02,12.62c0.03,0.03,0.06,0.05,0.08,0.08c0.02,0.03,0.02,0.07,0,0.1c-0.04,0.04-0.08,0.07-0.15,0.06
		c-0.13-0.13-0.28-0.22-0.45-0.3c-1.15-0.57-2.05-1.44-2.85-2.42c-0.82-1-1.27-2.18-1.58-3.41c-0.03-0.11-0.11-0.2-0.16-0.31
		c0.05-0.17,0.12-0.33,0.24-0.47c0.16,0.1,0.17,0.28,0.21,0.44c0.15,0.62,0.31,1.23,0.56,1.82c0.68,1.58,1.79,2.79,3.19,3.76
		c0.23,0.16,0.5,0.22,0.73,0.37C46.95,12.41,47.13,12.43,47.02,12.62z"/>
	<path fill="#ECECED" d="M55.95,8.3c0.1,0.17,0.07,0.36,0.08,0.55c0.04,0.07,0.03,0.15,0.02,0.23C56.03,9.1,56,9.12,55.96,9.12
		c-0.1-0.04-0.17-0.02-0.24,0.06c-0.73,0.91-1.73,1.45-2.76,1.93c-0.21,0.1-0.43,0.18-0.51,0.44c-0.02,0.07-0.09,0.08-0.16,0.04
		c-0.17-0.17-0.13-0.37-0.11-0.57c0.04-0.29,0.21-0.43,0.49-0.52c0.53-0.17,0.99-0.49,1.47-0.79c0.52-0.32,0.9-0.77,1.3-1.21
		c0.1-0.11,0.23-0.42,0.45-0.09C55.9,8.42,55.89,8.31,55.95,8.3z"/>
	<path fill="#B4B6B9" d="M46.07,13.71c0.09-0.27-0.12-0.36-0.29-0.46c-0.8-0.46-1.54-0.99-2.18-1.66c-0.89-0.94-1.54-2.03-2.06-3.2
		c-0.04-0.1-0.01-0.28-0.21-0.24c0.02-0.25,0.06-0.49,0.2-0.71c0.18,0.76,0.5,1.46,0.89,2.12c0.38,0.64,0.8,1.27,1.34,1.81
		c0.41,0.41,0.85,0.77,1.32,1.11c0.45,0.33,0.89,0.65,1.41,0.86c0.01,0.12-0.07,0.19-0.15,0.27C46.27,13.66,46.2,13.77,46.07,13.71z
		"/>
	<path fill="#9B9D9F" d="M41.25,10.58c-0.01-0.18-0.02-0.36-0.03-0.54c-0.05-0.11-0.06-0.22,0.01-0.33
		c0.15,0.01,0.19,0.13,0.24,0.23c0.95,1.77,2.33,3.11,4.08,4.08c0.02,0.01,0.04,0.03,0.06,0.05c0.02,0.04,0.02,0.07,0.01,0.11
		c-0.11,0.13-0.23,0.21-0.4,0.21c-0.55-0.19-1-0.55-1.45-0.89c-0.77-0.6-1.45-1.3-2.02-2.09C41.56,11.16,41.4,10.87,41.25,10.58z"/>
	<path fill="#BABCBE" d="M55.4,12.7c-0.04,0.18-0.12,0.33-0.24,0.47c-0.32,0.42-0.83,0.52-1.28,0.68c-1.18,0.43-2.4,0.63-3.66,0.59
		c-0.2-0.01-0.45,0.04-0.59-0.2c-0.01-0.21,0.12-0.32,0.28-0.41c0.04-0.01,0.09-0.02,0.13-0.02c1.61,0.12,3.13-0.2,4.57-0.92
		C54.85,12.78,55.08,12.54,55.4,12.7z"/>
	<path fill="#C1C3C5" d="M55.4,12.7c-0.57,0.13-1.05,0.48-1.6,0.69c-1.18,0.45-2.4,0.62-3.66,0.56c-0.05,0-0.11-0.06-0.16-0.1
		c-0.05-0.22,0.09-0.29,0.27-0.33c1.33-0.03,2.65-0.17,3.88-0.76c0.32-0.15,0.62-0.34,0.95-0.46c0.16-0.06,0.33-0.2,0.49,0.02
		C55.53,12.45,55.48,12.58,55.4,12.7z"/>
	<path fill="#E8E9EA" d="M48.19,11.13c-0.15-0.27-0.48-0.33-0.71-0.43c-0.66-0.29-1.13-0.77-1.65-1.23
		c-0.82-0.74-1.27-1.71-1.61-2.73c-0.21-0.64-0.34-1.33-0.33-2.02c0-0.26-0.01-0.49-0.16-0.71c0.13-0.11,0.26-0.22,0.39-0.33
		c0.22,0.03,0.23,0.18,0.19,0.35c-0.21,0.92-0.03,1.82,0.24,2.68c0.44,1.36,1.17,2.54,2.42,3.32c0.37,0.23,0.72,0.5,1.14,0.67
		C48.42,10.82,48.42,10.96,48.19,11.13z"/>
	<path fill="#CCCECF" d="M47.02,12.62c-0.01-0.17-0.15-0.2-0.27-0.25c-1.11-0.46-1.93-1.27-2.71-2.16
		c-1.07-1.24-1.53-2.73-1.89-4.27c0.02-0.1,0.08-0.17,0.16-0.23C42.53,6,42.53,6.37,42.59,6.7c0.3,1.63,1.15,2.93,2.3,4.08
		c0.52,0.51,1.08,0.95,1.71,1.32c0.19,0.11,0.36,0.25,0.6,0.23C47.2,12.47,47.13,12.56,47.02,12.62z"/>
	<path fill="#DDDEE0" d="M43.26,4.48c0.1,0.57,0.24,1.14,0.27,1.71c0.03,0.48,0.2,0.91,0.36,1.33c0.36,0.94,0.94,1.77,1.64,2.47
		c0.51,0.51,1.07,0.99,1.78,1.26c0.23,0.09,0.5,0.19,0.55,0.5c0.04,0.06,0.01,0.08-0.05,0.09c-0.44-0.41-1.03-0.58-1.51-0.94
		c-1.09-0.82-1.96-1.81-2.49-3.06c-0.35-0.84-0.73-1.7-0.64-2.66c0.02-0.21-0.08-0.29-0.25-0.33C43,4.69,43.12,4.57,43.26,4.48z"/>
	<path fill="#F0F0F1" d="M55.95,8.3c-0.01,0.1-0.01,0.21-0.02,0.31c-0.08-0.41-0.27-0.29-0.4-0.06C55.32,8.88,55,9.1,54.77,9.41
		c-0.18,0.25-0.52,0.39-0.78,0.54c-0.4,0.22-0.77,0.54-1.24,0.64c-0.23,0.05-0.43,0.14-0.5,0.39c-0.08,0-0.11-0.05-0.13-0.11
		c-0.03-0.13-0.04-0.26,0.07-0.36c0.13-0.17,0.29-0.26,0.5-0.34c1.18-0.43,2.13-1.16,2.79-2.24c0.04-0.07,0.07-0.3,0.25-0.11
		c0.01,0.01,0.04,0.01,0.05,0.01c0-0.08,0.01-0.15,0.01-0.23C55.9,7.82,55.94,8.05,55.95,8.3z"/>
	<path fill="#C8C9CB" d="M55.55,12.31c-0.25-0.12-0.47,0.05-0.64,0.16c-0.91,0.52-1.87,0.86-2.9,1.03c-0.6,0.09-1.19,0.09-1.79,0.05
		c0-0.11-0.01-0.23,0.17-0.21c0.02,0.03,0.03,0.06,0.05,0.09c0.41-0.35,0.92-0.16,1.37-0.24c1.21-0.21,2.34-0.59,3.38-1.24
		c0.2-0.12,0.4-0.23,0.61-0.34C55.75,11.85,55.68,12.09,55.55,12.31z"/>
	<path fill="#A2A4A6" d="M54.22,14.5c-0.18,0.24-0.38,0.46-0.62,0.63c-1.5,0.44-3.02,0.53-4.56,0.3c-0.12-0.02-0.23-0.04-0.31-0.14
		c-0.02-0.04-0.03-0.08-0.03-0.12c0.02-0.12,0.1-0.19,0.2-0.24c0.04-0.01,0.08-0.02,0.12-0.02c0.88,0.03,1.76,0.11,2.64,0.04
		c0.7-0.06,1.36-0.23,2.01-0.44C53.85,14.45,54.04,14.34,54.22,14.5z"/>
	<path fill="#014459" d="M46.46,16.7c-1.12-0.28-2.07-0.86-2.9-1.66c0.09-0.25,0.31-0.15,0.48-0.18c0.13,0.01,0.25,0.06,0.36,0.14
		c0.71,0.48,1.47,0.84,2.29,1.12c0.14,0.05,0.31,0.08,0.37,0.25c0,0.04-0.01,0.08-0.03,0.11C46.87,16.61,46.69,16.72,46.46,16.7z"/>
	<path fill="#ECECED" d="M48.19,11.13c0.27-0.29-0.05-0.33-0.19-0.38c-0.72-0.25-1.31-0.74-1.86-1.21
		c-0.56-0.48-0.98-1.12-1.31-1.81c-0.45-0.96-0.67-1.97-0.72-3.02c-0.01-0.24,0.06-0.46,0.1-0.69c0.03-0.16-0.01-0.24-0.1-0.33
		c0.05-0.09,0.14-0.11,0.23-0.16c0.29,0.08,0.15,0.32,0.14,0.47c-0.06,0.57-0.08,1.14,0.01,1.71c0.11,0.77,0.39,1.49,0.76,2.19
		c0.3,0.58,0.69,1.06,1.17,1.49c0.36,0.32,0.72,0.63,1.18,0.8c0.16,0.06,0.29,0.17,0.43,0.27c0.13,0.08,0.26,0.18,0.43,0.15
		c0.15,0.02,0.2,0.1,0.18,0.24c-0.05,0.15-0.14,0.27-0.26,0.37c-0.04,0.02-0.07,0.01-0.11-0.01C48.25,11.19,48.22,11.16,48.19,11.13
		z"/>
	<path fill="#FAFAFA" d="M55.55,6.92c-0.33,0.24-0.5,0.6-0.72,0.93c-0.18,0.28-0.43,0.53-0.68,0.76c-0.35,0.3-0.72,0.58-1.09,0.85
		c-0.26,0.18-0.59,0.16-0.88,0.26c-0.14-0.56,0.41-0.53,0.66-0.64c0.37-0.16,0.61-0.46,0.92-0.67c0.34-0.23,0.56-0.6,0.82-0.91
		c0.28-0.33,0.42-0.71,0.58-1.12c0.13,0.13,0.11,0.37,0.31,0.45C55.5,6.86,55.52,6.89,55.55,6.92z"/>
	<path fill="#9A9D9F" d="M48.73,15.18c0.11,0.21,0.31,0.11,0.48,0.14c0.94,0.17,1.87,0.15,2.81,0.02c0.42-0.06,0.84-0.15,1.25-0.23
		c0.12-0.02,0.22-0.05,0.33,0.02c-0.17,0.23-0.4,0.38-0.64,0.52c-1.44,0.29-2.88,0.31-4.32,0.06c-0.1-0.02-0.21-0.03-0.29-0.11
		C48.28,15.29,48.47,15.2,48.73,15.18z"/>
	<path fill="#ECECED" d="M48.43,10.67c-0.05,0.06-0.11,0.09-0.17,0.05c-1.01-0.62-2.09-1.17-2.76-2.22
		c-0.88-1.36-1.32-2.83-1.11-4.47c0.02-0.17,0.11-0.35-0.04-0.5c0.06-0.08,0.14-0.14,0.24-0.15c0.03,0.08,0.19,0.11,0.12,0.22
		c-0.27,0.44-0.14,0.93-0.18,1.39c-0.03,0.39,0.1,0.79,0.17,1.19c0.12,0.71,0.47,1.34,0.76,1.99c0.16,0.35,0.48,0.59,0.73,0.88
		c0.35,0.4,0.84,0.63,1.21,1c0.03,0.02,0.07,0.05,0.1,0.07C47.89,10.17,48.17,10.4,48.43,10.67z"/>
	<path fill="#A6A8AB" d="M41.24,8.86c0.32,0.19,0.35,0.58,0.51,0.86c0.69,1.21,1.56,2.25,2.64,3.11c0.4,0.32,0.85,0.59,1.29,0.85
		c0.09,0.05,0.09,0.19,0.21,0.18c0.06,0.19-0.09,0.17-0.19,0.21c-0.71-0.36-1.33-0.84-1.93-1.34c-0.96-0.81-1.72-1.79-2.34-2.89
		c-0.12-0.21-0.26-0.42-0.22-0.69C41.23,9.06,41.23,8.96,41.24,8.86z"/>
	<path fill="#AEB0B3" d="M54.85,13.64c-0.06,0.23-0.21,0.41-0.38,0.57c-1.02,0.41-2.07,0.65-3.17,0.76
		c-0.59,0.06-1.16,0.01-1.74-0.05c-0.13-0.02-0.25-0.06-0.3-0.21c-0.01-0.07,0.03-0.13,0.09-0.16c0.16-0.1,0.34-0.13,0.52-0.11
		c1.42,0.13,2.8-0.04,4.13-0.56C54.27,13.76,54.54,13.61,54.85,13.64z"/>
	<path fill="#A1A3A5" d="M41.22,9.16c0.41,1.02,1.07,1.88,1.79,2.7c0.7,0.8,1.56,1.39,2.44,1.96c0.1,0.06,0.09,0.23,0.24,0.21
		c0,0.07-0.02,0.11-0.09,0.07c-0.67-0.24-1.26-0.65-1.76-1.12c-0.69-0.65-1.42-1.26-1.92-2.09c-0.22-0.36-0.43-0.74-0.68-1.16
		c-0.01,0.15-0.02,0.23-0.02,0.32C41.13,9.75,41.13,9.46,41.22,9.16z"/>
	<path fill="#B4B6B9" d="M54.85,13.64c-0.45,0.24-0.94,0.37-1.41,0.53c-1.03,0.36-2.1,0.4-3.17,0.4c-0.31,0-0.61-0.11-0.92-0.02
		c-0.01-0.03-0.01-0.07,0-0.1c0.09-0.11,0.11-0.3,0.32-0.27c0.13,0.17,0.33,0.15,0.5,0.15c1.52,0.02,2.97-0.23,4.36-0.88
		c0.21-0.1,0.41-0.19,0.62-0.29C55.09,13.35,55,13.51,54.85,13.64z"/>
	<path fill="#8E9093" d="M41.69,12.24c-0.12-0.22-0.21-0.46-0.23-0.71c-0.05-0.11-0.05-0.22,0.02-0.35c0.26,0.17,0.4,0.43,0.57,0.64
		c0.74,0.92,1.59,1.69,2.58,2.33c0.16,0.1,0.27,0.24,0.23,0.45c-0.07,0.14-0.18,0.19-0.33,0.18c-0.68-0.6-1.44-1.09-2.06-1.75
		C42.2,12.77,42.02,12.44,41.69,12.24z"/>
	<path fill="#A9ABAE" d="M49.28,14.63c0.24,0.34,0.62,0.22,0.92,0.24c1.28,0.1,2.51-0.21,3.73-0.55c0.18-0.05,0.3-0.34,0.54-0.12
		c-0.08,0.1-0.16,0.2-0.24,0.3c-0.35-0.03-0.66,0.14-0.97,0.25c-1.05,0.34-2.11,0.39-3.19,0.3c-0.36-0.03-0.74,0.06-1.09-0.1
		C48.98,14.75,49.09,14.65,49.28,14.63z"/>
	<path fill="#8C8D90" d="M52.18,16.13c-0.26,0.19-0.55,0.31-0.86,0.4c-1.13,0.1-2.25,0.03-3.35-0.26c-0.12-0.03-0.26-0.03-0.35-0.15
		c-0.02-0.25,0.17-0.3,0.35-0.35c0.14-0.01,0.29,0,0.42,0.04c1.14,0.32,2.31,0.22,3.47,0.21C51.99,16.01,52.14,15.94,52.18,16.13z"
		/>
	<path fill="#DDDEDF" d="M56.01,9.1c0.01-0.08,0.01-0.17,0.02-0.25c0.1,0.53,0.1,1.05-0.01,1.58c-0.11-0.12-0.17-0.11-0.29,0.03
		c-0.62,0.7-1.36,1.22-2.29,1.41c-0.16,0.03-0.28,0.14-0.42,0.19c-0.17,0.06-0.34,0.14-0.52,0.03c-0.15-0.31,0.08-0.39,0.3-0.45
		c0.68-0.17,1.27-0.52,1.86-0.88c0.36-0.23,0.65-0.56,0.99-0.82c0.08-0.06,0.15-0.15,0.25-0.17c0.01,0,0.03,0,0.04,0.01
		c0.03,0.02,0.04,0.03,0.04,0.02C55.91,9.56,55.86,9.32,56.01,9.1z"/>
	<path fill="#949699" d="M44.85,14.59c-0.12-0.41-0.52-0.52-0.81-0.73c-0.76-0.55-1.42-1.19-1.99-1.93
		c-0.17-0.22-0.42-0.39-0.51-0.68c-0.1,0.1-0.05,0.19-0.07,0.28c-0.14-0.3-0.19-0.62-0.21-0.95c0.22,0.01,0.19,0.22,0.27,0.34
		c0.74,1.12,1.65,2.08,2.76,2.83c0.31,0.21,0.63,0.4,0.95,0.6c0.01,0.04,0.01,0.07-0.01,0.1C45.12,14.56,45.02,14.66,44.85,14.59z"
		/>
	<path fill="#FCD524" d="M29.41,11.62c0.12-0.13,0.27-0.06,0.4-0.06c1.69-0.01,3.37,0,5.06-0.01c0.47,0,0.93-0.02,1.4-0.04
		c0.09,0.01,0.18,0.02,0.32,0.03c-0.29,0.12-0.53,0.14-0.78,0.14c-1.97,0-3.94,0-5.9,0c-0.14,0-0.32-0.09-0.42,0.1
		c-0.02,0.03-0.05,0.07-0.07,0.02C29.4,11.75,29.41,11.68,29.41,11.62z"/>
	<path fill="#959799" d="M48.35,15.52c0.42,0.15,0.86,0.21,1.29,0.22c0.97,0,1.95,0.11,2.91-0.13c0.13-0.03,0.29-0.05,0.41,0.05
		c-0.11,0.11-0.23,0.2-0.39,0.25c-1.34,0.28-2.68,0.25-4.02-0.02c-0.13-0.03-0.29-0.03-0.39-0.16
		C48.15,15.59,48.19,15.5,48.35,15.52z"/>
	<path fill="#858689" d="M47.64,16.06c0.83,0.24,1.67,0.39,2.53,0.4c0.38,0.01,0.77-0.09,1.15,0.07c-0.29,0.16-0.61,0.24-0.93,0.3
		c-0.39-0.02-0.78,0-1.17-0.03c-0.54-0.04-1.04-0.21-1.55-0.32c-0.11-0.02-0.22-0.09-0.28-0.2c-0.03-0.13,0.04-0.19,0.14-0.24
		C47.57,16.03,47.61,16.03,47.64,16.06z"/>
	<path fill="#888A8C" d="M41.69,12.24c0.02-0.09,0.01-0.15,0.12-0.04c0.51,0.51,0.97,1.07,1.54,1.52c0.31,0.25,0.62,0.52,0.96,0.72
		c0.14,0.08,0.18,0.18,0.23,0.3c0.01,0.04,0,0.07-0.03,0.11c-0.11,0.11-0.24,0.08-0.38,0.08c-0.04,0-0.07-0.01-0.1-0.03
		c0.08-0.18,0.08-0.17-0.13-0.29c-0.66-0.39-1.18-0.93-1.71-1.47c-0.06-0.06-0.11-0.15-0.2-0.18
		C41.85,12.73,41.73,12.51,41.69,12.24z"/>
	<path fill="#D9DADB" d="M52.5,12.07c0.25,0,0.49-0.06,0.69-0.22c0.04-0.03,0.08-0.08,0.13-0.08c1.09-0.14,1.85-0.81,2.54-1.59
		c0.01-0.01,0.02-0.01,0.04-0.01c0.09,0.06,0.01,0.21,0.13,0.26c0,0.03,0,0.05-0.01,0.08c-0.5,0.62-1.14,1.05-1.86,1.38
		c-0.42,0.19-0.84,0.35-1.27,0.51c-0.13,0.05-0.23,0.12-0.31,0.22c-0.18-0.08,0.02-0.31-0.16-0.39c-0.02-0.03-0.02-0.05-0.02-0.08
		C52.42,12.1,52.45,12.08,52.5,12.07z"/>
	<path fill="#D5D6D7" d="M52.58,12.62c-0.02-0.21,0.12-0.26,0.27-0.32c0.82-0.32,1.65-0.61,2.36-1.15c0.28-0.21,0.47-0.52,0.81-0.65
		c0.01,0.27-0.06,0.53-0.14,0.79c-0.08-0.14-0.17-0.23-0.33-0.08c-0.51,0.5-1.18,0.74-1.8,1.02C53.37,12.4,52.98,12.56,52.58,12.62z
		"/>
	<path fill="#7E8082" d="M47.41,16.22c0.55,0.31,1.16,0.42,1.77,0.46c0.37,0.03,0.74,0.15,1.11,0.01c0.1-0.04,0.14,0.03,0.1,0.13
		c-0.38,0.12-0.77,0.19-1.18,0.18c-0.62-0.04-1.24-0.11-1.85-0.29c-0.15-0.05-0.34-0.04-0.35-0.27c0-0.02,0.01-0.04,0.01-0.06
		C47.12,16.26,47.21,16.12,47.41,16.22z"/>
	<path fill="#828485" d="M42,12.95c0.19-0.1,0.23,0.1,0.31,0.18c0.59,0.57,1.15,1.18,1.91,1.55c-0.06,0.08-0.12,0.14-0.18,0.21
		c-0.22,0.07-0.35,0.05-0.55-0.16c-0.24-0.27-0.53-0.52-0.86-0.7C42.37,13.69,42.14,13.35,42,12.95z"/>
	<path fill="#76797D" d="M47.01,16.44c0.48,0.27,1.01,0.33,1.54,0.4c0.23,0.03,0.46,0.04,0.66,0.16c-0.94,0.12-1.86,0.02-2.75-0.31
		C46.64,16.61,46.83,16.53,47.01,16.44z"/>
	<path fill="#919395" d="M48.19,15.65c0.47,0.28,1.02,0.23,1.53,0.32c0.89,0.16,1.77,0.06,2.65-0.14c0.08-0.02,0.16-0.01,0.21,0.07
		c-0.11,0.11-0.25,0.18-0.39,0.23c-0.5,0-0.99-0.01-1.49,0.01c-0.93,0.05-1.84-0.09-2.74-0.32c-0.02-0.02-0.02-0.04-0.02-0.06
		c0-0.02,0.01-0.03,0.01-0.03C48.01,15.67,48.09,15.63,48.19,15.65z"/>
	<path fill="#00679C" d="M34.41,2.75c0.19,0.37,0.08,0.76,0.08,1.14c0,0.35,0.1,0.44,0.44,0.44c0.43,0,0.88-0.12,1.3,0.08
		c-0.55,0.11-1.11,0.03-1.66,0.05c-0.12,0-0.2-0.08-0.19-0.2C34.38,3.76,34.31,3.25,34.41,2.75z"/>
	<path fill="#FCD524" d="M19.95,10.53c0.02,0.24-0.02,0.48-0.16,0.68c-0.18-0.14-0.02-0.3,0-0.43c0.12-0.66,0.06-1.32,0.07-1.98
		c0.01-1.03,0-2.06,0-3.09c0-0.12-0.04-0.25,0.09-0.45C19.95,7.07,19.95,8.8,19.95,10.53z"/>
	<path fill="#FCD723" d="M22.12,11.05c0-0.03,0.01-0.05,0.01-0.08c0.12-0.12,0.07-0.27,0.07-0.41c0-1.61,0-3.23,0-4.84
		c0-0.13,0-0.25,0-0.42c0.11,0.12,0.08,0.21,0.08,0.3c0,1.69,0,3.39,0,5.08C22.28,10.81,22.37,11.01,22.12,11.05z"/>
	<path fill="#7C7E7E" d="M42.64,14.02c0.01-0.05,0.02-0.13,0.08-0.08c0.32,0.25,0.71,0.46,0.93,0.79c0.14,0.2,0.25,0.14,0.39,0.16
		c0.03,0,0.06,0.01,0.09,0.01c0.02,0.03,0.01,0.05-0.02,0.07c-0.19,0.02-0.39-0.04-0.56,0.08C43.2,14.75,42.89,14.41,42.64,14.02z"
		/>
	<path fill="#FAD723" d="M15.07,9.49c0.02,0.11-0.01,0.21-0.07,0.31c-0.09-0.21-0.25-0.24-0.46-0.24c-0.93,0.01-1.86,0-2.79,0
		c-0.01,0-0.03-0.01-0.03-0.01c-0.01-0.02-0.01-0.04-0.01-0.06c0.11-0.11,0.26-0.11,0.4-0.11c0.85,0,1.7,0,2.56,0
		C14.82,9.38,14.96,9.38,15.07,9.49z"/>
	<path fill="#257C85" d="M11.65,9.33c0.02,0,0.05,0,0.07,0c1.12-0.05,2.24-0.06,3.36,0.01c0,0.03,0,0.05,0,0.08
		c-1.12,0.06-2.24,0.04-3.37,0.01C11.69,9.39,11.67,9.36,11.65,9.33z"/>
	<path fill="#CABE3D" d="M11.71,9.42c1.12,0,2.25-0.01,3.37-0.01c0,0.03,0,0.05-0.01,0.08c-1.12,0-2.24,0-3.36,0
		C11.72,9.47,11.71,9.44,11.71,9.42z"/>
	<path fill="#FED822" d="M14.46,7.24c0.04-0.04,0.09-0.07,0.13-0.11c0.24,0.14,0.51,0.08,0.76,0.08c0.58,0.01,1.16,0,1.75,0.04
		C16.22,7.26,15.34,7.37,14.46,7.24z"/>
	<path fill="#FEDC1D" d="M9.36,7.3c-0.64,0-1.28,0-1.92,0.01C7.39,7.25,7.41,7.22,7.48,7.22c0.62,0,1.24,0,1.86,0
		c0.01,0,0.03,0.01,0.03,0.02C9.36,7.26,9.36,7.28,9.36,7.3z"/>
	<path fill="#FEDB1E" d="M22.05,5.2c-0.65,0-1.29,0-1.94-0.01c0-0.02,0-0.04-0.01-0.07c0.63-0.02,1.26-0.05,1.9,0.02
		C22.01,5.14,22.03,5.18,22.05,5.2z"/>
	<path fill="#FEDC1D" d="M10.08,14.9c0,0.51,0,1.02,0,1.53c-0.02,0.01-0.04,0.01-0.07,0.02c-0.05-0.52-0.04-1.04,0-1.56
		c0,0,0.02-0.01,0.03-0.01C10.06,14.89,10.07,14.9,10.08,14.9z"/>
	<path fill="#FED921" d="M12.17,14.91c0,0.51,0,1.03,0,1.54c-0.01,0-0.03,0-0.04,0c0-0.51,0-1.03,0-1.54
		C12.14,14.91,12.15,14.91,12.17,14.91z"/>
	<path fill="#FDD228" d="M36.53,8.38c0.02,0.33-0.05,0.65-0.23,0.93c-0.22,0.34-0.54,0.48-0.93,0.45c-0.7-0.06-1.12-0.73-1.02-1.62
		c0.09-0.82,0.54-1.23,1.26-1.16c0.41,0.04,0.68,0.25,0.81,0.63C36.51,7.86,36.55,8.12,36.53,8.38z"/>
	<path fill="#FDD228" d="M27.27,8.73c0,0.76,0,0.75-0.78,0.76c-0.48,0.01-0.85-0.14-1.04-0.59c-0.21-0.48-0.2-0.97,0.12-1.41
		c0.21-0.29,0.53-0.36,0.87-0.3c0.38,0.07,0.63,0.29,0.76,0.65C27.3,8.13,27.28,8.43,27.27,8.73z"/>
	<path fill="#00689B" d="M15.08,9.33c-1.12,0-2.24,0-3.36-0.01c0.03-0.02,0.06-0.06,0.1-0.06c1.06,0,2.12,0,3.17,0
		C15.02,9.27,15.05,9.31,15.08,9.33z"/>
	<path fill="#006A91" d="M48.43,10.67c-0.31-0.19-0.61-0.37-0.92-0.56c-0.11-0.47,0.3-0.47,0.54-0.61c0.17-0.06,0.34-0.11,0.51-0.17
		c0.05,0,0.09,0,0.14-0.01c0.06-0.01,0.13-0.05,0.18,0.01c0.04,0.05,0,0.09-0.04,0.13c-0.07,0.08-0.19,0.09-0.29,0.17
		c0.23,0.26,0.55,0.32,0.86,0.37c0.65,0.11,1.31,0.16,1.97,0.06c0.27-0.04,0.44-0.09,0.4-0.42c-0.02-0.16-0.1-0.4,0.17-0.47
		l0.02,0.02l-0.02,0.02c0.07,0.14-0.01,0.29,0.07,0.43c0,0.04,0.01,0.09,0.01,0.13c0.09,0.18-0.04,0.39,0.08,0.57
		c0.02,0.05,0.04,0.11,0.07,0.16c0,0.13,0,0.26,0.01,0.39c-0.04,0.03-0.07,0.03-0.09-0.01c-0.06-0.11,0-0.24-0.05-0.34
		c0.06,0.13-0.01,0.29,0.08,0.42c-0.01,0.23-0.15,0.34-0.35,0.34c-0.81,0.01-1.61,0.08-2.42-0.04c-0.3-0.04-0.53-0.2-0.77-0.36
		C48.62,10.76,48.6,10.66,48.43,10.67z"/>
	<path fill="#006D95" d="M51.96,9.17c-0.17,0.22-0.09,0.47-0.07,0.71c0.01,0.14,0.04,0.2-0.14,0.24c-0.92,0.17-1.82,0.11-2.72-0.09
		c-0.26-0.06-0.48-0.18-0.64-0.4c0.09-0.15,0.27-0.11,0.38-0.2c0.14-0.13-0.03-0.08-0.07-0.11c0.92-0.33,1.83-0.66,2.75-0.99
		c0.27-0.1,0.43,0.02,0.46,0.3C51.94,8.81,51.94,8.99,51.96,9.17z"/>
	<path fill="#006D95" d="M52.12,10.35c-0.17-0.17-0.06-0.38-0.08-0.57c0.02,0.01,0.04,0.02,0.06,0.03
		C52.1,9.99,52.11,10.17,52.12,10.35z"/>
	<path fill="#006D95" d="M52.02,9.64c-0.13-0.13-0.06-0.28-0.07-0.43C52.03,9.35,52.04,9.5,52.02,9.64z"/>
	<path fill="#005978" d="M49.68,14.18c-0.11,0.1-0.21,0.2-0.32,0.3c-0.33,0.11-0.66,0.04-0.96-0.05c-0.59-0.19-1.19-0.36-1.76-0.61
		c-0.13-0.06-0.26-0.12-0.33-0.26c0.06-0.08,0.12-0.15,0.18-0.23c0.08-0.08,0.15-0.16,0.23-0.24c0.08-0.08,0.16-0.16,0.23-0.23
		c0.05-0.03,0.09-0.06,0.14-0.09c0.22,0.33,0.57,0.44,0.93,0.54c0.57,0.16,1.14,0.32,1.74,0.37c0.09,0.01,0.23,0,0.14,0.17
		C49.83,13.97,49.76,14.08,49.68,14.18z"/>
	<path fill="#005F80" d="M49.91,13.86c-0.45-0.1-0.9-0.22-1.35-0.29c-0.43-0.07-0.81-0.26-1.22-0.37c-0.2-0.05-0.24-0.23-0.24-0.42
		c0-0.03,0-0.05,0-0.08c0.17-0.13,0.3-0.28,0.41-0.46c0.04-0.01,0.06-0.04,0.05-0.09c0.03-0.02,0.06-0.04,0.09-0.06
		c0.72,0.51,1.57,0.57,2.41,0.67c0.2,0.02,0.47-0.05,0.5,0.28c-0.06,0.1-0.11,0.2-0.17,0.29c-0.06,0.07-0.11,0.14-0.17,0.21
		c-0.1,0.09-0.19,0.18-0.24,0.31C49.96,13.85,49.93,13.85,49.91,13.86z"/>
	<path fill="#006285" d="M50.55,13.04c-0.09-0.13-0.22-0.18-0.37-0.18c-0.65,0-1.27-0.15-1.9-0.31c-0.28-0.07-0.5-0.2-0.64-0.46
		c0.06-0.08,0.12-0.16,0.17-0.24c0.02-0.03,0.03-0.06,0.05-0.09c0.03-0.02,0.06-0.04,0.09-0.06c0.59,0.55,1.36,0.49,2.08,0.59
		c0.31,0.04,0.65-0.08,0.93,0.15c0.05,0.19-0.05,0.31-0.21,0.39C50.69,12.9,50.62,12.97,50.55,13.04z"/>
	<path fill="#005674" d="M46.31,13.56c0.64,0.35,1.35,0.5,2.02,0.75c0.29,0.11,0.64,0.19,0.97,0.08c0.01,0,0.03,0.06,0.05,0.09
		c0,0.02-0.01,0.05-0.01,0.07c-0.03,0.03-0.05,0.05-0.08,0.08c-0.1,0.11-0.21,0.21-0.31,0.32c-0.02,0.01-0.05,0.01-0.07,0.02
		C48.71,15,48.52,15,48.36,14.92c-0.67-0.3-1.43-0.37-2.08-0.76c-0.15-0.09-0.32-0.14-0.28-0.36c0.02-0.03,0.05-0.06,0.07-0.09
		C46.15,13.66,46.23,13.61,46.31,13.56z"/>
	<path fill="#00536F" d="M46,13.8c0.28,0.37,0.72,0.47,1.12,0.62c0.58,0.22,1.18,0.36,1.77,0.54c-0.05,0.05-0.1,0.1-0.16,0.15
		c-0.27,0.2-0.54,0.12-0.84,0.07c-0.72-0.1-1.33-0.48-2-0.71c-0.15-0.05-0.3-0.12-0.31-0.31c0.01-0.02,0.01-0.04,0.02-0.07
		c0.03-0.02,0.06-0.05,0.09-0.07c0.08-0.04,0.16-0.07,0.2-0.16C45.93,13.85,45.97,13.82,46,13.8z"/>
	<path fill="#016589" d="M50.95,12.49c-0.25-0.17-0.54-0.08-0.81-0.1c-0.57-0.05-1.14-0.11-1.7-0.26c-0.25-0.07-0.4-0.21-0.48-0.43
		c0.06-0.08,0.11-0.16,0.17-0.25c0.08-0.06,0.14-0.14,0.15-0.24c0.02-0.01,0.04-0.01,0.07-0.01c0.88,0.42,1.81,0.46,2.76,0.45
		c0.61-0.01,0.66-0.03,1.06-0.48c0.05,0.3,0.19,0.54,0.22,0.81c0.02,0.06,0.03,0.11,0.02,0.17c-0.01,0.03-0.01,0.05,0,0.07
		c0,0.05-0.01,0.1,0,0.15c0.02,0.46-0.09,0.54-0.53,0.38c-0.16,0.02-0.27-0.08-0.38-0.16C51.32,12.49,51.14,12.45,50.95,12.49z"/>
	<path fill="#D2D6D8" d="M50.95,12.49c0.11-0.14,0.21-0.24,0.4-0.08c0.16,0.14,0.35,0.24,0.53,0.36c-0.36,0.16-0.74,0.09-1.11,0.07
		C50.82,12.72,50.88,12.6,50.95,12.49z"/>
	<path fill="#00678C" d="M52.35,12.07c-0.15-0.24-0.1-0.53-0.24-0.92c0.01,0.61-0.38,0.58-0.67,0.6c-0.91,0.04-1.82,0.02-2.71-0.24
		c-0.18-0.05-0.27-0.19-0.39-0.3c0.08-0.1,0.16-0.21,0.24-0.31c0.06-0.01,0.1-0.14,0.15-0.08c0.33,0.41,0.8,0.39,1.25,0.39
		c0.54,0,1.09-0.01,1.63,0.01c0.26,0.01,0.42-0.07,0.5-0.32c0.03,0,0.06,0,0.08,0c0.02,0.03,0.04,0.06,0.06,0.08
		c0,0.21,0,0.42,0.09,0.62c0.03,0.03,0.06,0.06,0.08,0.1C52.43,11.83,52.44,11.96,52.35,12.07z"/>
	<path fill="#E5E6E7" d="M52.34,11.68c0-0.03,0-0.05-0.01-0.08c0.06-0.32,0.29-0.45,0.58-0.57c0.86-0.35,1.62-0.86,2.34-1.44
		c0.21-0.17,0.33-0.4,0.5-0.59c0.2-0.21,0.18-0.03,0.19,0.1c0.07,0.11,0.02,0.24,0.04,0.36c-0.2,0.49-0.65,0.75-1.03,1.04
		c-0.71,0.53-1.48,0.97-2.35,1.19C52.51,11.71,52.42,11.76,52.34,11.68z"/>
	<path fill="#DFE8F1" d="M55.94,9.49c0-0.13,0-0.26,0-0.39c0.02,0,0.05,0,0.07,0c0,0.28,0,0.57,0,0.85c-0.1-0.02-0.05-0.1-0.07-0.15
		C55.85,9.7,55.88,9.59,55.94,9.49z"/>
	<path fill="#004F6B" d="M45.59,14.17c0.35,0.34,0.85,0.35,1.24,0.6c0.44,0.28,0.99,0.22,1.46,0.43c0.18,0.08,0.27-0.22,0.45-0.08
		c0,0.02,0,0.04-0.01,0.06c-0.14,0.1-0.29,0.19-0.38,0.34c-0.05,0.04-0.11,0.09-0.16,0.13c-0.07,0.04-0.15,0.07-0.22,0.11
		c-0.7-0.15-1.34-0.48-2.02-0.68c-0.33-0.1-0.69-0.22-0.72-0.66c0.01-0.02,0.01-0.05,0.02-0.07C45.36,14.29,45.47,14.23,45.59,14.17
		z"/>
	<path fill="#00475F" d="M44.11,14.96c0.01-0.02,0.02-0.05,0.02-0.07c0.13-0.03,0.25-0.06,0.38-0.09c0.4,0.08,0.73,0.32,1.09,0.5
		c0.59,0.28,1.19,0.55,1.85,0.64c0.07,0.01,0.13,0.03,0.11,0.12c-0.05,0.05-0.1,0.1-0.16,0.16c-0.13,0.06-0.26,0.11-0.39,0.17
		c-0.68-0.24-1.3-0.6-1.99-0.83c-0.24-0.08-0.44-0.29-0.66-0.45C44.3,15.04,44.23,14.96,44.11,14.96z"/>
	<path fill="#004A63" d="M47.56,16.06c-1.14-0.13-2.1-0.68-3.05-1.25c0.01-0.02,0.02-0.04,0.02-0.07c0.12-0.02,0.22-0.07,0.31-0.16
		c0.12-0.06,0.25-0.11,0.37-0.17c0.16,0.26,0.37,0.47,0.67,0.55c0.48,0.12,0.94,0.29,1.37,0.52c0.23,0.12,0.57-0.08,0.7,0.28
		c0,0.02-0.01,0.04-0.01,0.06c-0.1,0.08-0.21,0.15-0.31,0.23C47.62,16.06,47.59,16.06,47.56,16.06z"/>
	<path fill="#E1E2E3" d="M55.94,9.49c0,0.1,0,0.21,0,0.31c-0.48,0.41-0.92,0.86-1.46,1.18c-0.53,0.32-1.07,0.63-1.69,0.76
		c-0.2,0.04-0.31,0.12-0.29,0.33c-0.03,0.03-0.06,0.06-0.09,0.08c-0.02-0.03-0.04-0.06-0.06-0.08c0-0.13-0.01-0.26-0.01-0.39
		C53.74,11.28,54.92,10.52,55.94,9.49z"/>
	<path fill="#00678C" d="M52.11,10.95c-0.11-0.19-0.1-0.31-0.03-0.53C52.1,10.64,52.1,10.77,52.11,10.95z"/>
</g>
</svg>
