<?xml version="1.0" encoding="utf-8"?>
<!-- Generator: Adobe Illustrator 24.1.2, SVG Export Plug-In . SVG Version: 6.00 Build 0)  -->
<svg version="1.1" id="Layer_1" xmlns="http://www.w3.org/2000/svg" xmlns:xlink="http://www.w3.org/1999/xlink" x="0px" y="0px"
	 viewBox="0 0 61.17 79.29" enable-background="new 0 0 61.17 79.29" xml:space="preserve">
<path fill="none" stroke="#FFFFFF" stroke-width="2" stroke-miterlimit="10" d="M31.9,66.5c0,0,0.67,8.58,9.58,11.66"/>
<g>
	<path fill="#FFFFFF" d="M30.73,24.48c-3.27,0-5.92,2.66-5.92,5.92c0,3.27,2.66,5.92,5.92,5.92c3.27,0,5.92-2.66,5.92-5.92
		C36.65,27.14,34,24.48,30.73,24.48z"/>
	<path fill="#FFFFFF" d="M38.11,14.97H23.22c-4.28,0-7.75,3.47-7.75,7.75v14.89c0,4.28,3.47,7.75,7.75,7.75h14.89
		c4.28,0,7.75-3.47,7.75-7.75V22.72C45.86,18.44,42.39,14.97,38.11,14.97z M30.73,39.65c-5.1,0-9.25-4.15-9.25-9.25
		c0-5.1,4.15-9.25,9.25-9.25c5.1,0,9.25,4.15,9.25,9.25C39.98,35.51,35.83,39.65,30.73,39.65z M40.52,22.74
		c-1.22,0-2.2-0.99-2.2-2.2s0.99-2.2,2.2-2.2s2.2,0.99,2.2,2.2S41.73,22.74,40.52,22.74z"/>
	<path fill="#FFFFFF" d="M60.55,30.05c0-16.5-13.38-29.88-29.88-29.88c-16.5,0-29.88,13.38-29.88,29.88
		c0,16.02,12.61,29.05,28.44,29.81c-0.02,0.03-0.04,0.05-0.06,0.07l-1.42,7.21h8.3l-1.09-7.51c0,0-0.02-0.01-0.05-0.03
		C49.4,57.54,60.55,45.11,60.55,30.05z M49.39,37.61c0,6.23-5.05,11.28-11.28,11.28H23.22c-6.23,0-11.28-5.05-11.28-11.28V22.72
		c0-6.23,5.05-11.28,11.28-11.28h14.89c6.23,0,11.28,5.05,11.28,11.28V37.61z"/>
</g>
</svg>
