<?xml version="1.0" encoding="utf-8"?>
<!-- Generator: Adobe Illustrator 24.1.2, SVG Export Plug-In . SVG Version: 6.00 Build 0)  -->
<svg version="1.1" id="Layer_1" xmlns="http://www.w3.org/2000/svg" xmlns:xlink="http://www.w3.org/1999/xlink" x="0px" y="0px"
	 viewBox="0 0 35.65 34.47" enable-background="new 0 0 35.65 34.47" xml:space="preserve">
<g>
	<path fill="#FFFFFF" d="M17.94,9.13c-4.65,0-8.43,3.78-8.43,8.43c0,4.65,3.78,8.43,8.43,8.43s8.43-3.78,8.43-8.43
		C26.37,12.91,22.59,9.13,17.94,9.13z M17.94,22.95c-2.98,0-5.4-2.42-5.4-5.4c0-2.98,2.42-5.4,5.4-5.4s5.4,2.42,5.4,5.4
		C23.34,20.53,20.92,22.95,17.94,22.95z"/>
	<path fill="#FFFFFF" d="M26.86,10.57c1.11,0,2.01-0.9,2.01-2.01s-0.9-2.01-2.01-2.01c-1.11,0-2.01,0.9-2.01,2.01
		S25.75,10.57,26.86,10.57z"/>
	<path fill="#FFFFFF" d="M11.1,0.27c-5.68,0-10.28,4.6-10.28,10.28v13.57c0,5.68,4.6,10.28,10.28,10.28h13.57
		c5.68,0,10.28-4.6,10.28-10.28V10.55c0-5.68-4.6-10.28-10.28-10.28H11.1z M31.73,10.55v13.57c0,3.9-3.16,7.06-7.06,7.06H11.1
		c-3.9,0-7.06-3.16-7.06-7.06V10.55c0-3.9,3.16-7.06,7.06-7.06h13.57C28.57,3.49,31.73,6.65,31.73,10.55z"/>
</g>
</svg>
