<?xml version="1.0" encoding="utf-8"?>
<!-- Generator: Adobe Illustrator 24.2.0, SVG Export Plug-In . SVG Version: 6.00 Build 0)  -->
<svg version="1.1" id="Layer_1" xmlns="http://www.w3.org/2000/svg" xmlns:xlink="http://www.w3.org/1999/xlink" x="0px" y="0px"
	 viewBox="0 0 255.26 344.13" enable-background="new 0 0 255.26 344.13" xml:space="preserve">
<g>
	<g>
		<path fill="#F86EAC" d="M253.43,127.09c-0.44,18.44-4.28,35.96-12.07,52.64c-14.25,30.54-32.06,58.96-51.35,86.51
			c-17.33,24.74-35.86,48.57-55.47,71.54c-4.15,4.86-9.51,5.05-13.51,0.34c-34.22-40.35-65.78-82.6-91.86-128.75
			c-7.99-14.13-15.81-28.39-20.9-43.9c-23.13-70.54,21.5-146.88,94.3-161.42c69.64-13.9,136.52,31.83,148.61,101.76
			C252.39,112.82,252.7,119.99,253.43,127.09z M64.46,126.9c-0.03,34.86,28.21,63.3,62.95,63.39c34.9,0.09,63.33-28.26,63.39-63.21
			c0.05-34.97-28.24-63.33-63.21-63.34C92.79,63.73,64.49,92.05,64.46,126.9z"/>
	</g>
</g>
<g>
</g>
<g>
</g>
<g>
</g>
<g>
</g>
<g>
</g>
<g>
</g>
</svg>
