<?xml version="1.0" encoding="utf-8"?>
<!-- Generator: Adobe Illustrator 24.3.0, SVG Export Plug-In . SVG Version: 6.00 Build 0)  -->
<svg version="1.1" id="Layer_1" xmlns="http://www.w3.org/2000/svg" xmlns:xlink="http://www.w3.org/1999/xlink" x="0px" y="0px"
	 viewBox="0 0 227.4 381.8" style="enable-background:new 0 0 227.4 381.8;" xml:space="preserve">
<style type="text/css">
	.st0{fill:#FFFFFF;}
	.st1{fill:#3B2314;}
	.st2{fill:#FF96C5;}
	.st3{fill:#EA81B1;}
	.st4{fill:#81D0DD;}
	.st5{fill:#599BAA;}
	.st6{fill:none;stroke:#000000;stroke-width:1.8182;stroke-miterlimit:10;}
	.st7{fill:#805022;}
	.st8{fill:#633D1D;stroke:#633D1D;stroke-width:0.2727;stroke-miterlimit:10;}
	.st9{fill:#E06F6C;}
	.st10{fill:#E56EAF;}
	.st11{fill:none;stroke:#231F20;stroke-width:1.8607;stroke-miterlimit:10;}
	.st12{fill:#EEE2A4;}
	.st13{fill:#26170F;}
</style>
<g id="XMLID_71_">
	<path id="XMLID_179_" class="st0" d="M145.3,129.2l-0.4,0.1c-0.9,0.3-0.7,1.3,0.1,4.4c1.7,6.8,5.6,22.7,0.3,43.3l-0.9,3.4l2-2.9
		c0.1-0.1,0.4-0.7,1-1.7c1.1-2.3,2.1-4.8,3-7.4c1.2-4.1,2.2-9.6,1.8-16c-0.3-6-1.4-10.7-2.6-14.4c-1.2-3-2.4-5.7-3.5-7.6
		c-0.3-0.5-0.6-0.8-0.6-0.9L145.3,129.2z"/>
	<path id="XMLID_178_" class="st0" d="M144.3,181.5"/>
	<path id="XMLID_177_" class="st0" d="M161.9,177.6c-0.5,6.1-21.7,14.6-16.3,11.6c0,0,0.1-0.1,0.2-0.1c0.8-0.4,1.5-1.1,2.1-1.9
		l1.6-1.5c0.2-0.2,0.4-0.3,0.5-0.4c1-0.8,2-1.4,3.1-2c0.5-0.3,0.9-0.5,1.4-0.8c2-1.3,3.2-2.5,3.8-4c0.6-1.6,0.4-3.4,0.2-5
		c-0.9-8.3-1.8-16.6-2.7-24.9c-0.9-8.3-1.8-16.5-2.7-24.8l0-0.2h2.9C156,123.5,162.4,171.5,161.9,177.6z"/>
	<path id="XMLID_176_" class="st0" d="M210.5,223.9c-0.4-0.2-0.7-0.6-1-1c0,0.1,0.1,0.1,0.2,0.1c0.2,0.2,0.5,0.2,0.7,0.2
		c0.5,0,0.9-0.2,1.3-0.5c1-0.9,1.3-2.2,1.3-3.1c0.1-1.6-0.3-3.3-1.1-5c-0.3-0.7-0.7-1.5-1.3-2.2c-0.5-0.6-1.1-1.2-1.7-1.7
		c-1.3-1.1-2.8-2.1-4.6-2.9c-2.1-1-5.8-2.1-9-2.8l-1.1,0.2c2.9,0.9,8,2.5,10.6,4c2.1,1.2,4.8,3.2,6.1,6.4c0.9,2.2,0.8,4.4-0.3,5.9
		c-0.1,0.2-0.2,0.3-0.3,0.3c-0.2,0-0.4-0.3-0.4-0.4c-0.3-0.6-0.5-1.2-0.7-1.9c-0.1-0.3-0.2-0.7-0.3-1c-0.2-0.6-0.9-2.1-2.3-2.3
		l-1.6-0.3l1.5,0.8c0.5,0.3,0.9,0.7,1.2,1.2c-0.8-0.7-1.8-0.9-2.9-0.7c1,0.2,2.1,0.8,2.7,2.3c1.4,3.1,2.4,4.8,3.5,4.4
		C210.9,224.1,210.7,224,210.5,223.9z"/>
	<path id="XMLID_175_" class="st0" d="M56,297.3c-1.1,5-1.7,10.3-1.7,15.7c0,32,21,57.9,46.9,57.9s46.9-25.9,46.9-57.9
		c0-5.5-0.6-10.9-1.8-16H56V297.3z"/>
	<path id="XMLID_174_" class="st1" d="M158.3,178.4c-0.5,1.4-1.8,2.7-3.8,4c-0.5,0.3-0.9,0.6-1.4,0.8c-1.1,0.6-2.1,1.2-3.1,2
		c-0.2,0.1-0.4,0.3-0.5,0.4l-3.7,3.4l0.1,0c-3.3,1.3-6.7,2.4-9.9,3.4C146.4,183,153,169.3,153,154c0-11-3.4-21.1-9.2-29.5
		c0,0,0,0,0,0c0,0-0.2-0.2-0.7-0.8l-83.6-0.1c-0.6,0.5-1,0.9-1.1,1.1c-5.7,8.3-9.1,18.4-9.1,29.3c0,15.2,6.6,29,17.1,38.5
		c-10.4-3-18.4-6.5-22.9-8.9c-2.6-1.3-4-4.2-3.6-7.1l8.6-53.7l0.1-0.6l10.3,0l84.7,0.1l9.5,0l0.1,1.4c0.9,8.2,1.8,16.5,2.7,24.8
		c0.9,8.3,1.8,16.6,2.7,24.9C158.7,175.1,158.9,176.9,158.3,178.4z"/>
	<path id="XMLID_169_" class="st2" d="M73.3,244.1c0,0.4,0,0.8-0.1,1.3c-0.2,2-0.3,4-0.5,6l-7.5,21.1c-0.3,0.1-0.5,0.1-0.8,0.2
		c-0.3,0-0.6,0.1-0.8,0.1c-8.1,1.3-16.5,1.2-24.6-0.2c-5.8-1-11.6-2.9-15.9-6.9c-9.3-8.9-3.7-23.8,7.7-27.5
		c5.3-1.8,18.2-0.3,22.8,2.9c-0.4-5.3-1.9-10.4,5.7-9c3.4,0.6,5.9,2.2,8.8,4.1c1.6,1.1,3.5,2.1,4.5,3.8c0.3,0.6,0.5,1.2,0.6,1.8
		c0,0.1,0,0.2,0,0.3C73.3,242.8,73.3,243.5,73.3,244.1z"/>
	<path id="XMLID_164_" class="st3" d="M61.9,272c-8.9,1.4-18.1,0.9-26.8-1.4c-3-0.8-6.1-1.9-8.7-3.6s-4.9-4.2-6-7.1
		c-1.4-3.6-0.9-7.7,0.6-11.3c0.6,5.7,2,11.7,6.5,15.2c2.3,1.8,5.2,2.7,8,3.4c5.6,1.4,11.3,2.4,17.1,2.3c2.3,0,4.7-0.3,6.7-1.5
		c2.7-1.7,4.1-4.8,5.4-7.7c1.2-3,2.5-5.9,3.7-8.9c1.1-2.7,2.9-5.7,3.5-8.5c-1.5,4.6-2.7,9.3-4,13.9c0,0-3.9,10.8-4.8,15L61.9,272z"
		/>
	<path id="XMLID_163_" class="st4" d="M129.2,246.3l0.2,0.9L134,262h0.1c0.3,0,0.6,0,0.8,0c0.1,0,0.2,0,0.3,0
		c2.7,0.1,5.4,0.3,8.1,0.5c0.5,0,1.1,0.1,1.6,0.1c0.5,0,1.1,0,1.6,0.1s1.1,0,1.6,0c5.2,0,10.2-0.8,14.4-4c0,0,0,0,0.1-0.1
		c0.1-0.1,0.2-0.2,0.3-0.2c0.2-0.2,0.5-0.4,0.8-0.7c8.4-6.7,8.2-10.9,10.4-22.3l-5.2,0.2l-5.2,0.2c-0.5,1.6-0.8,3.1-1.2,4.4
		c0,0.2-0.1,0.4-0.2,0.5c-0.1,0.3-0.2,0.6-0.3,0.9c-0.1,0.3-0.2,0.5-0.3,0.8c-0.3,0.7-0.7,1.5-1.2,2.1c-0.1,0.1-0.2,0.2-0.3,0.4
		c-0.6,0.8-1.4,1.6-2.4,2.3c-0.3,0.2-0.6,0.4-0.9,0.6c-0.1,0.1-0.3,0.2-0.5,0.3c-0.2,0.1-0.3,0.2-0.5,0.3c-1.6,0.8-3.5,1.1-5.5,1.1
		c-0.3,0-0.7,0-1,0c-0.2,0-0.4,0-0.7,0c-0.2,0-0.4,0-0.6,0c-0.2,0-0.4,0-0.5-0.1c-0.4,0-0.9-0.1-1.3-0.2c-0.5-0.1-0.9-0.2-1.4-0.3
		c-1.9-0.4-3.8-0.9-5.7-1.5c-0.8-0.2-1.6-0.5-2.4-0.7c-2-0.6-4-1.3-5.8-1.8c-0.1,0-0.1,0-0.2,0c-0.4-0.1-0.8-0.2-1.1-0.3
		c-0.1,0-0.1,0-0.2,0L129.2,246.3z"/>
	<polygon id="XMLID_162_" class="st5" points="164.1,236.7 173.3,236.7 172.7,239 163.7,238.7 	"/>
	<path id="XMLID_159_" class="st5" d="M131.1,245.8l2.2,0.5c0,0,3,10.7,3.8,11.8c0.8,1.1,9.4,3.6,13.3,3.4s-14.2,0.1-14.5-0.7
		C135.7,260.1,131.1,245.8,131.1,245.8z"/>
	<path id="XMLID_158_" class="st6" d="M134,262"/>
	<path id="XMLID_157_" class="st7" d="M141.6,211.6c0.1-0.2,0.2-0.4,0.3-0.6c0.4-0.5,1-1.1,1.9-1.8C143,210,142.3,210.8,141.6,211.6
		z"/>
	<path id="XMLID_156_" class="st7" d="M209.5,223.9c0.3,0.2,0.7,0.3,1,0.3L209,235l-64.7-0.3c0,0-1-4-1.8-8.7c0.1,0,0.1,0,0.2,0
		c0.7-0.2,1.2-0.8,1.6-1.4c1.8-2.4,3.6-4.8,5.3-7.2c0.8-1.1,1.8-2.3,3.1-2.5c2.8-0.5,4.6,3.2,7.3,3.6c4,0.7,6.2-5.3,10.2-5.6
		c3.9-0.3,6.5,4.7,10.4,4.6c3.6-0.1,6.7-4.7,9.9-3.2c2.3,1.1,2.7,4.7,5.1,5.7c1.8,0.7,3.8-0.4,5.5-1.4c1.7-1,4.1-1.7,5.5-0.3
		C208.3,219.6,207.6,222.8,209.5,223.9z"/>
	<path id="XMLID_155_" class="st8" d="M158.2,217.6c-1-0.9-2.3-1.6-3.6-2c-0.3-0.1-0.6-0.2-0.9-0.1c-0.4,0.1-1.8,0.3-2,0.6
		c-2.4,3-3.8,6.2-6.2,9.2c-0.5,0.6-1.4,0.9-1.6,1.7c-0.2,0.9,0.4,2.1,0.7,2.9c0.3,1.2,0.6,2.5,0.9,3.7c0.1,0.3,0.1,0.5,0.3,0.7
		c0.5,0.4,1.2-0.2,1.8-0.1c-0.4-1.5-0.8-3-1.3-4.5c-0.2-0.6-0.3-1.2-0.2-1.8c0.1-0.5,0.5-1,0.8-1.4c1.8-2.3,3.7-4.5,5.7-6.5
		c0.6-0.6,1.3-1.6,2.2-1.7c1.7-0.3,3.7,1.4,5.3,0.9C159.7,218.5,158.8,218.2,158.2,217.6z"/>
	<path id="XMLID_154_" class="st9" d="M208.4,219l0.1,0L208.4,219C208.4,219.1,208.4,219,208.4,219z"/>
	<path id="XMLID_146_" class="st2" d="M214.8,220.6c-0.4,2.1-2.4,4.4-4.3,3.3c-0.4-0.2-0.7-0.6-1-1c0,0.1,0.1,0.1,0.2,0.1
		c0.2,0.2,0.5,0.2,0.7,0.2c0.5,0,0.9-0.2,1.3-0.5c1-0.9,1.3-2.2,1.3-3.1c0.1-1.6-0.3-3.3-1.1-5c-0.3-0.7-0.7-1.5-1.3-2.2
		c-0.5-0.6-1.1-1.2-1.7-1.7c-1.3-1.1-2.8-2.1-4.6-2.9c-2.1-1-5.8-2.1-9-2.8l-1.1,0.2c2.9,0.9,8,2.5,10.6,4c2.1,1.2,4.8,3.2,6.1,6.4
		c0.9,2.2,0.8,4.4-0.3,5.9c-0.1,0.2-0.2,0.3-0.3,0.3c-0.2,0-0.4-0.3-0.4-0.4c-0.3-0.6-0.5-1.2-0.7-1.9c-0.1-0.3-0.2-0.7-0.3-1
		c-0.2-0.6-0.9-2.1-2.3-2.3l-1.6-0.3l1.5,0.8c0.5,0.3,0.9,0.7,1.2,1.2c-1.4-1.4-3.7-0.6-5.5,0.3c-1.7,1-3.7,2.2-5.5,1.4
		c-2.4-1-2.7-4.6-5.1-5.7c-3.3-1.5-6.3,3.1-9.9,3.2c-3.9,0.1-6.6-4.9-10.4-4.6c-4,0.4-6.2,6.3-10.2,5.6c-2.8-0.5-4.6-4.1-7.3-3.6
		c-1.4,0.2-2.3,1.4-3.1,2.5c-1.8,2.4-3.6,4.8-5.3,7.2c-0.4,0.6-0.9,1.2-1.6,1.4c-1.4,0.4-2.7-1-3.3-2.3c-1.3-3.1-0.9-6.8,0.7-9.7
		c0.3-0.6,0.7-1.2,1.1-1.8c5.2-7.4,16-8.9,24.3-9.7c10.2-1,20.6,0,30.6,2.1c4.3,0.9,8.7,2,12.3,4.7
		C213,211.8,215.6,216.2,214.8,220.6z"/>
	<path id="XMLID_140_" class="st0" d="M208.4,219l-0.1,0.1c-0.1-0.3-0.3-0.7-0.5-1C208,218.3,208.3,218.7,208.4,219z"/>
	<path id="XMLID_139_" class="st0" d="M209.6,222.9c-0.2-0.2-0.3-0.5-0.4-0.8c-0.2-0.5-0.3-1-0.4-1.4c-0.1-0.5-0.3-1-0.4-1.5
		l0.1-0.1C209,220.3,209,221.8,209.6,222.9z"/>
	<path id="XMLID_133_" class="st3" d="M152.4,207.3c-0.3,0.1-0.6,0.3-0.9,0.4c-3,1.4-6.1,3.1-7.7,5.9c-1.1,1.8-1.5,3.9-1.5,6
		c0,1.4,0.1,2.7,0.3,4.1c0,0.3,0.1,0.5,0,0.8c-0.1,0.3-0.3,0.5-0.6,0.5c-0.3,0-0.6-0.2-0.8-0.5c-0.8-0.9-1.3-2.1-1.5-3.3
		c-0.7-3.5,1.1-6.9,3.4-9.8c2.2-2.6,6-4.5,9.7-5.7c1.2-0.4,2.5-0.8,3.7-1c0.6-0.1,1.2-0.3,1.8-0.4c0.1,0,2.2-0.5,2.1-0.3
		c0,0.1-2.2,0.8-2.3,0.9C156.1,205.7,154.2,206.5,152.4,207.3z"/>
	<path id="XMLID_132_" class="st10" d="M166.7,212.3c-1.2,0.5-2.2,1.2-3,2.1c-0.7,0.7-1.4,1.6-2.3,1.7c-0.9,0.1-1.8-0.5-2.6-1
		c-1.5-0.9-3.4-1.2-5.2-1.2c0.6,0.1,1.4,0.1,1.9,0.4c1.2,0.7,2.3,1.7,3.4,2.4c0.5,0.3,1.1,0.6,1.7,0.6c0.6,0,1.1-0.2,1.6-0.5
		c1.1-0.7,2-1.7,3-2.6c1-0.9,2.1-1.6,3.3-2.1c0,0,1.4-0.8,3.3-0.2C172,211.9,169.7,211.1,166.7,212.3z"/>
	<path id="XMLID_131_" class="st11" d="M139.9,280.5"/>
	<path id="XMLID_130_" class="st11" d="M142,284.6"/>
	<polygon id="XMLID_129_" class="st4" points="137,295.4 128.1,238.6 117.2,203.3 112.9,204.5 104.8,205.9 97.2,205.7 89.4,204.5 
		56.5,296.2 56.1,297.4 137.3,297.4 	"/>
	<polygon id="XMLID_128_" class="st5" points="89.6,204.1 66,290.3 145.1,296 57.2,296 85.8,203.7 	"/>
	<path id="XMLID_127_" class="st5" d="M86.1,204.6l-1.5,5.2c0,0,22.7,5.8,32.2-5.2C116.8,204.6,103.5,210,86.1,204.6z"/>
	<path id="XMLID_124_" class="st12" d="M143.8,124.5c-0.1-0.1-0.1-1.4-0.2-1.5l-84.9-0.1c-0.1,0.2-0.3,0.4-0.4,0.6
		c-5.7,8.3-9.1,18.4-9.1,29.3c0,16.5,7.7,31.2,19.7,40.7c8.8,7,20,12.4,32.2,12.4c12.1,0,23.2-5.3,32-12.3c0,0,0,0,0,0
		c12.1-9.5,19.8-24.3,19.8-40.8C153,141.8,149.6,132.8,143.8,124.5z M144.4,180.5l0.9-3.4c5.3-20.6,1.4-36.5-0.3-43.3
		c-0.8-3.1-1-4.2-0.1-4.4l0.4-0.1l0.3,0.3c0.2,0.3,5.9,7.9,6.7,22.9c0.8,15.1-5.5,24.7-5.8,25.1L144.4,180.5z"/>
	<path id="XMLID_123_" class="st13" d="M93.7,132.7c-0.8,0.5-1.7,1-2.5,1.5c-0.7,0.4-1.5,0.9-2.2,1.3c-1.2,0.7-2.4,1.4-3.6,2
		c-3.9,2.1-7.9,4.3-12.4,5.1c-1.7,0.3-3.4,0.6-5,0c-2.7-0.9-4.3-3.5-5.2-6.2c-1.2-3.5-1.7-7.5-1-11.2c0.3,0,0.8,0,1.1,0
		c0.3,3.7,0.5,7.6,1.9,11c0.5,1.3,1.2,2.5,2.3,3.3c1.5,1,3.4,0.9,5.2,0.6c3.4-0.5,6.7-1.6,9.8-2.8c3.2-1.3,6.3-2.7,9.5-4.1
		c0.8-0.3,1.6-0.7,2.4-1l2.2-0.9L93.7,132.7z"/>
	<path id="XMLID_122_" class="st6" d="M153,154c0,16.6-7.8,31.3-19.8,40.8c0,0,0,0,0,0c-8.8,6.9-19.9,11.1-32,11.1
		c-12.1,0-23.3-4.2-32.1-11.2c-12-9.5-19.7-24.2-19.7-40.7c0-10.9,3.3-21,9.1-29.3c0.1-0.2,0.5-0.6,1.1-1.1l83.6,0.1
		c1,1.1,0.7,0.7,0.7,0.9C149.6,132.9,153,143,153,154z"/>
	<ellipse id="XMLID_121_" class="st1" cx="117.1" cy="153.3" rx="5.9" ry="7.6"/>
	<path id="XMLID_120_" class="st1" d="M73.5,155.6c0,0,0.1-0.4,0.5-0.9c0.3-0.6,0.9-1.4,1.7-2.2c0.4-0.4,0.9-0.9,1.4-1.2
		c0.5-0.4,1.2-0.8,1.8-1.1c0.4-0.1,0.7-0.3,1.1-0.4c0.2-0.1,0.4-0.1,0.6-0.2l0.6-0.1c0.4-0.1,0.8-0.2,1.2-0.2l1.2-0.1
		c0.4,0,0.8,0,1.2,0.1c0.4,0.1,0.8,0.1,1.2,0.2c0.8,0.2,1.5,0.5,2.2,0.8c0.7,0.4,1.3,0.8,1.8,1.1c0.5,0.4,1,0.9,1.4,1.3
		c0.2,0.2,0.4,0.4,0.6,0.6c0.2,0.2,0.3,0.4,0.5,0.6c0.3,0.4,0.5,0.7,0.7,1c0.4,0.5,0.6,0.9,0.6,0.9s-0.3-0.2-0.9-0.6
		c-0.3-0.2-0.6-0.4-1-0.7c-0.2-0.1-0.4-0.3-0.6-0.4c-0.2-0.1-0.4-0.2-0.7-0.4c-0.5-0.3-1-0.6-1.5-0.9c-0.6-0.2-1.2-0.5-1.7-0.8
		c-0.6-0.2-1.3-0.3-1.9-0.5c-0.3,0-0.7-0.1-1-0.1c-0.3-0.1-0.7-0.1-1-0.1l-1,0c-0.3,0-0.7,0.1-1,0.2c-0.7,0.1-1.3,0.3-1.9,0.5
		c-0.6,0.3-1.2,0.4-1.7,0.7c-0.5,0.3-1,0.6-1.5,0.8c-0.9,0.6-1.7,1.1-2.2,1.5C73.8,155.4,73.5,155.6,73.5,155.6z"/>
	<g id="XMLID_115_">
		<path id="XMLID_119_" class="st0" d="M89.1,175.1h24.2C113.2,175.1,102.3,196.9,89.1,175.1z"/>
		<path id="XMLID_116_" class="st1" d="M101.2,185.9c-4.6,0-9-3.4-13.1-10.2l-1-1.7H115l-0.8,1.6c-0.2,0.4-5.1,10-12.6,10.3
			C101.5,185.9,101.4,185.9,101.2,185.9z M91.1,176.2c3.4,5.1,6.9,7.6,10.4,7.5c4.6-0.2,8.2-4.9,9.8-7.5H91.1z"/>
	</g>
	<path id="XMLID_114_" class="st1" d="M59.3,123.9c0,0-0.5,22.4,12.5,19.5c13-2.9,49-21.3,72-19.8L59.3,123.9z"/>
	<path id="XMLID_112_" class="st2" d="M172.1,38.5c-9-8.3-23-10.3-34.4-5.7c-4.9-14.1-18.9-24.4-33.8-25.2v0c-0.5,0-0.9,0-1.4,0
		h-0.1c-0.5,0-0.9,0-1.4,0v0C86.2,8.4,72.1,18.7,67.2,32.8c-11.4-4.6-25.4-2.6-34.4,5.7c-9,8.3-12.1,22.7-6.4,33.6
		c4.6,8.9,14,14.4,23.6,17.5c1,0.3,2.2,0.7,2.7,1.7c0.4,0.8,0.3,1.8,0.2,2.6c-1.5,9.9-2.9,19.8-4.4,29.7c1.4,0,45.4-0.3,54-0.3
		c8.6,0,52.2,0.2,53.6,0.2c-1.5-9.9-2.5-19.7-4-29.6c-0.1-0.9-0.3-1.9,0.2-2.6c0.5-1,1.7-1.3,2.7-1.7c9.6-3,18.9-8.6,23.6-17.5
		C184.2,61.3,181.1,46.8,172.1,38.5z"/>
	<path id="XMLID_111_" class="st3" d="M57.2,89.2c-1.4-2-3.7-3.2-5.6-4.3c-0.4-0.2-0.8-0.4-1.2-0.7C41.7,79.1,35.8,72,33.8,64.3
		C32,57.2,33.4,49.7,34.9,44l0.2-0.9c0.5-2,1.1-4.4,2.2-6.1c0.6-0.8,1.3-1.5,2.1-1.8l-0.9-2c-1.3,0.5-2.2,1.4-3,2.6
		c-0.3,0.3-0.5,0.6-0.7,0.9c-0.5,0.6-0.9,1.2-1.4,1.6c-2.9,3-6.8,7.5-8.3,12.3c-1.8,6.1-2.1,12.8-0.6,17.9c1.4,5.1,5.8,8.9,9.7,12.2
		l0.8,0.7c3.8,3.2,8.5,5.9,14.4,8.1c1.1,0.4,2.3,0.8,2.8,1.7c0.8,1.1,0.7,2.7,0.5,4c-0.4,2.8-0.9,5.6-1.3,8.4
		c-1,6.2-2,12.5-2.7,18.7l-0.1,1.3l1.3-0.1c2.3-0.2,4-2.1,4.5-4.8c0.8-4.5,1.5-9.1,2.2-13.6c0.4-2.3,0.7-4.5,1.1-6.8l0.2-0.9
		C58.5,94.8,59,91.7,57.2,89.2z"/>
	<path id="XMLID_77_" d="M211.9,224.9c1.4-0.7,2.7-2.4,3-4.2c0.8-4.4-1.5-9.3-5.8-12.4c-3.9-2.9-8.6-4-12.7-4.8
		c-11.1-2.3-21.5-3-31-2.1c-6.7,0.6-19.3,1.9-25.1,10.1c-0.4,0.6-0.8,1.2-1.1,1.9c-1.8,3.4-2,7.4-0.7,10.7c0.6,1.4,1.6,2.6,2.9,3
		c0.6,3,1.1,5.6,1.5,7h-2.1c-0.7,0-1.2,0.6-1.2,1.2c0,0.7,0.6,1.3,1.2,1.3h21.5c-0.3,1.2-0.5,2.3-0.8,3.4c0,0.1-0.1,0.3-0.2,0.5
		c-0.1,0.3-0.1,0.5-0.3,0.7l0,0.1c-0.1,0.2-0.2,0.4-0.3,0.7c-0.3,0.7-0.7,1.4-1.1,1.9l-0.2,0.3c-0.6,0.8-1.3,1.5-2.1,2
		c-0.3,0.2-0.5,0.4-0.9,0.6c-0.1,0.1-0.2,0.1-0.3,0.2L156,247c-0.2,0.1-0.3,0.2-0.5,0.2c-1.4,0.7-3,1-5,1c-0.3,0-0.6,0-1,0
		c-0.2,0-0.4,0-0.6,0c-0.2,0-0.3,0-0.5,0c-0.1,0-0.2,0-0.3,0l-0.2,0c-0.4,0-0.8-0.1-1.3-0.2c-0.4-0.1-0.9-0.2-1.4-0.2
		c-1.6-0.3-3.3-0.8-5.6-1.4c-0.4-0.1-0.9-0.3-1.3-0.4l-2.8-0.9c-1.5-0.5-2.9-0.9-4.1-1.3c-0.1,0-0.2-0.1-0.3-0.1l-0.1,0
		c0,0,0,0-0.1,0L118.7,204c5.3-1.9,10.3-4.6,14.8-8.1l0.3-0.2c0.9-0.7,1.7-1.4,2.6-2.2c7.6-2.2,15.1-5.2,22.3-8.9
		c2.9-1.5,4.6-4.6,4.2-7.8l-5.4-52.1h0.1l-0.2-1.3c0-0.1,0-0.2,0-0.3l-0.1-1.5h-0.1c-0.6-4.4-1.3-8.7-1.9-13.1
		c-0.7-4.9-1.4-9.9-2.2-14.9c-0.1-0.8-0.2-1.5,0.1-1.9c0.3-0.5,1.1-0.8,2.1-1.1c8.1-2.6,18.9-7.8,24.2-18
		c5.8-11.1,2.9-26.1-6.7-34.9c-8.9-8.2-22.6-10.6-34.5-6.3C133.1,17.8,119.6,7.8,105,6.5V6.5l-1.1,0c-0.5,0-1,0-1.5,0
		c-0.5,0-1,0-1.5,0l-1.1,0.1v0C85.2,7.8,71.8,17.8,66.6,31.4c-11.9-4.3-25.6-1.9-34.5,6.3c-9.6,8.8-12.5,23.8-6.7,34.9
		c5.3,10.2,16.1,15.4,24.2,18c0.9,0.3,1.8,0.6,2.1,1.1c0.3,0.5,0.2,1.1,0.1,1.9l-4.6,30.9h0l-8.4,51.7c-0.6,3.4,1.1,6.7,4.2,8.2
		c4.9,2.5,12.7,6,22.9,8.9c0.8,0.8,1.7,1.5,2.5,2.1c4.7,3.7,9.8,6.5,15.3,8.4l-10.7,34.6c-0.9-1.2-2.2-2-3.3-2.8
		c-0.3-0.2-0.6-0.4-0.8-0.5c-2.9-2-5.6-3.6-9.2-4.3c-2.9-0.5-4.8-0.2-6,0.9c-1.7,1.6-1.5,4.3-1.2,7.3c0,0,0,0,0,0
		c-5.8-2.6-16.7-3.7-21.9-2c-6.3,2.1-11.3,7.6-12.7,14c-1.3,5.7,0.4,11.3,4.6,15.4c3.8,3.6,9,5.9,16.5,7.2c4.3,0.7,8.7,1.1,13,1.1
		c3.4,0,6.7-0.2,10.1-0.7l-7.3,24.2l0,0c-1,4.8-1.5,9.8-1.5,14.8c0,32.6,21.5,59.1,48,59.1c26.5,0,48-26.5,48-59.1
		c0-5-0.5-10-1.5-14.8l0,0l-0.4-2l-0.1-0.4h0L137,263.2c1.2,0.1,2.5,0.1,3.7,0.2c0.9,0.1,1.7,0.1,2.6,0.2c0.5,0,1,0.1,1.5,0.1l0.4,0
		c0.5,0,1,0,1.5,0.1h0.1c0.5,0,1,0,1.5,0c4.4,0,10.2-0.5,15-4.2c0,0,0,0,0.1-0.1c0.1-0.1,0.2-0.2,0.3-0.3c0.2-0.1,0.5-0.4,0.8-0.6
		l0.1-0.1c2.7-2.4,9.1-9.4,10.3-22h37.8c0.7,0,1.3-0.6,1.3-1.3c0-0.7-0.6-1.2-1.3-1.2h-2.1l1.2-9C211.8,225,211.9,225,211.9,224.9z
		 M155.3,124.7l5.4,52.3c0.2,2.3-1,4.6-3,5.6c-5.8,2.9-11.8,5.4-17.8,7.5c9.1-9.8,14.2-22.7,14.2-36.1c0-10.5-3.1-20.6-8.9-29.4
		C149.9,124.7,153.6,124.7,155.3,124.7z M50.3,88.5c-7.7-2.5-18-7.4-22.9-16.9c-5.4-10.3-2.7-24.1,6.2-32.3
		c8.5-7.8,21.9-10.1,33.3-5.5l1.1,0.4l0.4-1.1C73,19.6,86.4,9.5,101,8.7l0.5,0h1.4l0.9,0c14.6,0.8,28,10.9,32.8,24.5l0.4,1.1
		l1.1-0.4c11.3-4.6,24.7-2.4,33.3,5.5c8.9,8.2,11.6,22,6.2,32.3c-5,9.5-15.2,14.5-22.9,16.9c-1.1,0.4-2.6,0.8-3.3,2.2
		c-0.6,1.1-0.4,2.5-0.3,3.3c0.6,4.2,1.2,8.5,1.9,12.7c-56.6-4.6-94.7-1.3-100.6-0.7l1.8-12c0.1-0.9,0.3-2.2-0.3-3.3
		C52.9,89.4,51.4,88.9,50.3,88.5z M51.8,108.3c3.4-0.4,42.2-4.2,101.3,0.7c0.6,4.2,1.2,8.4,1.8,12.7l-105.2,0.2L51.8,108.3z
		 M122.7,124.8c-11.6,2.8-23.7,7.5-33.6,11.3c-7.3,2.8-13.6,5.2-17.6,6.1c-2.4,0.5-4.3,0.1-6-1.2c-4.3-3.6-5-12.7-5.1-15.9
		L122.7,124.8z M44,182.6c-2.2-1.1-3.4-3.5-3-5.9l8.5-52c1.4,0,4.1,0,7.6,0c-5.8,8.7-8.9,18.9-8.9,29.4c0,13.4,5.2,26.4,14.3,36.1
		C54.4,187.6,48.1,184.7,44,182.6z M69.7,193.8c-0.8-0.7-1.7-1.4-2.6-2.2C56.5,182,50.4,168.3,50.4,154c0-9.6,2.7-18.9,7.8-27
		c0.3,4.4,1.5,12.3,5.9,15.9c1.6,1.3,3.4,2,5.5,2c0.8,0,1.6-0.1,2.5-0.3c4.1-0.9,10.5-3.3,17.9-6.2c14.1-5.4,32.9-12.6,47.8-13.6
		l4.8,0c0,0.1,0.1,0.1,0.1,0.1l0.3,0.3c5.8,8.5,8.9,18.4,8.9,28.8c0,14.3-6.1,28.1-16.7,37.7c-0.8,0.7-1.6,1.4-2.4,2l-0.3,0.2
		c-9,7.1-19.8,10.8-31.3,10.8C89.6,204.7,78.7,201,69.7,193.8z M39.2,271.5c-7-1.3-11.9-3.4-15.3-6.6c-3.7-3.5-5.1-8.3-4-13.3
		c1.3-5.7,5.7-10.6,11.3-12.4c1.5-0.5,3.5-0.7,5.8-0.7c5.8,0,13,1.4,16.1,3.4l1.9,1.2l-0.1-2.2c0-0.7-0.1-1.4-0.2-2.1
		c-0.2-2.4-0.4-4.6,0.5-5.4c0.6-0.6,2-0.7,4.1-0.3c3.2,0.6,5.6,2.1,8.4,3.9c0.3,0.2,0.6,0.4,0.9,0.6c1.3,0.8,2.6,1.7,3.2,2.9
		c0.2,0.3,0.3,0.6,0.4,1l-9.3,30.3C54.9,273,47,272.9,39.2,271.5z M146.9,313.1c0,31.3-20.5,56.8-45.8,56.8
		c-25.2,0-45.8-25.5-45.8-56.8c0-5,0.5-10,1.6-14.8H73c0,0.1,0,0.1,0,0.2c-0.3,1.6-0.7,3.9-0.9,6.6c-0.1,1.4-0.2,2.9-0.3,4.4
		c0,1.6,0,3.2,0,4.9c0.1,1.7,0.1,3.5,0.4,5.3c0.1,0.9,0.2,1.8,0.3,2.7c0.1,0.9,0.3,1.8,0.4,2.7c0.3,1.8,0.7,3.6,1.1,5.3
		c0.4,1.8,1,3.4,1.5,5.1c0.4,1.6,1.1,3.1,1.7,4.6c0.3,0.7,0.5,1.4,0.8,2.1c0.3,0.7,0.6,1.3,0.9,1.9c0.6,1.2,1.1,2.4,1.6,3.3
		c0.6,0.9,1,1.8,1.4,2.5c0.2,0.3,0.4,0.7,0.5,0.9c0.1,0.3,0.3,0.5,0.5,0.6c0.2,0.1,0.4,0.2,0.6,0.2c0.2,0,0.3,0,0.3,0
		s0.1-0.1,0.1-0.3c0.1-0.2,0.1-0.4,0.2-0.6c0-0.3-0.1-0.5-0.2-0.7c-0.1-0.3-0.3-0.6-0.4-0.9c-0.3-0.7-0.7-1.5-1.2-2.5
		c-0.4-1-0.8-2.1-1.3-3.3c-0.2-0.6-0.5-1.2-0.7-1.9c-0.2-0.7-0.4-1.4-0.6-2.1c-0.4-1.5-0.9-2.9-1.2-4.6c-0.3-1.6-0.8-3.2-1-4.9
		c-0.2-1.7-0.5-3.4-0.7-5.1c-0.1-0.9-0.2-1.7-0.2-2.6c0-0.9-0.1-1.7-0.1-2.6c-0.1-1.7,0-3.4,0-5c0-1.6,0.2-3.2,0.3-4.7
		c0.1-1.5,0.3-2.9,0.5-4.1c0.3-2.6,0.8-4.7,1.1-6.1c0.1-0.5,0.2-1,0.3-1.3h20l2.3,37.3h0.8l2.3-37.3h20.3c0.1,0.3,0.2,0.8,0.3,1.3
		c0.3,1.4,0.8,3.5,1.1,6.1c0.2,1.3,0.3,2.7,0.4,4.1c0.1,1.5,0.2,3,0.3,4.7c0,1.6,0.1,3.3,0,5c0,0.8-0.1,1.7-0.1,2.6
		c-0.1,0.9-0.2,1.7-0.2,2.6c-0.1,1.7-0.4,3.4-0.7,5.1c-0.2,1.7-0.6,3.3-1,4.9c-0.3,1.6-0.8,3.1-1.2,4.6c-0.2,0.7-0.4,1.4-0.6,2.1
		c-0.2,0.7-0.5,1.3-0.7,1.9c-0.5,1.2-0.8,2.4-1.3,3.3c-0.5,1-0.9,1.8-1.2,2.5c-0.2,0.3-0.3,0.7-0.4,0.9c-0.1,0.3-0.2,0.5-0.2,0.7
		c0,0.2,0.1,0.5,0.2,0.6c0.1,0.2,0.1,0.3,0.1,0.3s0.1,0,0.3,0c0.2,0,0.4-0.1,0.6-0.2c0.2-0.1,0.3-0.4,0.5-0.6
		c0.2-0.3,0.3-0.6,0.5-0.9c0.4-0.7,0.9-1.5,1.4-2.5c0.5-1,1-2.1,1.6-3.3c0.3-0.6,0.6-1.2,0.9-1.9c0.3-0.7,0.6-1.4,0.8-2.1
		c0.5-1.5,1.2-3,1.7-4.6c0.5-1.6,1.1-3.3,1.5-5.1c0.4-1.7,0.8-3.5,1.1-5.3c0.1-0.9,0.3-1.8,0.4-2.7c0.1-0.9,0.2-1.8,0.3-2.7
		c0.2-1.8,0.3-3.6,0.4-5.3c0-1.7,0.1-3.4,0-4.9c-0.1-1.6-0.1-3.1-0.3-4.4c-0.2-2.7-0.6-5-0.9-6.6c0-0.1,0-0.1,0-0.2h15.5
		C146.4,303.1,146.9,308.1,146.9,313.1z M144.5,295.9H57.8l6.8-22.1l9.7-31.6l11.6-37.4c4.9,1.5,10,2.2,15.3,2.2
		c5.3,0,10.4-0.8,15.3-2.2L144.5,295.9z M163,256.9l-0.1,0.1c-0.3,0.2-0.5,0.4-0.7,0.6c-0.1,0.1-0.1,0.1-0.2,0.1l-0.2,0.2
		c-3.4,2.6-7.6,3.7-13.7,3.7c-0.5,0-0.9,0-1.4,0h-0.1c-0.5,0-0.9,0-1.4,0l-0.4,0c-0.5,0-0.9,0-1.4-0.1c-0.8,0-1.7-0.1-2.6-0.2
		c-1.5-0.1-3-0.2-4.5-0.3l-4.6-14.9c1,0.3,2.1,0.7,3.2,1l2.8,0.9c0.4,0.1,0.9,0.3,1.3,0.4c2.4,0.7,4.1,1.1,5.8,1.5
		c0.5,0.1,1,0.2,1.5,0.3c0.5,0.1,0.9,0.1,1.3,0.2l0.5,0.1c0.2,0,0.4,0,0.6,0c0.3,0,0.5,0,0.7,0c2.8,0.2,5.2-0.2,7.1-1.2
		c0.2-0.1,0.4-0.2,0.6-0.3c0.2-0.1,0.3-0.2,0.4-0.2c0.3-0.2,0.7-0.4,1-0.6c1-0.7,1.9-1.5,2.6-2.5l0.3-0.4c0.5-0.7,0.9-1.5,1.3-2.3
		c0.1-0.3,0.3-0.6,0.4-0.9c0.1-0.3,0.2-0.6,0.3-0.8c0.1-0.2,0.1-0.4,0.2-0.6c0.4-1.2,0.6-2.5,0.9-3.8h8.1
		C171.4,248.3,165.5,254.6,163,256.9z M207.8,233.7l-62.4-0.3c-0.3-1.3-0.8-3.8-1.4-6.6c0.6-0.4,1.1-1,1.4-1.5l5.3-7.2
		c0.7-1,1.5-1.9,2.3-2c0.9-0.1,1.7,0.5,3,1.5c1.1,0.9,2.3,1.9,3.9,2.2c2.7,0.5,4.8-1.4,6.5-3c1.3-1.3,2.6-2.4,4-2.6
		c1.5-0.1,2.9,0.9,4.4,2c1.7,1.2,3.6,2.6,6,2.6c1.9-0.1,3.6-1.1,5.1-2c1.9-1.2,3.1-1.8,4.2-1.3c0.8,0.4,1.3,1.3,1.9,2.3
		c0.7,1.3,1.6,2.7,3.3,3.4c2.4,1,4.7-0.4,6.5-1.4l0.1-0.1c1.4-0.8,3.1-1.3,3.9-0.5c0.4,0.4,0.6,1.3,0.8,2.2c0.3,1.4,0.6,3,2.2,3.9
		l0,0c0,0,0.1,0,0.2,0.1L207.8,233.7z M211.2,222.8l-0.7,0c-0.1,0-0.2,0-0.3-0.1c-0.5-0.3-0.7-1-0.9-2.1c-0.3-1.2-0.5-2.5-1.6-3.5
		c-1.6-1.5-4.2-1.5-7.1,0.1l-0.1,0.1c-1.5,0.8-3,1.7-4.2,1.3c-0.8-0.3-1.3-1.2-2-2.3c-0.7-1.2-1.5-2.6-3.1-3.3
		c-2.5-1.1-4.8,0.2-6.7,1.5c-1.3,0.8-2.6,1.6-3.8,1.6c-1.5,0-2.8-1-4.3-2c-1.7-1.3-3.7-2.7-6.2-2.5c-2.3,0.2-4.1,1.8-5.6,3.3
		c-1.8,1.6-2.9,2.6-4.3,2.4c-0.9-0.2-1.7-0.9-2.7-1.6c-1.4-1.1-3-2.4-5.1-2c-2,0.3-3.2,2-4,3l-5.3,7.2c-0.3,0.4-0.6,0.8-0.9,0.9
		h-0.8c-0.4-0.3-0.8-0.9-1.1-1.5c-1.1-2.7-0.8-6,0.6-8.8c0.3-0.6,0.6-1.1,1-1.6c2.3-3.3,5.8-5.4,9.9-6.7c4.1-1.4,8.9-2,13.6-2.5
		c2.6-0.3,5.2-0.4,8-0.4c7,0,14.5,0.8,22.3,2.4c3.9,0.8,8.3,1.9,11.9,4.5c3.6,2.7,5.5,6.7,4.9,10.3
		C212.5,221.3,211.9,222.3,211.2,222.8z"/>
	<path id="XMLID_76_" d="M62.4,275.6"/>
	<polygon id="XMLID_74_" class="st0" points="137,295.4 145.1,296 129.4,247.2 	"/>
	<path id="XMLID_73_" class="st1" d="M145.8,189.1L145.8,189.1c0,0-0.1,0.1-0.2,0.1C145.6,189.2,145.7,189.2,145.8,189.1z"/>
	<path id="XMLID_72_" class="st0" d="M96.2,21c12-2.7,26.7,3,34.8,12.1c-5.8-7.5-12.4-15-22-17.6c-7.8-2.1-16.3-0.3-23,4.1
		C79.2,24,74.3,30.9,71.7,38.5C78.3,30.7,86.2,23.3,96.2,21z"/>
</g>
</svg>
