<?xml version="1.0" encoding="utf-8"?>
<!-- Generator: Adobe Illustrator 24.1.2, SVG Export Plug-In . SVG Version: 6.00 Build 0)  -->
<svg version="1.1" id="Layer_1" xmlns="http://www.w3.org/2000/svg" xmlns:xlink="http://www.w3.org/1999/xlink" x="0px" y="0px"
	 viewBox="0 0 49 46.77" enable-background="new 0 0 49 46.77" xml:space="preserve">
<g>
	<path fill="#FF96C5" d="M36.12,32.77c1.43-1.54,2.79-3.03,4.18-4.49c0.48-0.5,0.99-0.98,1.56-1.38c1.6-1.1,3.46-0.89,4.77,0.48
		c1.31,1.37,1.41,3.2,0.23,4.78c-2.06,2.78-4.13,5.55-6.2,8.33c-1.82,2.45-4.25,3.66-7.29,3.67c-7.78,0.01-15.56,0-23.33,0
		c-0.27,0-0.53,0-0.9,0c0,0.31,0.01,0.57,0,0.84c-0.03,0.84-0.36,1.19-1.2,1.19c-1.55,0.01-3.1,0.01-4.65,0
		c-0.88,0-1.23-0.34-1.23-1.22c-0.01-2.32,0-4.63,0-6.95c0-2.74,0-5.49,0-8.23c0-1.02,0.31-1.33,1.32-1.33c1.42-0.01,2.83,0,4.25,0
		c1.26,0,1.47,0.21,1.51,1.49c0,0.13,0.03,0.26,0.04,0.42c0.98,0.07,1.8,0.13,2.63-0.69c2.72-2.7,6.11-3.91,9.92-3.72
		c2.38,0.12,4.3,1.35,5.87,3.09c0.3,0.34,0.59,0.48,1.04,0.46c0.88-0.03,1.75-0.01,2.63-0.01C34.13,29.51,35.04,30.11,36.12,32.77z
		 M9.2,42.11c0.18,0.01,0.29,0.03,0.4,0.03c8.02,0,16.04,0.02,24.07-0.01c2.18-0.01,3.95-0.95,5.26-2.69
		c2.12-2.82,4.21-5.66,6.31-8.49c0.57-0.76,0.54-1.43-0.05-2.06c-0.61-0.66-1.35-0.79-2.12-0.29c-0.46,0.3-0.9,0.68-1.28,1.08
		c-1.72,1.83-3.43,3.68-5.13,5.54c-1.11,1.22-2.46,1.81-4.12,1.8c-3.44-0.02-6.88-0.01-10.31-0.01c-0.61,0-1.21,0.02-1.82-0.01
		c-0.73-0.03-1.17-0.64-0.95-1.3c0.19-0.59,0.66-0.72,1.23-0.72c2.45,0.01,4.9,0,7.35,0c1.42,0,2.83,0.02,4.25-0.01
		c1-0.02,1.73-0.72,1.76-1.6c0.03-0.85-0.61-1.56-1.58-1.71c-0.22-0.03-0.45-0.04-0.67-0.04c-1.24,0-2.47-0.04-3.71,0.01
		c-0.78,0.03-1.27-0.26-1.76-0.86c-1.58-1.93-3.56-3-6.17-2.75c-3.13,0.29-5.72,1.58-7.81,3.91c-0.33,0.36-0.67,0.54-1.17,0.52
		c-0.64-0.04-1.29-0.01-1.98-0.01C9.2,35.7,9.2,38.88,9.2,42.11z M4.14,30.54c0,4.58,0,9.08,0,13.59c1,0,1.96,0,2.94,0
		c0-4.54,0-9.05,0-13.59C6.08,30.54,5.13,30.54,4.14,30.54z"/>
	<path fill="#FF96C5" d="M41.09,11.71c0,6.16-4.99,11.14-11.14,11.15c-6.15,0-11.15-5-11.15-11.14c0-6.15,5-11.15,11.15-11.15
		C36.1,0.57,41.09,5.56,41.09,11.71z M30.98,20.76c4.73-0.5,8.22-4.62,8.07-9.44c-0.13-4.4-3.91-8.46-8.07-8.63
		c0,0.96,0,1.91,0,2.89c0.25,0.04,0.47,0.08,0.69,0.12c1.64,0.3,2.91,1.87,2.82,3.46c-0.03,0.57-0.32,0.94-0.9,0.99
		c-0.57,0.05-0.94-0.23-1.08-0.79c-0.02-0.09-0.04-0.18-0.05-0.26c-0.17-1-0.62-1.41-1.62-1.44c-0.61-0.02-1.21-0.02-1.82,0
		c-1.01,0.04-1.61,0.62-1.6,1.53c0.01,0.9,0.64,1.49,1.62,1.51c0.67,0.01,1.35-0.01,2.02,0.01c1.84,0.06,3.29,1.46,3.41,3.26
		c0.13,1.89-1.08,3.44-2.93,3.77c-0.19,0.03-0.38,0.08-0.58,0.13C30.98,18.84,30.98,19.78,30.98,20.76z M28.9,17.84
		c-0.27-0.05-0.49-0.08-0.71-0.12c-1.51-0.29-2.7-1.64-2.78-3.15c-0.04-0.78,0.25-1.23,0.85-1.31c0.64-0.08,1.06,0.31,1.17,1.09
		c0.13,0.9,0.6,1.37,1.51,1.42c0.67,0.04,1.35,0.04,2.02,0c0.96-0.06,1.52-0.66,1.5-1.55c-0.02-0.88-0.63-1.46-1.58-1.48
		c-0.72-0.02-1.44,0.02-2.16-0.02c-1.7-0.08-3.14-1.43-3.31-3.08c-0.19-1.82,0.86-3.41,2.55-3.87c0.3-0.08,0.61-0.12,0.93-0.18
		c0-0.98,0-1.94,0-2.9c-4.72,0.44-8.23,4.6-8.06,9.53c0.15,4.34,4.02,8.43,8.07,8.51C28.9,19.78,28.9,18.84,28.9,17.84z"/>
</g>
</svg>
