<?xml version="1.0" encoding="utf-8"?>
<!-- Generator: Adobe Illustrator 24.1.2, SVG Export Plug-In . SVG Version: 6.00 Build 0)  -->
<svg version="1.1" id="Layer_1" xmlns="http://www.w3.org/2000/svg" xmlns:xlink="http://www.w3.org/1999/xlink" x="0px" y="0px"
	 viewBox="0 0 74.54 45.11" enable-background="new 0 0 74.54 45.11" xml:space="preserve">
<g>
	<path fill="#E20721" d="M37.55,38.71c-1.72,1.36-3.47,2.67-5.49,3.59c-5.41,2.46-10.95,2.8-16.53,0.78
		c-7.02-2.53-11.64-7.47-13.79-14.6c-2.9-9.59,1.49-20.22,10.25-25.07c8.25-4.57,17.84-3.66,25.01,2.36
		c0.17,0.15,0.37,0.27,0.55,0.4c0.35,0.57,1.02,0.88,1.34,1.56c-0.82,0-1.56,0-2.29,0c-0.79,0-1.21,0.35-1.47,1.2
		c1.31,0,2.61,0,3.91,0c1.11,0,1.47,0.26,1.85,1.41c-1.19,0-2.36,0-3.53,0c-1,0-1.99-0.01-2.99,0c-0.42,0-1.15,0.71-1.03,1.02
		c0.16,0.41,0.58,0.19,0.87,0.19c2.25,0.02,4.49,0.01,6.74,0.01c0.18,0,0.36-0.01,0.54,0.01c0.33,0.04,1.05,0.94,0.95,1.26
		c-0.15,0.45-0.57,0.19-0.85,0.19c-2.81,0.02-5.62,0.01-8.42,0.01c-0.18,0-0.36-0.03-0.53,0.01c-0.5,0.11-0.6,0.59-0.62,0.95
		c-0.02,0.33,0.41,0.17,0.63,0.17c2.5,0.01,5,0.01,7.51,0.01c0.84,0,1.69-0.01,2.53,0c0.34,0.01,0.96,0.86,0.86,1.25
		c-0.11,0.45-0.51,0.21-0.76,0.21c-3.62,0.02-7.25,0.03-10.88,0c-0.75-0.01-0.79,0.53-0.82,0.94c-0.04,0.56,0.49,0.29,0.75,0.29
		c3.83,0.02,7.66,0.04,11.49,0c0.82-0.01,0.85,0.5,0.88,1.02c0.04,0.71-0.55,0.39-0.84,0.39c-4.16,0.02-8.32,0.02-12.48,0.02
		c-1.99-0.29-1.99-0.29-2.34,1.58c-0.01,0.05-0.02,0.1-0.03,0.15c-0.38,2.13-0.76,4.26-1.13,6.39c-0.08,0.46-0.11,0.98,0.39,1.22
		c0.94,0.45,1.94,0.46,2.89,0.07c0.5-0.21,0.4-0.81,0.38-1.23c-0.03-0.41-0.41-0.1-0.61-0.11c-0.78-0.03-0.95-0.21-0.82-0.97
		c0.12-0.7,0.25-1.4,0.38-2.1c0.07,0.76,0.28,1.36,1.24,1.12c0.11,1.37,0.55,2.56,1.93,3.13c1.32,0.54,2.68,0.54,4.05,0.2
		c0.33-0.08,0.53-0.25,0.56-0.62c0.03-0.43,0.11-0.85,0.17-1.29c-0.11,0.01-0.17,0-0.21,0.03c-0.79,0.46-1.65,0.47-2.52,0.42
		c-1.04-0.06-1.64-0.6-1.81-1.62c-0.01-0.04-0.07-0.08-0.11-0.09c-0.7-0.06-0.3-0.51-0.24-0.78c0.06-0.26-0.01-0.77,0.41-0.67
		c0.41,0.1,0.13,0.52,0.06,0.76c-0.14,0.54,0,0.71,0.57,0.68c0.92-0.05,1.84-0.01,2.75-0.01c1.49,0,1.49,0,1.58-1.53
		c0.07-1.11-0.16-2.1-1.19-2.72c-1.65-0.99-4.31-0.32-5.27,1.33c-0.28,0.48-0.42,1.03-0.63,1.55c-0.45,0.02-0.9,0.03-1.35,0.05
		c0.06-0.37,0.13-0.75,0.19-1.12c0.04-0.28,0.14-0.51,0.48-0.43c0.85,0.2,0.98-0.31,1.08-0.98c0.08-0.52,0.03-0.77-0.56-0.7
		c-0.34,0.04-0.72,0.05-0.46-0.5c4.34,0,8.68,0,13.03,0c0.38,0,0.79-0.08,0.86,0.47c-0.6,0.99-0.86,2.08-1.07,3.2
		c-0.78-0.03-1.56,0.09-2.34-0.07c0.28-0.75,0.9-0.99,1.62-1.08c0.26-0.03,0.51-0.02,0.57-0.37c0.1-0.58,0.37-1.1,0.63-1.65
		c-1.03-0.21-1.75,0.33-2.49,0.94c0.25-0.7,0.16-0.98-0.6-0.95c-1.42,0.05-1.42,0.01-1.61,1.46c-0.02,0.15-0.05,0.3-0.08,0.45
		c-0.32,1.83-0.65,3.67-0.96,5.5c-0.03,0.16-0.21,0.48,0.1,0.51c0.61,0.05,1.24,0.08,1.83-0.03c0.33-0.06,0.13-0.6,0.32-0.88
		c1.05,0,2.09,0,3.14,0.01c0.17,0,0.43-0.12,0.5,0.19c0.13,0.61-0.44,1.29-1.08,1.29c-3.73,0-7.45,0-11.18,0
		c-0.75,0-0.82,0.15-0.5,0.83c0.16,0.35,0.43,0.3,0.7,0.3c1.99,0,3.98,0,5.97,0c1.61,0,3.22,0,4.82,0.01c0.17,0,0.44-0.14,0.49,0.19
		c0.1,0.56-0.55,1.29-1.14,1.29c-3.09,0-6.17,0-9.26,0.01c-0.26,0-0.65-0.16-0.76,0.12c-0.11,0.27,0.18,0.56,0.32,0.82
		c0.17,0.33,0.5,0.19,0.76,0.19c2.76,0.01,5.51,0,8.27,0.01c0.24,0,0.5-0.1,0.7,0.09c-0.28,1.07-0.88,1.49-2.04,1.43
		c-2.04-0.11-4.08-0.03-6.12-0.03c-0.18,0-0.41-0.11-0.54,0.13c0.56,1.07,0.56,1.07,1.74,1.07c1.48,0,2.96,0,4.44,0
		c0.29,0,0.59-0.06,0.87,0.07c-0.41,0.99-1.02,1.47-2.13,1.35c-1-0.11-2.02-0.02-3.05-0.02c0.53,1.63,1.9,1.12,3.01,1.24
		c-0.08,0.32-0.3,0.42-0.44,0.59C37.85,38.37,37.7,38.54,37.55,38.71z M8.59,23.65c-0.05-0.01-0.09-0.01-0.14-0.02
		c-0.02-0.37-0.05-0.74-0.07-1.11c-0.07-1.25-0.14-2.5-0.19-3.75c-0.01-0.35-0.06-0.57-0.5-0.55c-0.87,0.03-1.74,0.03-2.6,0
		c-0.36-0.01-0.48,0.14-0.54,0.47c-0.47,2.71-0.96,5.42-1.41,8.14C2.95,27.94,3,27.9,4.17,27.97c0.7,0.04,0.9-0.22,0.98-0.87
		c0.21-1.57,0.5-3.12,0.78-4.68c0.05-0.25-0.06-0.62,0.31-0.76c0.16,0.15,0.12,0.31,0.13,0.45c0.11,1.76,0.22,3.51,0.3,5.27
		c0.02,0.42,0.14,0.56,0.58,0.56c1.7,0.03,1.7,0.05,2.39-1.54c0.09-0.21,0.17-0.43,0.26-0.64c0.61-1.47,1.23-2.94,1.87-4.46
		c0.19,0.31,0.1,0.53,0.07,0.74c-0.3,1.71-0.56,3.42-0.92,5.12c-0.15,0.7,0.03,0.8,0.67,0.78c1.22-0.04,1.23-0.01,1.45-1.18
		c0.48-2.63,0.93-5.27,1.41-7.91c0.09-0.49,0-0.69-0.55-0.66c-0.76,0.04-1.53,0.04-2.3,0c-0.54-0.03-0.8,0.14-1.01,0.66
		C9.96,20.49,9.26,22.06,8.59,23.65z M18.53,27.09c-0.35,0.83-0.01,0.93,0.52,0.86c0.18-0.02,0.36-0.03,0.53,0
		c0.5,0.08,0.7-0.1,0.78-0.62c0.25-1.61,0.59-3.2,0.86-4.81c0.21-1.25-0.25-1.96-1.47-2.38c-0.8-0.28-1.61-0.19-2.42-0.19
		c-1.78,0.02-1.9,0.13-2.26,1.85c-0.01,0.04,0.03,0.08,0.06,0.16c0.91-0.22,1.83-0.34,2.78-0.29c0.2,0.01,0.41,0.03,0.6,0.09
		c0.39,0.13,0.57,0.43,0.51,0.83c-0.07,0.42-0.42,0.29-0.67,0.28c-0.69-0.04-1.38,0.06-2.05,0.18c-1.04,0.18-1.84,0.73-2.28,1.72
		c-0.37,0.84-0.39,1.7,0.18,2.46c0.58,0.77,1.43,0.94,2.33,0.8C17.19,27.93,17.81,27.71,18.53,27.09z M23.24,27.99
		c0.74,0.01,1.48-0.02,2.19-0.28c0.99-0.38,1.57-1.28,1.57-2.47c0-1.02-0.47-1.6-1.59-1.97c-0.26-0.09-0.54-0.16-0.79-0.28
		c-0.3-0.16-0.56-0.4-0.48-0.78c0.07-0.34,0.37-0.47,0.68-0.52c0.58-0.08,1.17-0.08,1.75,0.01c0.38,0.06,0.59-0.03,0.62-0.44
		c0.02-0.23,0.07-0.46,0.13-0.67c0.11-0.38,0.01-0.55-0.41-0.6c-1.04-0.11-2.08-0.18-3.12,0.02c-1.24,0.24-1.86,0.91-2,2.16
		c-0.14,1.23,0.22,1.82,1.46,2.36c0.21,0.09,0.43,0.15,0.64,0.24c0.4,0.18,0.83,0.35,0.69,0.93c-0.12,0.54-0.54,0.64-1,0.63
		c-0.53-0.02-1.09,0-1.59-0.13c-0.63-0.17-0.85-0.06-1.02,0.62c-0.18,0.76,0.02,1.04,0.73,1.09C22.23,27.93,22.74,27.96,23.24,27.99
		z"/>
	<path fill="#FEFEFE" d="M8.59,23.65c0.67-1.59,1.37-3.16,2-4.77c0.2-0.52,0.47-0.69,1.01-0.66c0.76,0.04,1.53,0.04,2.3,0
		c0.55-0.03,0.64,0.16,0.55,0.66c-0.48,2.63-0.94,5.27-1.41,7.91c-0.21,1.17-0.23,1.14-1.45,1.18c-0.64,0.02-0.82-0.08-0.67-0.78
		c0.36-1.69,0.62-3.41,0.92-5.12c0.04-0.21,0.12-0.44-0.07-0.74c-0.64,1.53-1.26,3-1.87,4.46c-0.09,0.21-0.17,0.43-0.26,0.64
		c-0.69,1.59-0.69,1.57-2.39,1.54c-0.44-0.01-0.56-0.14-0.58-0.56c-0.08-1.76-0.19-3.52-0.3-5.27c-0.01-0.14,0.03-0.31-0.13-0.45
		c-0.37,0.13-0.27,0.51-0.31,0.76c-0.29,1.55-0.57,3.11-0.78,4.68c-0.09,0.65-0.28,0.91-0.98,0.87C3,27.9,2.95,27.94,3.14,26.84
		c0.45-2.72,0.95-5.43,1.41-8.14c0.06-0.33,0.18-0.48,0.54-0.47c0.87,0.02,1.74,0.03,2.6,0c0.44-0.02,0.49,0.2,0.5,0.55
		c0.05,1.25,0.12,2.5,0.19,3.75c0.02,0.37,0.05,0.74,0.07,1.11C8.5,23.64,8.54,23.64,8.59,23.65z"/>
	<path fill="#FEFEFE" d="M18.53,27.09c-0.72,0.62-1.34,0.84-2,0.94c-0.91,0.14-1.75-0.03-2.33-0.8c-0.58-0.76-0.56-1.62-0.18-2.46
		c0.44-0.99,1.23-1.54,2.28-1.72c0.68-0.12,1.36-0.21,2.05-0.18c0.25,0.01,0.61,0.14,0.67-0.28c0.06-0.4-0.12-0.7-0.51-0.83
		c-0.19-0.06-0.4-0.08-0.6-0.09c-0.94-0.05-1.87,0.07-2.78,0.29c-0.03-0.08-0.07-0.12-0.06-0.16c0.36-1.72,0.47-1.83,2.26-1.85
		c0.81-0.01,1.63-0.09,2.42,0.19c1.21,0.42,1.68,1.13,1.47,2.38c-0.27,1.61-0.61,3.2-0.86,4.81c-0.08,0.53-0.29,0.7-0.78,0.62
		c-0.17-0.03-0.36-0.02-0.53,0C18.52,28.02,18.18,27.92,18.53,27.09z M16.91,26.29c1.06,0,1.7-0.6,1.81-1.65
		c0.03-0.26-0.03-0.38-0.29-0.39c-0.76-0.03-1.47,0.13-2.04,0.66c-0.3,0.28-0.4,0.64-0.24,1.04C16.28,26.29,16.6,26.29,16.91,26.29z
		"/>
	<path fill="#FEFEFE" d="M31.32,23.19c0.2-0.52,0.35-1.08,0.63-1.55c0.96-1.65,3.62-2.32,5.27-1.33c1.03,0.62,1.26,1.61,1.19,2.72
		c-0.1,1.53-0.1,1.53-1.58,1.53c-0.92,0-1.84-0.03-2.75,0.01c-0.57,0.03-0.71-0.14-0.57-0.68c0.07-0.25,0.35-0.67-0.06-0.76
		c-0.43-0.1-0.36,0.41-0.41,0.67c-0.06,0.26-0.46,0.72,0.24,0.78c0.04,0,0.1,0.05,0.11,0.09c0.18,1.02,0.77,1.56,1.81,1.62
		c0.88,0.05,1.73,0.04,2.52-0.42c0.04-0.02,0.1-0.01,0.21-0.03c-0.06,0.44-0.14,0.86-0.17,1.29c-0.03,0.37-0.23,0.54-0.56,0.62
		c-1.37,0.34-2.74,0.34-4.05-0.2c-1.38-0.56-1.82-1.76-1.93-3.13C31.25,24.01,31.29,23.6,31.32,23.19z M35.02,23.06
		c0.25,0,0.51-0.03,0.76,0c0.69,0.08,0.68-0.29,0.53-0.77c-0.15-0.47-0.53-0.68-0.97-0.73c-0.48-0.06-0.91,0.1-1.2,0.51
		c-0.18,0.26-0.48,0.56-0.33,0.88c0.13,0.27,0.5,0.07,0.76,0.11C34.72,23.08,34.87,23.06,35.02,23.06z"/>
	<path fill="#FEFEFE" d="M44.59,19.98c1.44-2.21,4.35-2.47,6.45-1.71c0.3,0.11,0.41,0.27,0.33,0.57c-0.13,0.51-0.13,1.06-0.35,1.54
		c-0.46-0.13-0.89-0.29-1.34-0.37c-2.02-0.36-3.17,0.48-3.7,2.7c-0.24,1.01-0.29,2.05,0.62,2.74c0.99,0.75,2.13,0.75,3.25,0.19
		c0.07-0.03,0.13-0.07,0.32-0.18c-0.11,0.67-0.2,1.25-0.32,1.83c-0.06,0.28-0.33,0.38-0.58,0.44c-2.01,0.5-4.3,0.26-5.42-1.95
		c-0.12-0.46-0.24-0.92-0.36-1.38c0.01-0.41,0.02-0.82,0.03-1.22C43.72,22.07,43.99,20.97,44.59,19.98z"/>
	<path fill="#FEFEFE" d="M23.24,27.99c-0.51-0.03-1.02-0.06-1.52-0.09c-0.71-0.05-0.91-0.34-0.73-1.09
		c0.16-0.69,0.39-0.79,1.02-0.62c0.51,0.13,1.06,0.12,1.59,0.13c0.46,0.01,0.88-0.09,1-0.63c0.13-0.58-0.3-0.75-0.69-0.93
		c-0.21-0.09-0.43-0.15-0.64-0.24c-1.24-0.55-1.59-1.13-1.46-2.36c0.14-1.25,0.76-1.92,2-2.16c1.04-0.2,2.08-0.13,3.12-0.02
		c0.42,0.05,0.52,0.22,0.41,0.6c-0.06,0.22-0.11,0.45-0.13,0.67c-0.03,0.41-0.24,0.5-0.62,0.44c-0.58-0.09-1.17-0.09-1.75-0.01
		c-0.32,0.05-0.61,0.18-0.68,0.52c-0.08,0.39,0.18,0.63,0.48,0.78c0.25,0.13,0.52,0.2,0.79,0.28c1.12,0.37,1.58,0.95,1.59,1.97
		c0,1.19-0.58,2.1-1.57,2.47C24.72,27.97,23.99,28,23.24,27.99z"/>
	<path fill="#FEFEFE" d="M30.87,18.3c-0.05,0.4-0.11,0.81-0.16,1.21c-0.26,0.55,0.12,0.54,0.46,0.5c0.59-0.07,0.64,0.17,0.56,0.7
		c-0.1,0.67-0.23,1.18-1.08,0.98c-0.34-0.08-0.43,0.15-0.48,0.43c-0.06,0.38-0.13,0.75-0.19,1.12c0,0-0.03,0.02-0.03,0.02l0.02,0.03
		c-0.13,0.7-0.25,1.4-0.38,2.1c-0.13,0.76,0.04,0.94,0.82,0.97c0.21,0.01,0.59-0.3,0.61,0.11c0.03,0.42,0.12,1.02-0.38,1.23
		c-0.95,0.39-1.95,0.39-2.89-0.07c-0.49-0.24-0.47-0.76-0.39-1.22c0.37-2.13,0.75-4.26,1.13-6.39c0.01-0.05,0.02-0.1,0.03-0.15
		C28.87,18.01,28.87,18.01,30.87,18.3z"/>
	<path fill="#FEFEFE" d="M40.7,25.79c-0.06,0.41-0.13,0.82-0.19,1.23c-0.19,0.27,0,0.81-0.32,0.88c-0.59,0.12-1.22,0.08-1.83,0.03
		c-0.31-0.03-0.12-0.34-0.1-0.51c0.31-1.84,0.64-3.67,0.96-5.5c0.03-0.15,0.06-0.3,0.08-0.45c0.19-1.45,0.19-1.41,1.61-1.46
		c0.76-0.03,0.85,0.26,0.6,0.95c0.74-0.6,1.46-1.15,2.49-0.94c-0.25,0.55-0.53,1.07-0.63,1.65c-0.06,0.35-0.31,0.34-0.57,0.37
		c-0.72,0.08-1.34,0.33-1.62,1.08c-0.15,0.41-0.25,0.83-0.24,1.28C40.86,24.85,40.78,25.32,40.7,25.79z"/>
	<path fill="#F8B31E" d="M40.94,24.39c-0.01-0.44,0.09-0.87,0.24-1.28c0.77,0.16,1.56,0.04,2.34,0.07
		c-0.01,0.41-0.02,0.82-0.02,1.23C42.64,24.4,41.79,24.39,40.94,24.39z"/>
	<path fill="#F8B31E" d="M29.97,23.29l-0.02-0.03c0,0,0.03-0.02,0.03-0.02c0.45-0.02,0.9-0.03,1.35-0.05
		c-0.04,0.41-0.08,0.82-0.11,1.22C30.25,24.65,30.04,24.05,29.97,23.29z"/>
	<path fill="#FEFEFE" d="M68.4,21.01c0.13-0.75,0.27-1.39,0.34-2.05c0.05-0.48,0.2-0.7,0.75-0.69c1.44,0.02,1.44-0.01,1.19,1.41
		c-0.44,2.54-0.9,5.07-1.3,7.61c-0.09,0.57-0.31,0.72-0.84,0.66c-0.38-0.04-1,0.12-1.11-0.05c-0.49-0.8-0.87-0.1-1.26,0.02
		c-1.51,0.48-2.93-0.19-3.44-1.69c-0.65-1.92-0.21-3.65,1.13-5.11C65.18,19.7,66.9,19.67,68.4,21.01z M64.84,24.42
		c0.09,0.63,0.05,1.38,0.8,1.67c0.65,0.25,1.22-0.1,1.59-0.62c0.57-0.79,0.82-1.69,0.57-2.67c-0.27-1.05-1.25-1.33-2.04-0.59
		C65.11,22.8,64.92,23.58,64.84,24.42z"/>
	<path fill="#FEFEFE" d="M54.53,22.86c0.13,0,0.26,0.02,0.38,0c0.27-0.04,0.69,0.19,0.74-0.29c0.06-0.48-0.26-0.77-0.71-0.84
		c-0.84-0.13-1.68,0-2.51,0.14c-0.81,0.14-0.73,0.17-0.59-0.64c0.16-0.95,0.71-1.22,1.57-1.28c0.99-0.06,1.99-0.16,2.96,0.15
		c1.33,0.42,1.83,1.25,1.57,2.62c-0.3,1.58-0.63,3.14-0.92,4.72c-0.07,0.4-0.25,0.64-0.65,0.52c-0.49-0.14-1.19,0.44-1.48-0.44
		c-0.06-0.18-0.25,0.01-0.38,0.08c-0.47,0.26-0.97,0.45-1.52,0.48c-0.94,0.05-1.8-0.14-2.3-1.03c-0.48-0.84-0.29-2.23,0.34-2.95
		c0.48-0.55,1.07-0.94,1.81-1.06c0.55-0.09,1.11-0.15,1.66-0.22C54.53,22.84,54.53,22.85,54.53,22.86z M53.59,26.29
		c1.06,0,1.7-0.57,1.78-1.57c0.02-0.26,0.02-0.47-0.31-0.47c-0.7-0.01-1.38,0.1-1.93,0.57c-0.33,0.29-0.43,0.68-0.29,1.11
		C52.96,26.3,53.28,26.28,53.59,26.29z"/>
	<path fill="#FEFEFE" d="M61.22,20.92c0.46-0.36,0.87-0.79,1.48-0.91c0.17-0.03,0.36-0.12,0.51,0.02c0.24,0.23-0.29,1.76-0.63,1.8
		c-1.34,0.16-1.91,1-2.08,2.25c-0.14,1.06-0.4,2.1-0.55,3.16c-0.07,0.53-0.27,0.72-0.82,0.7c-1.39-0.03-1.39,0-1.16-1.36
		c0.33-1.96,0.68-3.91,0.98-5.88c0.09-0.57,0.32-0.81,0.89-0.71c0.17,0.03,0.36,0.03,0.53,0c0.69-0.12,0.92,0.17,0.76,0.83
		c-0.01,0.06-0.03,0.12-0.04,0.18C61.14,20.98,61.18,20.95,61.22,20.92z"/>
	<path fill="#E20721" d="M40.94,24.39c0.85,0.01,1.7,0.01,2.56,0.02c0.12,0.46,0.24,0.92,0.36,1.38c-1.05,0-2.1,0-3.15,0
		C40.78,25.32,40.86,24.85,40.94,24.39z"/>
	<path fill="#E20721" d="M16.91,26.29c-0.31,0-0.62-0.01-0.77-0.35c-0.16-0.4-0.06-0.76,0.24-1.04c0.57-0.53,1.28-0.69,2.04-0.66
		c0.27,0.01,0.32,0.13,0.29,0.39C18.6,25.69,17.97,26.29,16.91,26.29z"/>
	<path fill="#E20721" d="M35.02,23.06c-0.15,0-0.31,0.02-0.46,0c-0.26-0.04-0.63,0.16-0.76-0.11c-0.15-0.32,0.15-0.62,0.33-0.88
		c0.29-0.4,0.72-0.57,1.2-0.51c0.45,0.06,0.82,0.26,0.97,0.73c0.15,0.48,0.16,0.86-0.53,0.77C35.53,23.03,35.28,23.06,35.02,23.06z"
		/>
	<path fill="#F8B31E" d="M64.84,24.42c0.09-0.84,0.27-1.62,0.92-2.22c0.8-0.73,1.78-0.45,2.04,0.59c0.25,0.98,0.01,1.88-0.57,2.67
		c-0.38,0.52-0.94,0.87-1.59,0.62C64.89,25.81,64.92,25.06,64.84,24.42z"/>
	<path fill="#F8B31E" d="M53.59,26.29c-0.31,0-0.63,0.01-0.75-0.37c-0.14-0.43-0.04-0.82,0.29-1.11c0.55-0.47,1.23-0.58,1.93-0.57
		c0.33,0,0.33,0.22,0.31,0.47C55.29,25.71,54.64,26.29,53.59,26.29z"/>
	<path fill="#F8B31E" d="M61.22,20.92c-0.04,0.03-0.09,0.06-0.13,0.09c0.01-0.06,0.03-0.12,0.04-0.18
		C61.16,20.86,61.19,20.89,61.22,20.92z"/>
	<path fill="#F8B31E" d="M71.13,11.53c-2.56-4.55-6.37-7.71-11.24-9.57c-4.46-1.7-9.01-1.91-13.6-0.64
		C43,2.24,40.03,3.78,37.55,6.17c0.35,0.57,1.02,0.88,1.34,1.56c-0.82,0-1.56,0-2.29,0c-0.79,0-1.21,0.35-1.47,1.2
		c1.31,0,2.61,0,3.91,0c1.11,0,1.47,0.26,1.85,1.41c-1.19,0-2.36,0-3.53,0c-1,0-1.99-0.01-2.99,0c-0.42,0-1.15,0.71-1.03,1.02
		c0.16,0.41,0.58,0.19,0.87,0.19c2.25,0.02,4.49,0.01,6.74,0.01c0.18,0,0.36-0.01,0.54,0.01c0.33,0.04,1.05,0.94,0.95,1.26
		c-0.15,0.45-0.57,0.19-0.85,0.19c-2.81,0.02-5.62,0.01-8.42,0.01c-0.18,0-0.36-0.03-0.53,0.01c-0.5,0.11-0.6,0.59-0.62,0.94
		c-0.02,0.33,0.41,0.17,0.63,0.17c2.5,0.01,5,0.01,7.51,0.01c0.84,0,1.69-0.01,2.53,0c0.34,0.01,0.96,0.86,0.86,1.25
		c-0.11,0.45-0.51,0.21-0.76,0.21c-3.62,0.02-7.25,0.03-10.87,0c-0.75-0.01-0.79,0.53-0.82,0.94c-0.04,0.56,0.49,0.29,0.75,0.29
		c3.83,0.02,7.66,0.04,11.49,0c0.82-0.01,0.85,0.5,0.88,1.02c0.04,0.71-0.55,0.39-0.84,0.39c-4.16,0.02-8.32,0.02-12.48,0.02
		c-0.05,0.4-0.11,0.81-0.16,1.21c4.34,0,8.68,0,13.03,0c0.38,0,0.79-0.08,0.86,0.47c1.44-2.21,4.35-2.47,6.45-1.71
		c0.3,0.11,0.41,0.27,0.33,0.57c-0.13,0.51-0.13,1.06-0.35,1.54c-0.46-0.13-0.89-0.29-1.34-0.37c-2.02-0.36-3.17,0.48-3.7,2.7
		c-0.24,1.01-0.29,2.05,0.62,2.74c0.99,0.75,2.13,0.75,3.25,0.19c0.07-0.03,0.13-0.07,0.32-0.18c-0.11,0.67-0.2,1.25-0.32,1.83
		c-0.06,0.28-0.33,0.38-0.58,0.44c-2.01,0.5-4.3,0.26-5.42-1.95c-1.05,0-2.1,0-3.15,0c-0.07,0.41-0.13,0.82-0.19,1.23
		c1.05,0,2.09,0,3.14,0.01c0.17,0,0.43-0.12,0.5,0.19c0.13,0.61-0.44,1.29-1.08,1.29c-3.73,0-7.45,0-11.18,0
		c-0.75,0-0.82,0.15-0.5,0.83c0.16,0.35,0.43,0.3,0.7,0.3c1.99,0,3.98,0,5.97,0c1.61,0,3.22,0,4.82,0.01c0.17,0,0.44-0.14,0.49,0.19
		c0.1,0.56-0.55,1.29-1.14,1.29c-3.09,0-6.17,0-9.26,0.01c-0.26,0-0.65-0.16-0.76,0.12c-0.11,0.27,0.18,0.56,0.32,0.82
		c0.17,0.33,0.5,0.19,0.76,0.19c2.76,0.01,5.51,0,8.27,0.01c0.24,0,0.5-0.1,0.7,0.09c-0.28,1.07-0.88,1.49-2.04,1.43
		c-2.04-0.11-4.08-0.03-6.12-0.03c-0.18,0-0.41-0.11-0.54,0.13c0.56,1.07,0.56,1.07,1.74,1.07c1.48,0,2.96,0,4.44,0
		c0.29,0,0.59-0.06,0.87,0.07c-0.41,0.99-1.02,1.47-2.13,1.35c-1-0.11-2.02-0.02-3.05-0.02c0.53,1.63,1.9,1.12,3.01,1.24
		c-0.08,0.32-0.3,0.42-0.44,0.59c-0.14,0.18-0.29,0.34-0.44,0.52c0.08,0.09,0.16,0.2,0.25,0.28c4.91,4.16,10.58,6,16.97,5.17
		c7.65-0.99,13.4-4.97,16.88-11.83C75.18,25.38,74.96,18.34,71.13,11.53z M71.14,26.41L71.14,26.41c-0.26,0.17-0.31,0.37-0.29,0.58
		C70.83,26.78,70.89,26.58,71.14,26.41z M56.38,27.96c-0.49-0.14-1.19,0.44-1.48-0.44c-0.06-0.18-0.25,0.01-0.38,0.08
		c-0.47,0.26-0.97,0.45-1.52,0.48c-0.94,0.05-1.8-0.14-2.3-1.03c-0.48-0.84-0.29-2.23,0.34-2.95c0.48-0.55,1.07-0.94,1.81-1.06
		c0.55-0.09,1.11-0.15,1.66-0.22c0,0.01,0,0.02,0,0.04c0.13,0,0.26,0.02,0.38,0c0.27-0.04,0.69,0.19,0.74-0.29
		c0.06-0.48-0.26-0.77-0.71-0.84c-0.84-0.13-1.68,0-2.51,0.14c-0.81,0.14-0.73,0.17-0.59-0.64c0.16-0.95,0.71-1.22,1.57-1.28
		c0.99-0.06,1.99-0.16,2.96,0.15c1.33,0.42,1.83,1.25,1.57,2.62c-0.3,1.58-0.63,3.14-0.92,4.72C56.96,27.84,56.78,28.07,56.38,27.96
		z M60.5,24.1c-0.14,1.06-0.4,2.1-0.55,3.16c-0.07,0.53-0.27,0.72-0.82,0.7c-1.39-0.03-1.39,0-1.16-1.36
		c0.33-1.96,0.68-3.91,0.98-5.88c0.09-0.57,0.32-0.81,0.89-0.71c0.17,0.03,0.36,0.03,0.53,0c0.69-0.12,0.92,0.17,0.76,0.82
		c0.03,0.03,0.06,0.06,0.09,0.09c0.46-0.36,0.87-0.79,1.48-0.91c0.17-0.03,0.36-0.12,0.51,0.02c0.24,0.23-0.29,1.76-0.63,1.8
		C61.24,22,60.68,22.84,60.5,24.1z M68.54,27.95c-0.38-0.04-1,0.12-1.11-0.05c-0.49-0.8-0.87-0.1-1.26,0.02
		c-1.51,0.48-2.93-0.19-3.44-1.69c-0.65-1.92-0.21-3.65,1.13-5.11c1.31-1.42,3.03-1.45,4.53-0.12c0.13-0.75,0.27-1.39,0.34-2.05
		c0.05-0.48,0.2-0.7,0.75-0.69c1.44,0.02,1.44-0.01,1.19,1.41c-0.44,2.54-0.9,5.07-1.3,7.61C69.29,27.86,69.06,28.01,68.54,27.95z
		 M72.66,27.04c0-0.02,0.01-0.04,0.01-0.05C72.67,27.01,72.66,27.03,72.66,27.04z"/>
</g>
</svg>
