<?xml version="1.0" encoding="utf-8"?>
<!-- Generator: Adobe Illustrator 24.2.0, SVG Export Plug-In . SVG Version: 6.00 Build 0)  -->
<svg version="1.1" id="Layer_1" xmlns="http://www.w3.org/2000/svg" xmlns:xlink="http://www.w3.org/1999/xlink" x="0px" y="0px"
	 viewBox="0 0 422.87 280.7" enable-background="new 0 0 422.87 280.7" xml:space="preserve">
<g>
	<path fill="#F86EAC" d="M419.9,208.43c-1.28,4.68-2.52,9.37-3.84,14.04c-9.71,34.31-42.91,58.63-77.29,56.65
		c-38.02-2.19-68.05-29.35-73.5-66.47c-6.02-40.96,22.1-80.82,61.48-87.17c44.72-7.21,83.75,19.98,91.15,63.44
		c0.33,1.93,1.33,3.74,2.02,5.6C419.9,199.15,419.9,203.79,419.9,208.43z M331.13,233.59c17.05-16.11,33.93-32.07,49.57-46.85
		c-3.37-4.31-6.82-8.72-10.92-13.97c-12.9,12.62-25,24.46-37.33,36.52c-5.15-4.61-10.62-9.5-16.56-14.81
		c-4.57,4.77-8.43,8.8-10.37,10.83C315.39,216.21,324.44,226.2,331.13,233.59z"/>
	<path fill="#F86EAC" d="M384.2,93.34c-14.86-1.94-28.46-4.76-42.15-5.29c-29.13-1.13-54.45,9.39-76.01,28.67
		c-4.95,4.42-9.77,6.04-16.24,6.02c-67.24-0.19-134.49-0.12-201.73-0.12c-3.41,0-6.82,0-10.9,0c-0.21,3.6-0.51,6.4-0.51,9.19
		c-0.03,33.33-0.04,66.66-0.01,100c0.01,11.55,2.16,13.72,13.67,13.72c59.13,0.02,118.26,0.12,177.38-0.15
		c6.38-0.03,9.71,1.81,12.66,7.54c4.48,8.68,10.32,16.64,15.95,25.48c-1.71,0.25-3.48,0.73-5.26,0.73
		c-70.43,0.04-140.86,0.09-211.3-0.01c-21.91-0.03-36.66-14.67-36.7-36.5C2.95,174.51,2.94,106.4,3.07,38.28
		C3.11,16.89,17.82,2.1,39.17,2.07c103.18-0.11,206.37-0.11,309.55,0.01c18.93,0.02,33.71,11.85,35.13,30.51
		C385.4,52.97,384.2,73.57,384.2,93.34z M36.69,71.04c105.41,0,209.34,0,314.21,0c0-7.12,0.01-13.72,0-20.31
		c-0.02-13.32-1.74-15.08-14.94-15.08c-94.78-0.01-189.57,0-284.35,0c-2.03,0-4.67-0.77-5.97,0.21c-3.3,2.49-8.07,5.48-8.55,8.81
		C35.88,53.12,36.69,61.86,36.69,71.04z"/>
	<path fill="#F86EAC" d="M72.96,174.26c0-5.21,0-9.76,0-15c45.64,0,91.1,0,137.1,0c0,4.96,0,9.71,0,15
		C164.47,174.26,119.22,174.26,72.96,174.26z"/>
	<path fill="#F86EAC" d="M158,193.93c0,5.11,0,9.65,0,14.93c-28.16,0-56.23,0-84.85,0c0-4.85,0-9.6,0-14.93
		C101.24,193.93,129.1,193.93,158,193.93z"/>
</g>
<g>
</g>
<g>
</g>
<g>
</g>
<g>
</g>
<g>
</g>
<g>
</g>
</svg>
