<?xml version="1.0" encoding="utf-8"?>
<!-- Generator: Adobe Illustrator 24.1.2, SVG Export Plug-In . SVG Version: 6.00 Build 0)  -->
<svg version="1.1" id="Layer_1" xmlns="http://www.w3.org/2000/svg" xmlns:xlink="http://www.w3.org/1999/xlink" x="0px" y="0px"
	 viewBox="0 0 74.54 19.15" enable-background="new 0 0 74.54 19.15" xml:space="preserve">
<g>
	<path fill="#0D3883" d="M4.51,16.54c-1.12,0-2.23,0-3.35,0c-0.41,0-0.59-0.32-0.54-0.63c0.33-2.04,0.64-4.07,0.97-6.11
		C1.95,7.56,2.3,5.31,2.66,3.06c0.09-0.59,0.18-1.17,0.28-1.76c0.08-0.47,0.37-0.72,0.85-0.74c0.08,0,0.15,0,0.23,0
		c1.74,0,3.48-0.01,5.22,0c0.85,0.01,1.7,0.07,2.52,0.32c0.55,0.16,1.07,0.39,1.5,0.78c0.65,0.58,1.02,1.31,1.09,2.19
		c0.03,0.43-0.01,0.85-0.05,1.27c-0.1,0.65-0.26,1.29-0.51,1.9c-0.64,1.55-1.73,2.61-3.34,3.14c-0.77,0.25-1.57,0.37-2.38,0.38
		c-0.63,0.01-1.25,0-1.88,0c-0.39,0-0.67,0.2-0.79,0.54c-0.03,0.08-0.05,0.17-0.06,0.26c-0.2,1.26-0.39,2.52-0.59,3.78
		C4.67,15.6,4.61,16.07,4.51,16.54z"/>
	<path fill="#019CDA" d="M55.12,4.57c0.64,0,1.29,0,1.93,0c0.54,0,1.07,0.06,1.58,0.21c0.37,0.11,0.71,0.27,1.02,0.5
		c0.47,0.36,0.74,0.85,0.87,1.42c0.09,0.43,0.1,0.87,0.04,1.31c-0.08,0.6-0.21,1.19-0.46,1.75c-0.51,1.13-1.36,1.85-2.56,2.17
		c-0.5,0.14-1.01,0.2-1.53,0.2c-0.44,0-0.89,0.01-1.33,0c-0.32-0.01-0.58,0.21-0.63,0.53c-0.1,0.71-0.22,1.42-0.34,2.14
		c-0.04,0.25-0.08,0.5-0.12,0.74c-0.04,0.24-0.17,0.36-0.42,0.37c-0.17,0.01-0.35,0-0.52,0c-0.45,0-0.9,0-1.35,0
		c-0.06,0-0.13,0-0.19-0.01c-0.23-0.02-0.35-0.16-0.33-0.39c0.02-0.22,0.06-0.43,0.09-0.65c0.19-1.21,0.38-2.43,0.57-3.64
		c0.25-1.6,0.51-3.19,0.76-4.79c0.07-0.43,0.14-0.86,0.2-1.3c0.06-0.38,0.26-0.56,0.66-0.57C53.74,4.57,54.43,4.57,55.12,4.57
		C55.12,4.57,55.12,4.57,55.12,4.57z M55.14,9.85C55.14,9.85,55.14,9.85,55.14,9.85c0.13,0,0.26,0,0.39,0
		c0.3-0.01,0.59-0.03,0.88-0.11c0.42-0.12,0.74-0.36,0.92-0.76c0.17-0.38,0.24-0.79,0.18-1.2C57.46,7.44,57.3,7.19,57,7.04
		c-0.14-0.07-0.29-0.11-0.44-0.14c-0.44-0.07-0.87-0.05-1.31-0.05c-0.2,0-0.3,0.1-0.33,0.31c-0.05,0.29-0.09,0.57-0.14,0.86
		c-0.09,0.56-0.17,1.12-0.26,1.68c-0.02,0.14-0.02,0.14,0.12,0.14C54.8,9.85,54.97,9.85,55.14,9.85z"/>
	<path fill="#0D3883" d="M26.22,4.6c0.7,0,1.39-0.01,2.09,0c0.62,0.01,1.23,0.11,1.8,0.37c0.86,0.39,1.36,1.06,1.45,1.99
		c0.12,1.21-0.14,2.35-0.79,3.38c-0.53,0.84-1.31,1.33-2.26,1.58c-0.52,0.14-1.05,0.19-1.59,0.19c-0.43,0-0.86,0-1.3,0
		c-0.3,0.01-0.49,0.17-0.56,0.46c-0.01,0.03-0.01,0.06-0.02,0.09c-0.07,0.43-0.14,0.87-0.2,1.3c-0.07,0.45-0.14,0.89-0.21,1.34
		c-0.01,0.05-0.02,0.1-0.03,0.15c-0.07,0.24-0.25,0.41-0.5,0.41c-0.65,0.01-1.3,0.01-1.95,0c-0.24,0-0.36-0.15-0.33-0.4
		c0.04-0.33,0.1-0.65,0.15-0.97c0.21-1.36,0.43-2.72,0.64-4.09c0.22-1.43,0.45-2.85,0.67-4.28c0.05-0.3,0.09-0.6,0.14-0.9
		c0.01-0.04,0.01-0.08,0.02-0.11c0.07-0.38,0.26-0.53,0.64-0.54c0.23,0,0.45,0,0.68,0C25.24,4.6,25.73,4.6,26.22,4.6
		C26.22,4.6,26.22,4.6,26.22,4.6z M27.1,6.84c-0.21,0-0.41,0-0.62,0c-0.45,0-0.52,0.06-0.59,0.5c-0.09,0.57-0.18,1.13-0.27,1.7
		c-0.04,0.22-0.07,0.45-0.1,0.67c-0.02,0.12,0.01,0.15,0.13,0.16c0.03,0,0.05,0,0.08,0c0.41,0.01,0.83,0,1.24-0.03
		c0.19-0.01,0.37-0.05,0.55-0.11c0.44-0.14,0.74-0.42,0.9-0.86c0.12-0.32,0.16-0.65,0.14-0.99c-0.02-0.49-0.28-0.81-0.74-0.94
		c-0.17-0.05-0.34-0.07-0.51-0.09C27.23,6.85,27.17,6.84,27.1,6.84z"/>
	<path fill="#019CDA" d="M4.51,16.54c0.1-0.47,0.16-0.94,0.24-1.41c0.2-1.26,0.4-2.52,0.59-3.78c0.01-0.09,0.03-0.18,0.06-0.26
		c0.12-0.34,0.41-0.53,0.79-0.54c0.63,0,1.25,0.01,1.88,0c0.81-0.01,1.61-0.12,2.38-0.38c1.6-0.53,2.7-1.59,3.34-3.14
		c0.25-0.61,0.41-1.25,0.51-1.9c0.71,0.36,1.15,0.93,1.37,1.69c0.16,0.55,0.17,1.11,0.1,1.67c-0.09,0.77-0.27,1.52-0.6,2.23
		c-0.55,1.19-1.43,2.01-2.67,2.46c-0.75,0.27-1.52,0.37-2.32,0.38c-0.21,0-0.43-0.01-0.64,0.01c-0.35,0.04-0.58,0.24-0.65,0.59
		c-0.06,0.32-0.11,0.65-0.16,0.97c-0.14,0.92-0.29,1.83-0.43,2.75c-0.03,0.18-0.08,0.35-0.22,0.48c-0.13,0.12-0.29,0.19-0.47,0.19
		c-0.97,0-1.93,0-2.9,0c-0.29,0-0.46-0.17-0.43-0.47c0.03-0.31,0.09-0.62,0.13-0.94C4.45,16.93,4.48,16.74,4.51,16.54z"/>
	<path fill="#019CDA" d="M66.81,9.1c0.02-0.13,0.04-0.24,0.06-0.36c0.04-0.31,0.15-0.4,0.46-0.4c0.6,0,1.2,0,1.8,0
		c0.22,0,0.33,0.08,0.38,0.26c0.02,0.06,0.01,0.11,0.01,0.17c-0.18,1.14-0.36,2.28-0.54,3.41c-0.15,0.95-0.3,1.91-0.45,2.86
		c-0.02,0.13-0.04,0.27-0.07,0.4c-0.06,0.27-0.24,0.44-0.52,0.46c-0.15,0.01-0.31,0.01-0.46,0.01c-0.39,0-0.79,0-1.18,0
		c-0.06,0-0.13,0-0.19-0.01c-0.21-0.04-0.32-0.21-0.29-0.42c0.02-0.13,0.07-0.26,0.05-0.4c-0.06-0.02-0.08,0.03-0.12,0.06
		c-0.71,0.61-1.53,0.93-2.47,0.94c-0.45,0.01-0.9-0.04-1.33-0.19c-0.89-0.31-1.44-0.94-1.75-1.81c-0.27-0.77-0.28-1.56-0.09-2.34
		c0.32-1.35,1.05-2.39,2.27-3.07c0.61-0.34,1.26-0.51,1.96-0.51c0.47,0,0.94,0.03,1.39,0.17c0.34,0.11,0.64,0.27,0.88,0.54
		C66.66,8.94,66.7,9.03,66.81,9.1z M64.26,14c0.11-0.01,0.22,0,0.33-0.02c1.16-0.17,1.97-1.15,1.89-2.32
		c-0.04-0.59-0.34-1.03-0.89-1.27c-0.24-0.1-0.5-0.15-0.75-0.14c-1.47,0.04-2.31,1.27-2.17,2.5c0.06,0.48,0.3,0.84,0.74,1.06
		C63.67,13.94,63.96,14,64.26,14z"/>
	<path fill="#0D3883" d="M36.89,14.99c-0.08,0.07-0.15,0.13-0.22,0.19c-0.73,0.61-1.58,0.9-2.54,0.89c-0.28,0-0.55-0.03-0.82-0.09
		c-0.96-0.21-1.62-0.79-2.01-1.68c-0.31-0.72-0.36-1.47-0.23-2.24c0.2-1.2,0.76-2.21,1.72-2.97c0.93-0.73,1.99-1.01,3.16-0.88
		c0.26,0.03,0.51,0.07,0.76,0.14c0.42,0.13,0.78,0.33,1.03,0.71c0.02,0.03,0.03,0.06,0.07,0.07c0.06-0.01,0.06-0.06,0.06-0.1
		c0.02-0.11,0.03-0.23,0.06-0.34c0.04-0.21,0.14-0.29,0.36-0.31c0.05,0,0.1,0,0.15,0c0.53,0,1.06,0,1.59,0c0.06,0,0.13,0,0.19,0.01
		c0.2,0.02,0.31,0.14,0.3,0.34C40.51,8.86,40.48,9,40.46,9.15c-0.32,2.03-0.64,4.06-0.96,6.09c0,0.02-0.01,0.04-0.01,0.06
		c-0.04,0.41-0.28,0.6-0.69,0.59c-0.5-0.01-0.99,0-1.49,0c-0.05,0-0.09,0-0.14,0c-0.22-0.02-0.34-0.15-0.33-0.37
		c0.01-0.11,0.03-0.22,0.05-0.33C36.91,15.13,36.93,15.07,36.89,14.99z M35.82,10.23c-0.65,0.01-1.25,0.27-1.7,0.85
		c-0.39,0.5-0.53,1.07-0.45,1.69c0.06,0.48,0.31,0.85,0.75,1.06c0.6,0.29,1.22,0.27,1.82-0.01c0.85-0.39,1.26-1.09,1.28-2.02
		c0.01-0.46-0.15-0.88-0.51-1.19C36.69,10.33,36.3,10.24,35.82,10.23z"/>
	<path fill="#0D3883" d="M42.82,8.37c0.29,0,0.58,0,0.87,0c0.35,0,0.52,0.13,0.62,0.47c0.35,1.17,0.7,2.35,1.05,3.52
		c0,0.01,0.01,0.03,0.01,0.04c0.02,0.05,0,0.13,0.08,0.14c0.06,0,0.08-0.06,0.1-0.1c0.54-0.8,1.09-1.6,1.63-2.4
		c0.3-0.45,0.61-0.9,0.91-1.35c0.14-0.22,0.34-0.32,0.6-0.32c0.59,0.01,1.17,0,1.76,0c0.03,0,0.06,0,0.1,0
		c0.29,0.02,0.43,0.28,0.27,0.53c-0.19,0.3-0.4,0.59-0.6,0.88c-1.94,2.8-3.88,5.61-5.81,8.42c-0.17,0.24-0.38,0.35-0.66,0.35
		c-0.56,0-1.12,0-1.68,0c-0.01,0-0.01,0-0.02,0c-0.17,0-0.33-0.03-0.41-0.2c-0.07-0.16,0-0.3,0.09-0.43
		c0.61-0.86,1.22-1.73,1.83-2.59c0.09-0.13,0.11-0.24,0.06-0.39c-0.42-1.22-0.83-2.44-1.25-3.66c-0.23-0.68-0.46-1.35-0.69-2.03
		c-0.04-0.13-0.1-0.25-0.13-0.38c-0.08-0.32,0.05-0.49,0.37-0.49C42.22,8.36,42.52,8.37,42.82,8.37z"/>
	<path fill="#019CDA" d="M70.99,15.91c-0.23,0-0.45,0-0.68,0c-0.05,0-0.09,0-0.14,0c-0.28-0.02-0.41-0.16-0.37-0.44
		c0.05-0.39,0.12-0.78,0.18-1.16c0.17-1.12,0.35-2.24,0.53-3.36c0.16-1.03,0.33-2.06,0.49-3.09c0.15-0.94,0.29-1.88,0.44-2.82
		c0.01-0.06,0.02-0.11,0.03-0.17c0.04-0.17,0.15-0.26,0.32-0.28c0.06-0.01,0.12,0,0.17,0c0.52,0,1.03,0,1.55,0c0.04,0,0.08,0,0.12,0
		c0.29,0.01,0.43,0.17,0.39,0.45c-0.02,0.17-0.05,0.34-0.08,0.51c-0.16,1.04-0.33,2.08-0.49,3.13c-0.21,1.35-0.43,2.69-0.64,4.04
		c-0.14,0.86-0.27,1.73-0.41,2.59c-0.01,0.06-0.02,0.13-0.04,0.19c-0.07,0.25-0.27,0.4-0.56,0.42
		C71.53,15.91,71.26,15.91,70.99,15.91C70.99,15.91,70.99,15.91,70.99,15.91z"/>
	<path fill="#019CDA" d="M27.3,6.85c-0.07-0.01-0.14,0.02-0.2-0.02C27.17,6.84,27.23,6.85,27.3,6.85z"/>
</g>
</svg>
