<?xml version="1.0" encoding="utf-8"?>
<!-- Generator: Adobe Illustrator 24.2.0, SVG Export Plug-In . SVG Version: 6.00 Build 0)  -->
<svg version="1.1" id="Layer_1" xmlns="http://www.w3.org/2000/svg" xmlns:xlink="http://www.w3.org/1999/xlink" x="0px" y="0px"
	 viewBox="0 0 16.8 34.5" style="enable-background:new 0 0 16.8 34.5;" xml:space="preserve">
<style type="text/css">
	.st0{fill-rule:evenodd;clip-rule:evenodd;fill:#F86EAC;}
</style>
<g>
	<g>
		<path class="st0" d="M3.9,17.5V34c0,0.2,0.2,0.4,0.4,0.4h6.1c0.2,0,0.4-0.2,0.4-0.4V17.2h4.4c0.2,0,0.4-0.2,0.4-0.4l0.4-5.1
			c0-0.3-0.2-0.5-0.4-0.5h-4.9V7.7c0-0.8,0.7-1.5,1.5-1.5h3.4c0.2,0,0.4-0.2,0.4-0.4V0.7c0-0.2-0.2-0.4-0.4-0.4H10
			C6.6,0.3,3.9,3,3.9,6.4v4.9H0.8c-0.2,0-0.4,0.2-0.4,0.4v5.1c0,0.2,0.2,0.4,0.4,0.4h3.1V17.5z"/>
	</g>
</g>
</svg>
