<?xml version="1.0" encoding="utf-8"?>
<!-- Generator: Adobe Illustrator 24.1.2, SVG Export Plug-In . SVG Version: 6.00 Build 0)  -->
<svg version="1.1" id="Layer_1" xmlns="http://www.w3.org/2000/svg" xmlns:xlink="http://www.w3.org/1999/xlink" x="0px" y="0px"
	 viewBox="0 0 28.18 34.47" enable-background="new 0 0 28.18 34.47" xml:space="preserve">
<g>
	<g>
		<g>
			<path fill="#FFFFFF" d="M16.42,25.79c-2.14-0.17-3.04-1.23-4.72-2.25c-0.75,3.93-1.63,7.72-3.72,10.31
				c-0.61,0.75-1.83,0.37-1.88-0.59C5.78,27.01,7.94,22.04,9,16.8c-2.02-3.39,0.24-10.22,4.49-8.54c5.23,2.07-4.53,12.61,2.02,13.93
				c6.84,1.38,9.63-11.87,5.39-16.18C14.78-0.2,3.07,5.88,4.51,14.78c0.27,1.69,1.69,2.47,1.51,4.14c-0.11,1.04-1.18,1.64-2.13,1.19
				c-2.71-1.27-3.55-4.05-3.43-7.58C0.71,5.78,6.53,1.06,12.37,0.4c7.39-0.83,14.32,2.71,15.28,9.66
				C28.73,17.91,24.32,26.4,16.42,25.79L16.42,25.79z"/>
		</g>
	</g>
</g>
</svg>
