<?xml version="1.0" encoding="utf-8"?>
<!-- Generator: Adobe Illustrator 24.1.2, SVG Export Plug-In . SVG Version: 6.00 Build 0)  -->
<svg version="1.1" id="Layer_1" xmlns="http://www.w3.org/2000/svg" xmlns:xlink="http://www.w3.org/1999/xlink" x="0px" y="0px"
	 viewBox="0 0 61.17 79.29" enable-background="new 0 0 61.17 79.29" xml:space="preserve">
<path fill="none" stroke="#FFFFFF" stroke-width="2" stroke-miterlimit="10" d="M29.34,66.5c0,0-0.67,8.58-9.58,11.66"/>
<path fill="#FFFFFF" d="M60.47,30.05c0-16.5-13.38-29.88-29.88-29.88C14.08,0.17,0.7,13.55,0.7,30.05
	c0,15.06,11.15,27.48,25.64,29.55c-0.03,0.02-0.05,0.03-0.05,0.03l-1.09,7.51h8.3l-1.42-7.21c-0.02-0.03-0.04-0.05-0.06-0.07
	C47.86,59.11,60.47,46.07,60.47,30.05z M33.1,39.51c-2.35-0.18-3.34-1.35-5.19-2.47c-0.82,4.31-1.79,8.48-4.09,11.32
	c-0.67,0.83-2.02,0.41-2.07-0.65c-0.35-6.87,2.03-12.33,3.19-18.08c-2.21-3.73,0.27-11.23,4.94-9.38
	c5.75,2.27-4.98,13.86,2.22,15.31c7.52,1.51,10.59-13.04,5.92-17.78c-6.74-6.83-19.61-0.16-18.02,9.63c0.3,1.86,1.86,2.71,1.66,4.55
	c-0.12,1.14-1.3,1.8-2.34,1.31c-2.98-1.39-3.91-4.45-3.76-8.33c0.27-7.42,6.67-12.61,13.09-13.33c8.12-0.91,15.74,2.98,16.79,10.62
	C46.63,30.85,41.78,40.18,33.1,39.51z"/>
</svg>
