<?xml version="1.0" encoding="utf-8"?>
<!-- Generator: Adobe Illustrator 24.2.0, SVG Export Plug-In . SVG Version: 6.00 Build 0)  -->
<svg version="1.1" id="Layer_1" xmlns="http://www.w3.org/2000/svg" xmlns:xlink="http://www.w3.org/1999/xlink" x="0px" y="0px"
	 viewBox="0 0 28.2 34.5" style="enable-background:new 0 0 28.2 34.5;" xml:space="preserve">
<style type="text/css">
	.st0{fill:#F86EAC;}
</style>
<g>
	<g>
		<g>
			<path class="st0" d="M16.4,25.8c-2.1-0.2-3-1.2-4.7-2.3C11,27.5,10.1,31.3,8,33.9c-0.6,0.8-1.8,0.4-1.9-0.6C5.8,27,7.9,22,9,16.8
				c-2-3.4,0.2-10.2,4.5-8.5c5.2,2.1-4.5,12.6,2,13.9c6.8,1.4,9.6-11.9,5.4-16.2C14.8-0.2,3.1,5.9,4.5,14.8c0.3,1.7,1.7,2.5,1.5,4.1
				c-0.1,1-1.2,1.6-2.1,1.2c-2.7-1.3-3.5-4-3.4-7.6C0.7,5.8,6.5,1.1,12.4,0.4c7.4-0.8,14.3,2.7,15.3,9.7
				C28.7,17.9,24.3,26.4,16.4,25.8L16.4,25.8z"/>
		</g>
	</g>
</g>
</svg>
