<?xml version="1.0" encoding="utf-8"?>
<!-- Generator: Adobe Illustrator 24.1.3, SVG Export Plug-In . SVG Version: 6.00 Build 0)  -->
<svg version="1.1" id="Layer_1" xmlns="http://www.w3.org/2000/svg" xmlns:xlink="http://www.w3.org/1999/xlink" x="0px" y="0px"
	 viewBox="0 0 423.35 431.56" enable-background="new 0 0 423.35 431.56" xml:space="preserve">
<g>
	<g>
		<path fill="#FF96C5" d="M376.31,76.26c1.67-9.95,3.33-19.91,5.03-29.86c1.45-8.47,4.13-16.73,14.9-14.37
			c9.5,2.08,9.95,9.72,8.36,18.23c-3.43,18.35-6.37,36.8-9.17,55.26c-1.55,10.24-6.58,14.79-17.19,12.98
			c-19.91-3.4-39.89-6.39-59.81-9.77c-7.29-1.24-12.03-5.52-10.94-13.41c1.1-7.99,6.8-10.56,14.22-9.55
			c10.16,1.38,20.28,3.04,32.28,4.86c-2.82-3.51-4.35-5.99-6.41-7.89c-56.54-52.29-122.05-68.43-194.57-42.34
			C81.06,66.29,38.98,119.57,30.19,195.69c-13.07,113.2,76.34,210.3,189.66,208.38c75.84-1.28,144.54-49.77,171.79-121.23
			c0.68-1.78,1.32-3.57,1.95-5.37c2.56-7.39,7.25-12.36,15.41-9.4c8.46,3.06,9.54,9.68,6.38,17.79
			c-30.18,77.47-85.78,125.99-167.9,138.42C131.72,441.79,31.58,369.03,8.57,254.58C-14.31,140.79,67.72,24.5,182.6,8.13
			c72.63-10.35,134.78,10.8,186.34,62.96c1.83,1.85,2.79,4.55,4.15,6.85C374.16,77.38,375.23,76.82,376.31,76.26z"/>
		<path fill="#FF96C5" d="M346.65,221.03c0,21.74-0.26,43.49,0.13,65.22c0.15,8.25-2.48,13.46-10.16,17.12
			c-36.1,17.2-71.89,35.04-108.13,51.94c-4.69,2.19-12.18,2.12-16.9-0.08c-35.89-16.75-71.33-34.43-107.09-51.46
			c-7.5-3.58-10.73-8.29-10.67-16.77c0.32-43.86,0.3-87.73,0.04-131.59c-0.05-7.95,2.83-12.67,9.94-16.06
			c36.09-17.23,71.92-35,108.18-51.85c4.66-2.16,12.13-1.89,16.87,0.33c36.23,16.9,72.04,34.73,108.17,51.86
			c7.34,3.48,9.85,8.33,9.73,16.11C346.44,177.54,346.65,199.28,346.65,221.03z M208.08,329.51c0.46-2.77,0.89-4.15,0.89-5.53
			c0.04-34.31,0.27-68.63-0.29-102.94c-0.06-3.64-4.01-8.78-7.52-10.55c-25.46-12.91-51.26-25.15-76.99-37.52
			c-2.46-1.18-5.22-1.76-8.76-2.92c0,36.94-0.15,72.38,0.25,107.81c0.04,3.23,2.94,7.39,5.75,9.42c4.56,3.29,10.15,5.15,15.29,7.64
			C160.23,306.3,183.75,317.71,208.08,329.51z M325.1,168.78c-9.24,4.34-16.56,8.19-24.2,11.23c-6.53,2.6-9.17,6.45-8.9,13.73
			c0.57,15.22,0.07,30.48,0.2,45.72c0.07,7.98-1.48,15.51-11.03,15.28c-9.35-0.23-10.83-7.63-10.68-15.69
			c0.27-14.16,0.08-28.34,0.08-44.03c-12,5.76-22.26,9.92-31.62,15.56c-3.63,2.19-7.32,7.7-7.43,11.79
			c-0.66,26.66-0.34,53.34-0.34,80.01c0,8.57,0,17.14,0,27.61c31.33-15.24,60.74-29.36,89.86-44.04c2.34-1.18,3.8-6.17,3.87-9.43
			c0.37-17.52,0.18-35.05,0.18-52.58C325.1,206.19,325.1,188.44,325.1,168.78z M129.78,151.28c29.61,14.39,57.57,28.08,85.68,41.47
			c2.41,1.15,6.2,1.35,8.58,0.28c11.02-4.92,21.77-10.45,34.06-16.46c-29.61-14.39-57.57-28.08-85.68-41.47
			c-2.41-1.15-6.2-1.36-8.58-0.29C152.83,139.73,142.09,145.26,129.78,151.28z M310.37,151.18c-25.35-12.29-50.18-22.42-72.95-36
			c-17.09-10.19-28.84-3.46-43.45,5.94c29.61,14.39,57.86,28.21,86.26,41.73c1.96,0.93,5.22,0.31,7.41-0.65
			C294.87,159.02,301.87,155.35,310.37,151.18z"/>
	</g>
</g>
</svg>
