<?xml version="1.0" encoding="utf-8"?>
<!-- Generator: Adobe Illustrator 24.1.2, SVG Export Plug-In . SVG Version: 6.00 Build 0)  -->
<svg version="1.1" id="Layer_1" xmlns="http://www.w3.org/2000/svg" xmlns:xlink="http://www.w3.org/1999/xlink" x="0px" y="0px"
	 viewBox="0 0 233.22 34.43" enable-background="new 0 0 233.22 34.43" xml:space="preserve">
<g>
	<g>
		<g>
			<g>
				<path fill="#FF96C5" d="M216,32.82H18.04c-8.58,0-15.57-6.98-15.57-15.57c0-8.58,6.98-15.57,15.57-15.57H216
					c8.58,0,15.57,6.98,15.57,15.57C231.57,25.83,224.59,32.82,216,32.82z M18.04,5.09c-6.7,0-12.16,5.45-12.16,12.16
					c0,6.7,5.45,12.16,12.16,12.16H216c6.7,0,12.16-5.45,12.16-12.16c0-6.7-5.45-12.16-12.16-12.16H18.04z"/>
			</g>
		</g>
		<g>
			<path fill="#FFFFFF" d="M216.33,31.11H17.71c-7.44,0-13.53-6.09-13.53-13.53v-0.66c0-7.44,6.09-13.53,13.53-13.53h198.62
				c7.44,0,13.53,6.09,13.53,13.53v0.66C229.86,25.02,223.77,31.11,216.33,31.11z"/>
		</g>
		<g>
			<path fill="#FF96C5" d="M216.31,31.32h-40V3.18h40c7.74,0,14.07,6.33,14.07,14.07v0C230.38,24.99,224.04,31.32,216.31,31.32z"/>
		</g>
		<g>
			<g>
				<path fill="#F7FAFB" d="M203,17.04c-1.8,1.8-4.73,1.8-6.54,0c-1.8-1.8-1.8-4.73,0-6.54c1.8-1.8,4.73-1.8,6.54,0
					C204.8,12.31,204.8,15.24,203,17.04z M197.43,11.48c-1.27,1.27-1.27,3.33,0,4.6c1.27,1.27,3.33,1.27,4.6,0
					c1.27-1.27,1.27-3.33,0-4.6C200.76,10.21,198.7,10.21,197.43,11.48z"/>
			</g>
			<g>
				
					<rect x="202.63" y="16.23" transform="matrix(0.7071 -0.7071 0.7071 0.7071 47.2661 148.8489)" fill="#F7FAFB" width="1.37" height="2.28"/>
			</g>
			<g>
				<path fill="#F7FAFB" d="M209.21,23.26c-0.4,0.4-1.05,0.4-1.45,0l-4.12-4.12c-0.4-0.4-0.4-1.05,0-1.45c0.4-0.4,1.05-0.4,1.45,0
					l4.12,4.12C209.61,22.21,209.61,22.86,209.21,23.26z"/>
			</g>
		</g>
	</g>
</g>
</svg>
