<?xml version="1.0" encoding="utf-8"?>
<!-- Generator: Adobe Illustrator 24.2.0, SVG Export Plug-In . SVG Version: 6.00 Build 0)  -->
<svg version="1.1" id="Layer_1" xmlns="http://www.w3.org/2000/svg" xmlns:xlink="http://www.w3.org/1999/xlink" x="0px" y="0px"
	 viewBox="0 0 807.65 386.61" enable-background="new 0 0 807.65 386.61" xml:space="preserve">
<g>
	<path fill="#F86EAC" d="M719.37,311.39c-1.68,30.86-15.82,50.89-40.88,62.89c-30.11,14.43-65.15,6.62-87.2-18.44
		c-23.4-26.59-21.33-65.24,4.79-89.61c38.38-35.81,102.11-21.86,119.15,26.28C717.63,299.3,718.37,306.68,719.37,311.39z
		 M646.46,340.81c17.28,0.06,29.2-10.77,29.21-26.53c0.01-16.01-11.42-27.9-26.89-27.95c-17.59-0.06-30.27,11.22-30.26,26.92
		C618.55,329.03,630.44,340.76,646.46,340.81z"/>
	<path fill="#F86EAC" d="M303.75,381.19c-35.78-0.09-65.23-24.37-70.65-59.37c-3.69-23.85,5.26-43.42,23.76-58.56
		c30.39-24.87,75.39-22.3,100.96,5.55c29.74,32.38,22.25,80.34-15.93,102.27C330.06,377.87,317.35,381.14,303.75,381.19z
		 M332.57,314.69c0.08-16.16-11.13-28.23-26.37-28.38c-17.29-0.18-30.7,11.4-30.75,26.54c-0.05,15.7,12.26,27.9,28.2,27.96
		C320.7,340.87,332.49,330.22,332.57,314.69z"/>
	<path fill="#F86EAC" d="M160.23,227.34c0,6.16,0,11.61,0,17.52c-51.33,0-102.43,0-153.77,0c0-6.02,0-11.73,0-17.52
		C57.88,227.34,108.87,227.34,160.23,227.34z"/>
	<path fill="#F86EAC" d="M160.29,193.72c0,6.18,0,11.42,0,17.55c-44.18,1.18-88.1,1.16-132.26-0.08c0-6.35,0-11.9,0-17.47
		C72.15,193.72,115.97,193.72,160.29,193.72z"/>
	<path fill="#F86EAC" d="M160.22,162.35c0,6.22,0,11.66,0,17.5c-37.38,0-74.49,0-111.98,0c0-5.89,0-11.58,0-17.5
		C85.57,162.35,122.69,162.35,160.22,162.35z"/>
	<path fill="#F86EAC" d="M802.42,269.24c-0.42-6.21-3.63-9.03-9.83-10.16c-3.08-0.56-6.2-0.91-9.64-1.4
		c-0.14-1.78-0.37-3.4-0.37-5.02c-0.01-24.6,0.18-49.21-0.15-73.81c-0.06-4.57-0.96-10.1-3.61-13.53
		c-27.95-36.1-60.31-68.26-91.93-101.05c-6.53-6.77-14.37-10.02-24.1-9.89c-30.95,0.42-61.91,0.32-92.87,0.42
		c-1.58,0.01-3.15,0-4.79,0c-0.12-1.59-0.27-2.58-0.27-3.57c0-9.31,0.09-18.62,0.01-27.93c-0.09-10.54-3.28-14.44-13.6-16.33
		c-4.24-0.77-8.59-1.21-12.9-1.22c-36.28-0.06-72.56,0.08-108.84,0.04C378.77,5.75,328,5.36,277.24,5.57
		c-27.78,0.12-55.56,1.11-83.34,1.91c-6.52,0.19-9.91,2.89-11.28,9.21c-1.04,4.8-1.18,9.87-1.18,14.82
		c0.01,72.33,0.13,144.65,0.18,216.98c0.01,9.09-0.12,9.09-9,10.47c-7.67,1.19-10.64,3.76-11.3,11.56c-0.6,7.08-0.75,14.3-0.1,21.37
		c1.03,11.2,5.27,14.73,16.53,14.79c13.81,0.08,27.63-0.17,41.45,0c4.06,0.05,5.58-1.26,6.56-5.35
		c15.93-66.29,84.46-77.73,125.78-51.51c19.06,12.1,30.4,29.38,34.59,51.39c0.81,4.24,2.71,5.47,7.03,5.46
		c55.43-0.15,110.86-0.08,166.29-0.07c1.64,0,3.29,0,5.22,0c0.53-2.21,1-4.11,1.45-6.02c9.29-38.87,39.94-63.73,78.69-63.82
		c40.51-0.09,71.33,23.76,80.68,62.71c1.26,5.25,4.2,7.2,9.14,7.13c18.63-0.26,37.27-0.41,55.89-0.88
		c7.9-0.2,11.65-3.61,12.15-11.62C803.17,285.86,802.98,277.5,802.42,269.24z M727.77,174.22c-6.31,0.29-12.64,0.12-18.96,0.13
		c-19.3,0.01-38.6,0-57.9,0c-23.29,0-46.59,0-69.88,0c-1.66,0-3.33,0.03-4.99-0.05c-8.6-0.37-10.24-1.49-10.39-9.99
		c-0.42-24.09-0.54-48.18-0.51-72.27c0.01-7.22,2.89-9.88,10.79-9.99c18.63-0.27,37.27-0.16,55.9-0.24
		c7.49-0.03,14.98-0.01,22.46-0.23c6.89-0.2,12.6,1.91,17.37,7.06c18.5,20.02,37.2,39.86,55.63,59.95
		c3.33,3.63,6.23,7.86,8.45,12.25C739.77,168.86,736.73,173.8,727.77,174.22z"/>
</g>
<g>
</g>
<g>
</g>
<g>
</g>
<g>
</g>
<g>
</g>
<g>
</g>
</svg>
