<?xml version="1.0" encoding="utf-8"?>
<!-- Generator: Adobe Illustrator 24.1.2, SVG Export Plug-In . SVG Version: 6.00 Build 0)  -->
<svg version="1.1" id="Layer_1" xmlns="http://www.w3.org/2000/svg" xmlns:xlink="http://www.w3.org/1999/xlink" x="0px" y="0px"
	 viewBox="0 0 1420 125" enable-background="new 0 0 1420 125" xml:space="preserve">
<path fill="#E8E8E8" d="M127.35,48.43H98.39H70.22v28.17v15.52v4.17c0,15.56,12.61,28.17,28.17,28.17h28.96
	c15.56,0,28.17-12.61,28.17-28.17v-4.17V76.61V48.43H127.35z"/>
<path fill="#81D0DD" d="M212.65,48.43H183.7h-28.17v28.17v15.52v4.17c0,15.56,12.61,28.17,28.17,28.17h28.96
	c15.56,0,28.17-12.61,28.17-28.17v-4.17V76.61V48.43H212.65z"/>
<path fill="#81D0DD" d="M42.04,48.43H13.09h-28.17v28.17v15.52v4.17c0,15.56,12.61,28.17,28.17,28.17h28.96
	c15.56,0,28.17-12.61,28.17-28.17v-4.17V76.61V48.43H42.04z"/>
<path fill="#E8E8E8" d="M297.96,48.43H269h-28.17v28.17v15.52v4.17c0,15.56,12.61,28.17,28.17,28.17h28.96
	c15.56,0,28.17-12.61,28.17-28.17v-4.17V76.61V48.43H297.96z"/>
<path fill="#81D0DD" d="M383.26,48.43H354.3h-28.17v28.17v15.52v4.17c0,15.56,12.61,28.17,28.17,28.17h28.96
	c15.56,0,28.17-12.61,28.17-28.17v-4.17V76.61V48.43H383.26z"/>
<path fill="#E8E8E8" d="M468.57,48.43h-28.96h-28.17v28.17v15.52v4.17c0,15.56,12.61,28.17,28.17,28.17h28.96
	c15.56,0,28.17-12.61,28.17-28.17v-4.17V76.61V48.43H468.57z"/>
<path fill="#81D0DD" d="M553.87,48.43h-28.96h-28.17v28.17v15.52v4.17c0,15.56,12.61,28.17,28.17,28.17h28.96
	c15.56,0,28.17-12.61,28.17-28.17v-4.17V76.61V48.43H553.87z"/>
<path fill="#E8E8E8" d="M639.17,48.43h-28.96h-28.17v28.17v15.52v4.17c0,15.56,12.61,28.17,28.17,28.17h28.96
	c15.56,0,28.17-12.61,28.17-28.17v-4.17V76.61V48.43H639.17z"/>
<path fill="#81D0DD" d="M724.48,48.43h-28.96h-28.17v28.17v15.52v4.17c0,15.56,12.61,28.17,28.17,28.17h28.96
	c15.56,0,28.17-12.61,28.17-28.17v-4.17V76.61V48.43H724.48z"/>
<path fill="#E8E8E8" d="M809.78,48.43h-28.96h-28.17v28.17v15.52v4.17c0,15.56,12.61,28.17,28.17,28.17h28.96
	c15.56,0,28.17-12.61,28.17-28.17v-4.17V76.61V48.43H809.78z"/>
<path fill="#81D0DD" d="M895.09,48.43h-28.96h-28.17v28.17v15.52v4.17c0,15.56,12.61,28.17,28.17,28.17h28.96
	c15.56,0,28.17-12.61,28.17-28.17v-4.17V76.61V48.43H895.09z"/>
<path fill="#E8E8E8" d="M980.39,48.43h-28.96h-28.17v28.17v15.52v4.17c0,15.56,12.61,28.17,28.17,28.17h28.96
	c15.56,0,28.17-12.61,28.17-28.17v-4.17V76.61V48.43H980.39z"/>
<path fill="#81D0DD" d="M1065.7,48.43h-28.96h-28.17v28.17v15.52v4.17c0,15.56,12.61,28.17,28.17,28.17h28.96
	c15.56,0,28.17-12.61,28.17-28.17v-4.17V76.61V48.43H1065.7z"/>
<path fill="#E8E8E8" d="M1151,48.43h-28.96h-28.17v28.17v15.52v4.17c0,15.56,12.61,28.17,28.17,28.17H1151
	c15.56,0,28.17-12.61,28.17-28.17v-4.17V76.61V48.43H1151z"/>
<path fill="#81D0DD" d="M1236.3,48.43h-28.96h-28.17v28.17v15.52v4.17c0,15.56,12.61,28.17,28.17,28.17h28.96
	c15.56,0,28.17-12.61,28.17-28.17v-4.17V76.61V48.43H1236.3z"/>
<path fill="#E8E8E8" d="M1321.61,48.43h-28.96h-28.17v28.17v15.52v4.17c0,15.56,12.61,28.17,28.17,28.17h28.96
	c15.56,0,28.17-12.61,28.17-28.17v-4.17V76.61V48.43H1321.61z"/>
<path fill="#81D0DD" d="M1406.91,48.43h-28.96h-28.17v28.17v15.52v4.17c0,15.56,12.61,28.17,28.17,28.17h28.96
	c15.56,0,28.17-12.61,28.17-28.17v-4.17V76.61V48.43H1406.91z"/>
<polygon fill="#97E3F0" points="70.22,48.43 146.33,0.52 70.22,0.52 -15.09,48.43 "/>
<polygon fill="#FFFFFF" points="70.22,48.43 155.52,48.43 222.04,0.52 146.33,0.52 "/>
<polygon fill="#97E3F0" points="155.52,48.43 240.83,48.43 297.37,0.52 222.04,0.52 "/>
<polygon fill="#FFFFFF" points="240.83,48.43 326.13,48.43 372.3,0.52 297.37,0.52 "/>
<polygon fill="#97E3F0" points="326.13,48.43 411.43,48.43 447.43,0.52 372.3,0.52 "/>
<polygon fill="#FFFFFF" points="411.43,48.43 496.74,48.43 522.17,0.52 447.43,0.52 "/>
<polygon fill="#97E3F0" points="496.74,48.43 582.04,48.43 597.43,0.52 522.17,0.52 "/>
<polygon fill="#FFFFFF" points="582.04,48.43 667.35,48.43 672.43,0.52 597.43,0.52 "/>
<polygon fill="#97E3F0" points="667.35,48.43 752.65,48.43 748.35,0.52 672.43,0.52 "/>
<polygon fill="#FFFFFF" points="752.65,48.43 837.96,48.43 822.83,0.52 748.35,0.52 "/>
<polygon fill="#97E3F0" points="837.96,48.43 923.26,48.43 898.35,0.52 822.83,0.52 "/>
<polygon fill="#FFFFFF" points="923.26,48.43 1008.57,48.43 973.74,0.52 898.35,0.52 "/>
<polygon fill="#97E3F0" points="1008.57,48.43 1093.87,48.43 1047.89,0.52 973.74,0.52 "/>
<polygon fill="#FFFFFF" points="1093.87,48.43 1179.17,48.43 1124,0.52 1047.89,0.52 "/>
<polygon fill="#97E3F0" points="1179.17,48.43 1264.48,48.43 1198.93,0.52 1124,0.52 "/>
<polygon fill="#FFFFFF" points="1264.48,48.43 1349.78,48.43 1273.61,0.52 1198.93,0.52 "/>
<polygon fill="#97E3F0" points="1349.78,48.43 1435.09,48.43 1349.78,0.52 1273.61,0.52 "/>
</svg>
