<?xml version="1.0" encoding="utf-8"?>
<!-- Generator: Adobe Illustrator 25.0.0, SVG Export Plug-In . SVG Version: 6.00 Build 0)  -->
<svg version="1.1" id="Layer_1" xmlns="http://www.w3.org/2000/svg" xmlns:xlink="http://www.w3.org/1999/xlink" x="0px" y="0px"
	 viewBox="0 0 62.1 80" style="enable-background:new 0 0 62.1 80;" xml:space="preserve">
<style type="text/css">
	.st0{fill:none;stroke:#FFFFFF;stroke-width:2;stroke-miterlimit:10;}
	.st1{fill:#FFFFFF;}
</style>
<path class="st0" d="M32.3,67c0,0,0.7,8.6,9.6,11.7"/>
<path class="st1" d="M60.9,30.6C60.9,14.1,47.5,0.7,31,0.7S1.2,14.1,1.2,30.6c0,16,12.6,29,28.4,29.8c0,0,0,0-0.1,0.1l-1.4,7.2h8.3
	l-1.1-7.5c0,0,0,0,0,0C49.8,58,60.9,45.6,60.9,30.6z M50.8,40.2c-0.3,0.7-1,1.1-1.7,1.4c-0.7,0.3-1.4,0.6-2.2,0.6
	c-1.1,0.1-1.6,0.5-1.8,1.6c-0.2,1.1-0.5,1.2-1.5,1.1c-0.3,0-0.5-0.1-0.8-0.1c-2.1-0.4-4.1-0.2-5.8,1.2c-0.3,0.3-0.7,0.5-1.1,0.7
	c-3,1.9-6,2.1-9.1,0.3c-0.8-0.5-1.6-1.1-2.5-1.6c-0.7-0.4-1.4-0.7-2.2-0.8c-1.3-0.2-2.5,0.1-3.7,0.2c-0.6,0.1-1.3-0.1-1.3-0.8
	c-0.1-1.6-1.1-2-2.4-2.1c-0.6-0.1-1.2-0.3-1.8-0.6c-0.6-0.3-1.2-0.6-1.5-1.3c0-0.2,0-0.4,0-0.6c0.3-0.3,0.5-0.5,0.9-0.6
	c3.2-0.6,5.4-2.7,7-5.4c1.4-2.3,1.2-2.8-1.4-3.7c-0.1-0.1-0.3-0.1-0.4-0.2c-0.5-0.2-1.1-0.5-1.5-0.9c-1.1-1-0.5-2.4,0.9-2.7
	c1-0.2,1.8,0.4,2.8,0.5c0.6,0.1,0.9-0.1,0.8-0.8c-0.2-1.7-0.2-3.5-0.1-5.2c0.2-3.3,1.8-5.9,4.6-7.5c4-2.4,8.3-2.4,12.3,0
	c2.5,1.5,4.2,3.7,4.5,6.8c0.2,2,0.1,3.9,0,5.9c-0.1,0.9,0.1,1,1,0.8c1.1-0.2,1.9-0.8,3-0.3c0.6,0.3,1.1,0.8,1.1,1.4
	c0,0.4-0.3,0.8-0.6,1.1c-0.5,0.4-1.2,0.7-1.8,0.9c-0.5,0.2-1,0.3-1.4,0.6c-1,0.4-1.2,1-0.8,2c1.5,3.3,3.8,5.8,7.5,6.6
	c0.4,0.1,0.8,0.3,1.1,0.7C50.8,39.8,50.8,40,50.8,40.2z"/>
</svg>
