<?xml version="1.0" encoding="utf-8"?>
<!-- Generator: Adobe Illustrator 25.0.0, SVG Export Plug-In . SVG Version: 6.00 Build 0)  -->
<svg version="1.1" id="Layer_1" xmlns="http://www.w3.org/2000/svg" xmlns:xlink="http://www.w3.org/1999/xlink" x="0px" y="0px"
	 viewBox="0 0 62.1 80" style="enable-background:new 0 0 62.1 80;" xml:space="preserve">
<style type="text/css">
	.st0{fill:none;stroke:#FFFFFF;stroke-width:2;stroke-miterlimit:10;}
	.st1{fill:#FFFFFF;}
</style>
<path class="st0" d="M32.3,67c0,0,0.7,8.6,9.6,11.7"/>
<path class="st1" d="M60.9,30.6C60.9,14.1,47.5,0.7,31,0.7S1.2,14.1,1.2,30.6c0,16,12.6,29,28.4,29.8c0,0,0,0-0.1,0.1l-1.4,7.2h8.3
	l-1.1-7.5c0,0,0,0,0,0C49.8,58,60.9,45.6,60.9,30.6z M48.8,27.5c-3.6,0-6.9-1.1-9.8-3.3c0,0.1,0,0.1,0,0.2c0,4.1,0,8.2,0,12.4
	c0,0.6,0,1.3,0,1.9c-0.1,3.1-1.2,5.8-3.4,8.1c-1.8,1.8-4,3-6.5,3.5c-5.8,1-11.2-2-13.4-7.1c-0.5-1.2-0.8-2.4-0.9-3.6
	c-0.6-6,3.4-11.3,8.9-12.8c1.3-0.4,2.7-0.5,4.1-0.4c0.3,0,0.7,0.1,1,0.1c0,2.2,0,4.3,0,6.4c-0.1,0-0.2,0-0.2-0.1
	c-3.1-0.9-6.3,1-7.1,4.1c-0.8,3.1,1.1,6.3,4.2,7c3.1,0.8,6.2-1.1,7-4.2c0.1-0.5,0.2-0.9,0.2-1.4c0-2.5,0-5.1,0-7.6
	c0-6.3,0-12.7,0-19c0-0.1,0-0.2,0-0.3c2.1,0,4.2,0,6.3,0c0.1,2.7,1,5,2.9,6.9c1.9,1.9,4.2,2.8,6.9,2.8
	C48.8,23.2,48.8,25.3,48.8,27.5z"/>
</svg>
