<?xml version="1.0" encoding="utf-8"?>
<!-- Generator: Adobe Illustrator 25.0.0, SVG Export Plug-In . SVG Version: 6.00 Build 0)  -->
<svg version="1.1" id="Layer_1" xmlns="http://www.w3.org/2000/svg" xmlns:xlink="http://www.w3.org/1999/xlink" x="0px" y="0px"
	 viewBox="0 0 62.1 80" style="enable-background:new 0 0 62.1 80;" xml:space="preserve">
<style type="text/css">
	.st0{fill:none;stroke:#FFFFFF;stroke-width:2;stroke-miterlimit:10;}
	.st1{fill:#FFFFFF;}
</style>
<path class="st0" d="M20.2,78.7c8.9-3.1,9.6-11.7,9.6-11.7"/>
<path class="st1" d="M60.9,30.6C60.9,14.1,47.5,0.7,31,0.7S1.2,14.1,1.2,30.6c0,15.1,11.1,27.5,25.6,29.5c0,0,0,0,0,0l-1.1,7.5H34
	l-1.4-7.2c0,0,0,0-0.1-0.1C48.3,59.6,60.9,46.6,60.9,30.6z M49.6,19.9c0,0.1,0,0.3-0.2,0.6c-0.9,1.2-1.8,2.2-2.9,3.1
	c-0.2,0.1-0.4,0.3-0.4,0.5c0,6.1-1.6,12.1-6,16.5c-5.6,5.6-14.1,7.1-21.6,5c-1.5-0.4-2.8-1-4.2-1.7c-0.4-0.2-0.9-0.5-1.3-0.8
	c-0.1-0.1-0.2-0.2-0.1-0.2c0.1,0,0.2,0,0.5,0c2.1,0.2,4.3-0.1,6.2-0.8c1.1-0.4,3.4-1.1,4.1-2.2c0,0,0,0,0,0
	c-0.3-0.1-0.5-0.1-0.8-0.1c-2-0.6-4.8-1.6-6-5c-0.1-0.2,0-0.3,0.2-0.3c1.7,0.1,2.3,0,2.9-0.1c-0.3-0.1-0.7-0.2-1-0.3
	c-2.6-1-4.4-3.5-4.8-6.2c0-0.3-0.1-0.6,0-0.9c0-0.2,0.1-0.3,0.3-0.2c1.3,0.7,2.8,0.8,2.9,0.8c-0.3-0.3-0.6-0.5-0.9-0.8
	c-2.2-2.1-3.1-6.4-1.3-9.1c0.1-0.2,0.2-0.2,0.4,0c4.1,4.6,9.1,6.8,15.1,7.7c0.2,0,0.2,0,0.2-0.2c-0.2-1.1-0.2-2.1,0.1-3.2
	c0.3-1.1,0.8-2.1,1.5-3c0.7-0.8,1.5-1.5,2.5-2c1-0.5,2-0.8,3.1-0.9c1.1-0.1,2.2,0.1,3.3,0.5c0.8,0.3,1.5,0.8,2.1,1.3
	c0.1,0.1,0.3,0.2,0.4,0.4c0.1,0.1,0.2,0.1,0.3,0.1c1.5-0.4,3-0.9,4.4-1.7c0.1,0,0.1,0,0.2,0c0.1,0,0,0.1,0,0.2
	c-0.3,0.8-0.7,1.6-1.2,2.2c-0.4,0.4-1.2,1.5-1.8,1.6c1.3-0.2,2.5-0.5,3.7-1.1C49.6,19.8,49.6,19.8,49.6,19.9
	C49.6,19.9,49.6,19.9,49.6,19.9z"/>
</svg>
