<?xml version="1.0" encoding="utf-8"?>
<!-- Generator: Adobe Illustrator 24.1.2, SVG Export Plug-In . SVG Version: 6.00 Build 0)  -->
<svg version="1.1" id="Layer_1" xmlns="http://www.w3.org/2000/svg" xmlns:xlink="http://www.w3.org/1999/xlink" x="0px" y="0px"
	 viewBox="0 0 28.18 32.46" enable-background="new 0 0 28.18 32.46" xml:space="preserve">
<path fill="#FFFFFF" stroke="#FFFFFF" stroke-width="1.5" stroke-miterlimit="10" d="M27.17,28.71c-0.23-2.75-1.23-5.19-2.99-7.31
	c-1.53-1.84-3.43-3.16-5.68-3.98c-0.04-0.01-0.08-0.03-0.14-0.05c0.05-0.04,0.08-0.06,0.12-0.08c2.05-1.29,3.39-3.1,3.86-5.48
	c0.6-3.02-0.23-5.65-2.44-7.82c-1.31-1.29-2.92-2.02-4.74-2.27c-0.19-0.03-0.38-0.04-0.57-0.07c-0.34,0-0.67,0-1.01,0
	C13.3,1.69,13,1.72,12.71,1.77c-1.86,0.31-3.45,1.15-4.74,2.52c-1.7,1.81-2.48,3.97-2.28,6.43c0.23,2.84,1.6,5.01,3.99,6.55
	c0.04,0.03,0.08,0.05,0.15,0.1c-0.06,0.02-0.1,0.04-0.15,0.06c-4.4,1.56-7.68,5.4-8.5,10.01c-0.1,0.57-0.13,1.16-0.2,1.74
	c-0.01,0.07-0.02,0.14-0.02,0.2c0,0.17,0,0.34,0,0.5c0.06,0.14,0.1,0.29,0.18,0.43c0.13,0.22,0.36,0.32,0.59,0.4
	c0.11,0,0.22,0,0.33,0c0.31-0.09,0.57-0.24,0.69-0.55c0.06-0.17,0.09-0.36,0.1-0.55c0.02-0.89,0.13-1.77,0.35-2.64
	c1.56-6.04,7.74-9.7,13.76-8.07c3.73,1.01,6.29,3.39,7.69,6.99c0.47,1.2,0.68,2.45,0.69,3.74c0,0.36,0.09,0.69,0.4,0.91
	c0.12,0.08,0.26,0.12,0.39,0.18c0.11,0,0.22,0,0.33,0c0.22-0.08,0.44-0.17,0.57-0.38c0.08-0.14,0.13-0.3,0.2-0.45
	c0-0.16,0-0.32,0-0.47C27.21,29.17,27.19,28.94,27.17,28.71z M14.07,16.8c-3.64,0-6.59-3-6.59-6.69c0-3.6,2.79-6.53,6.29-6.69
	c0,0,0,0,0.01,0c0.05,0,0.11,0,0.16-0.01c0.03,0,0.07,0,0.1,0c0.01,0,0.02,0,0.02,0c0.01,0,0.01,0,0.02,0c0.1,0,0.21,0,0.31,0.01
	c0.01,0,0.01,0,0.02,0c0.05,0,0.1,0.01,0.15,0.01c0,0,0,0,0,0c0.05,0,0.11,0.01,0.16,0.01c0,0,0.01,0,0.01,0
	c0.05,0.01,0.1,0.01,0.15,0.02c0,0,0.01,0,0.01,0c1.44,0.19,2.82,0.85,3.85,1.94c1.23,1.3,1.85,2.84,1.88,4.35
	c0.01,0.12,0.01,0.23,0.01,0.35C20.66,13.8,17.71,16.8,14.07,16.8z"/>
</svg>
