<?xml version="1.0" encoding="utf-8"?>
<!-- Generator: Adobe Illustrator 24.2.0, SVG Export Plug-In . SVG Version: 6.00 Build 0)  -->
<svg version="1.1" id="Layer_1" xmlns="http://www.w3.org/2000/svg" xmlns:xlink="http://www.w3.org/1999/xlink" x="0px" y="0px"
	 viewBox="0 0 410.87 451.86" enable-background="new 0 0 410.87 451.86" xml:space="preserve">
<g>
	<path fill="#F86EAC" d="M207.54,32.58c55.08,0,99.73,44.65,99.73,99.73s-44.65,99.73-99.73,99.73s-99.73-44.65-99.73-99.73
		S152.47,32.58,207.54,32.58 M207.54,2.58c-34.65,0-67.23,13.49-91.73,38s-38,57.08-38,91.73s13.49,67.23,38,91.73
		s57.08,38,91.73,38s67.23-13.49,91.73-38c24.5-24.5,38-57.08,38-91.73s-13.49-67.23-38-91.73C274.77,16.07,242.2,2.58,207.54,2.58
		L207.54,2.58z"/>
</g>
<path fill="none" stroke="#F86EAC" stroke-width="30" stroke-linecap="round" stroke-miterlimit="10" d="M19.22,434.91
	c0,0,7.48-173.74,187.91-185.74"/>
<path fill="none" stroke="#F86EAC" stroke-width="30" stroke-linecap="round" stroke-miterlimit="10" d="M393.11,434.91
	c0,0-7.48-173.74-187.91-185.74"/>
<g>
</g>
<g>
</g>
<g>
</g>
<g>
</g>
<g>
</g>
<g>
</g>
</svg>
