<?xml version="1.0" encoding="utf-8"?>
<!-- Generator: Adobe Illustrator 24.1.2, SVG Export Plug-In . SVG Version: 6.00 Build 0)  -->
<svg version="1.1" id="Layer_1" xmlns="http://www.w3.org/2000/svg" xmlns:xlink="http://www.w3.org/1999/xlink" x="0px" y="0px"
	 viewBox="0 0 49 46.77" enable-background="new 0 0 49 46.77" xml:space="preserve">
<g>
	<path fill="#FF96C5" d="M24.54,1.69c6.54,0,13.07,0,19.61,0c2.54,0,4.3,1.76,4.3,4.31c0,10.88,0,21.77,0,32.65
		c0,2.58-1.75,4.33-4.32,4.33c-13.08,0-26.17,0-39.25,0c-2.58,0-4.32-1.75-4.32-4.33c0-10.88,0-21.77,0-32.65
		c0-2.55,1.75-4.31,4.3-4.31C11.41,1.69,17.98,1.69,24.54,1.69z M46.6,35.98c0-9.11,0-18.19,0-27.29c-14.74,0-29.47,0-44.21,0
		c0,9.11,0,18.19,0,27.29C17.12,35.98,31.84,35.98,46.6,35.98z M34.04,6.99c1.24,0,2.43,0,3.63,0c0-1.21,0-2.39,0-3.57
		c-1.22,0-2.42,0-3.63,0C34.04,4.62,34.04,5.79,34.04,6.99z M7.46,3.41c-1.24,0-2.43,0-3.63,0c0,1.21,0,2.38,0,3.58
		c1.22,0,2.42,0,3.63,0C7.46,5.79,7.46,4.62,7.46,3.41z M45.16,6.99c0-1.22,0-2.4,0-3.59c-1.22,0-2.41,0-3.62,0c0,1.2,0,2.38,0,3.59
		C42.74,6.99,43.93,6.99,45.16,6.99z M22.56,7c0-1.22,0-2.4,0-3.59c-1.22,0-2.42,0-3.61,0c0,1.22,0,2.4,0,3.59
		C20.17,7,21.34,7,22.56,7z M26.43,7.02c1.17,0,2.32,0,3.47-0.01c0.06,0,0.17-0.14,0.17-0.21c0.01-1.12,0.01-2.25,0.01-3.39
		c-1.24,0-2.44,0-3.65,0C26.43,4.62,26.43,5.79,26.43,7.02z M22.56,41.38c0-1.22,0-2.4,0-3.59c-1.22,0-2.42,0-3.61,0
		c0,1.22,0,2.4,0,3.59C20.16,41.38,21.34,41.38,22.56,41.38z M30.06,41.38c0-1.21,0-2.4,0-3.59c-1.22,0-2.41,0-3.61,0
		c0,1.21,0,2.4,0,3.59C27.66,41.38,28.85,41.38,30.06,41.38z M3.85,37.78c0,1.23,0,2.41,0,3.58c1.23,0,2.42,0,3.61,0
		c0-1.21,0-2.38,0-3.58C6.24,37.78,5.05,37.78,3.85,37.78z M34.06,37.79c0,1.23,0,2.41,0,3.58c1.23,0,2.41,0,3.61,0
		c0-1.21,0-2.38,0-3.58C36.46,37.79,35.27,37.79,34.06,37.79z M45.16,41.38c0-1.21,0-2.4,0-3.6c-1.22,0-2.41,0-3.61,0
		c0,1.21,0,2.39,0,3.6C42.76,41.38,43.93,41.38,45.16,41.38z M11.38,7c1.22,0,2.41,0,3.6,0c0-1.21,0-2.4,0-3.58c-1.22,0-2.4,0-3.6,0
		C11.38,4.62,11.38,5.79,11.38,7z M15,37.79c-1.23,0-2.42,0-3.61,0c0,1.21,0,2.38,0,3.58c1.21,0,2.4,0,3.61,0
		C15,40.17,15,38.99,15,37.79z"/>
	<path fill="#FF96C5" d="M24.48,31.86c-5.34-0.01-9.59-4.27-9.57-9.61c0.02-5.22,4.34-9.45,9.63-9.43c5.33,0.02,9.57,4.28,9.55,9.59
		C34.07,27.63,29.76,31.87,24.48,31.86z M21.8,22.33c0,1.35-0.01,2.7,0.01,4.05c0,0.21,0.08,0.51,0.23,0.6
		c0.14,0.08,0.45-0.01,0.63-0.12c2.15-1.34,4.28-2.69,6.42-4.04c0.54-0.34,0.54-0.63,0-0.97c-2.14-1.35-4.28-2.7-6.42-4.04
		c-0.18-0.11-0.48-0.2-0.63-0.12c-0.15,0.08-0.23,0.39-0.23,0.6C21.79,19.64,21.8,20.99,21.8,22.33z"/>
</g>
</svg>
