<?xml version="1.0" encoding="utf-8"?>
<!-- Generator: Adobe Illustrator 24.1.2, SVG Export Plug-In . SVG Version: 6.00 Build 0)  -->
<svg version="1.1" id="Layer_1" xmlns="http://www.w3.org/2000/svg" xmlns:xlink="http://www.w3.org/1999/xlink" x="0px" y="0px"
	 viewBox="0 0 82.7 27.7" enable-background="new 0 0 82.7 27.7" xml:space="preserve">
<g>
	<path fill="#035098" d="M58.4,26.56c0.69-1.66,1.33-3.2,1.97-4.74c2.53-6.04,5.09-12.06,7.57-18.12c0.74-1.81,1.94-2.63,3.86-2.57
		c1.37,0.05,2.75,0.05,4.12-0.01c0.66-0.03,0.85,0.25,0.96,0.82c1.56,7.57,3.14,15.14,4.71,22.7c0.4,1.92,0.41,1.92-1.56,1.92
		c-1.12,0-2.25-0.05-3.36,0.02c-0.67,0.04-0.86-0.25-0.95-0.82c-0.14-0.83-0.34-1.64-0.48-2.47c-0.07-0.41-0.22-0.57-0.65-0.57
		c-2.47,0.02-4.93,0.02-7.4,0c-0.43,0-0.59,0.21-0.71,0.55c-0.33,0.92-0.69,1.83-1,2.76c-0.12,0.37-0.29,0.54-0.71,0.53
		C62.71,26.55,60.64,26.56,58.4,26.56z M72.13,8.29c-0.13,0.12-0.19,0.15-0.21,0.2c-1.05,2.83-2.08,5.67-3.15,8.49
		c-0.2,0.53,0.03,0.55,0.44,0.55c1.37-0.01,2.74-0.03,4.12,0.01c0.58,0.02,0.69-0.14,0.56-0.71C73.28,14.01,72.72,11.19,72.13,8.29z
		"/>
	<path fill="#035098" d="M47.41,26.91c-2.24,0.05-4.4-0.36-6.53-1c-0.57-0.17-0.81-0.41-0.67-1.07c0.29-1.43,0.52-2.87,0.72-4.31
		c0.08-0.56,0.23-0.64,0.73-0.39c1.98,1.01,4.08,1.54,6.31,1.5c0.96-0.01,1.9-0.15,2.76-0.62c1.56-0.86,1.73-2.41,0.37-3.55
		c-0.95-0.8-2.1-1.28-3.19-1.85c-0.92-0.48-1.78-1.05-2.59-1.7c-3.73-2.99-2.68-7.44-0.58-9.76c2.2-2.41,5.09-3.25,8.21-3.49
		c2.15-0.17,4.24,0.19,6.29,0.84c0.44,0.14,0.63,0.3,0.53,0.82c-0.27,1.43-0.5,2.87-0.69,4.31C59,7.16,58.85,7.22,58.39,7.01
		c-1.74-0.8-3.57-1.11-5.48-0.99c-0.82,0.05-1.6,0.24-2.31,0.69c-1.13,0.73-1.24,1.91-0.23,2.81c0.83,0.73,1.82,1.21,2.8,1.69
		c1.59,0.78,3.13,1.65,4.29,3.03c2.26,2.72,1.8,7.15-1,9.73c-2.17,2-4.84,2.71-7.7,2.93C48.31,26.94,47.86,26.91,47.41,26.91z"/>
	<path fill="#035098" d="M16.48,13.78c0.34,1.43,0.67,2.86,1.06,4.52c0.59-1.54,1.1-2.87,1.6-4.2c1.52-4.09,3.03-8.18,4.53-12.29
		c0.19-0.53,0.46-0.71,1.03-0.7c1.82,0.04,3.64,0.03,5.47,0.01c0.54-0.01,0.75,0.03,0.49,0.67c-3.21,7.82-6.39,15.64-9.58,23.47
		c-0.53,1.29-0.54,1.28-1.96,1.28c-1.63,0-3.25-0.01-4.88,0.01c-0.4,0-0.66-0.05-0.78-0.52c-1.88-7.18-3.77-14.35-5.66-21.52
		c3.05,1.7,5.47,4.07,7.35,7.01C15.62,12.26,15.85,13.14,16.48,13.78z"/>
	<path fill="#035098" d="M32.76,26.56c-0.92,0-1.85-0.02-2.77,0.01c-0.47,0.02-0.55-0.14-0.48-0.59c1.03-6.21,2.03-12.43,3.04-18.65
		c0.3-1.85,0.64-3.7,0.88-5.55c0.08-0.57,0.3-0.66,0.8-0.66c1.74,0.02,3.47,0.03,5.21,0c0.59-0.01,0.69,0.18,0.6,0.72
		c-0.77,4.58-1.51,9.17-2.26,13.75c-0.54,3.34-1.09,6.69-1.6,10.03c-0.1,0.69-0.29,1.03-1.07,0.95
		C34.33,26.5,33.54,26.56,32.76,26.56z"/>
	<path fill="#F5A604" d="M16.48,13.78c-0.63-0.64-0.86-1.53-1.34-2.27c-1.88-2.94-4.3-5.3-7.35-7.01C5.91,3.31,3.85,2.54,1.73,1.9
		C1.52,1.83,1.31,1.76,1.09,1.7C0.94,1.65,0.86,1.56,0.89,1.4c0.03-0.16,0.14-0.24,0.29-0.24c0.34-0.01,0.67-0.01,1.01-0.01
		c2.99,0,5.99-0.01,8.98,0c2.31,0.01,3.05,0.61,3.5,2.85c0.6,3.01,1.2,6.03,1.79,9.05C16.5,13.28,16.47,13.54,16.48,13.78z"/>
</g>
</svg>
