<?xml version="1.0" encoding="utf-8"?>
<!-- Generator: Adobe Illustrator 24.1.2, SVG Export Plug-In . SVG Version: 6.00 Build 0)  -->
<svg version="1.1" id="Layer_1" xmlns="http://www.w3.org/2000/svg" xmlns:xlink="http://www.w3.org/1999/xlink" x="0px" y="0px"
	 viewBox="0 0 62.67 50.65" enable-background="new 0 0 62.67 50.65" xml:space="preserve">
<g>
	<path fill="#ED1C23" d="M31.35,0.55c10.13,0,20.27,0,30.4-0.01c0.43,0,0.49,0.12,0.49,0.51c-0.01,16.14-0.01,32.28,0,48.42
		c0,0.4-0.07,0.5-0.49,0.5c-20.25-0.01-40.5-0.01-60.75,0c-0.45,0-0.52-0.12-0.52-0.53c0.01-16.12,0.01-32.24,0-48.36
		c0-0.42,0.08-0.53,0.52-0.53C11.12,0.55,21.23,0.55,31.35,0.55z M18.47,18.51c1.59,0.46,3.17,0.85,4.78,1.09
		c0.37,0.06,0.53,0.17,0.53,0.6c-0.03,3.17-0.02,6.35-0.01,9.52c0,1.6,1.17,2.77,2.76,2.77c3.27,0,6.54-0.05,9.81,0.03
		c1.41,0.03,2.96-1.15,2.92-2.96c-0.04-2.13-0.01-4.26-0.01-6.39c0-1.06-0.01-2.13,0-3.19c0-0.33-0.04-0.47-0.41-0.3
		c-0.34,0.16-0.7,0.29-1.07,0.38c-0.33,0.09-0.44,0.24-0.43,0.59c0.02,1.6,0,3.19,0.02,4.79c0,0.38-0.11,0.47-0.48,0.47
		c-3.59-0.01-7.19-0.01-10.78,0c-0.37,0-0.49-0.1-0.48-0.48c0.02-1.39,0.01-2.78,0.01-4.16c0-1.35,0-1.31,1.34-1.19
		c3.62,0.35,7.21,0.23,10.71-0.85c2.91-0.89,5.37-2.45,7.19-4.94c0.22-0.3,0.22-0.43-0.15-0.61c-2.94-1.4-5.88-2.82-8.81-4.24
		c-0.37-0.18-0.51-0.13-0.7,0.25c-1.26,2.57-2.95,4.81-5.2,6.61c-0.28,0.22-0.51,0.26-0.82,0.11c-0.58-0.27-1.07-0.66-1.48-1.14
		c-0.39-0.46-0.75-0.94-1.13-1.42c-0.33,0.29-0.49,0.72-0.88,0.97c-0.03-0.09-0.06-0.14-0.06-0.19c0-2.91,0-5.82-0.01-8.73
		c0-0.32,0.14-0.37,0.41-0.37c3.65,0.01,7.3,0.01,10.95,0c0.31,0,0.38,0.11,0.37,0.39c-0.01,0.97-0.01,1.94,0,2.91
		c0,0.16-0.07,0.36,0.14,0.46c0.57,0.26,1.12,0.59,1.76,0.78c0-1.43,0.01-2.8,0-4.17c-0.01-1.66-1.22-2.86-2.89-2.86
		c-3.23,0-6.46,0-9.7,0c-1.73,0-2.9,1.17-2.9,2.89c0,3.44,0,6.88,0.01,10.32c0,0.34-0.1,0.54-0.39,0.74
		C21.9,18.03,20.3,18.64,18.47,18.51z M2.67,42.54C2.67,42.54,2.67,42.54,2.67,42.54c0,0.4-0.01,0.8,0.01,1.2
		c0.07,1.28,0.9,2.37,2.06,2.73c1.15,0.35,2.26-0.02,3.06-1.08c0.19-0.25,0.38-0.32,0.67-0.31c1.01,0.01,2.02,0.01,3.02,0
		c1,0,1.7-0.57,1.9-1.54c0.15-0.75,0.07-1.52,0.09-2.27c0-0.18-0.06-0.26-0.25-0.3c-0.91-0.17-1.09-0.03-1.09,0.88
		c0,0.21,0,0.42,0,0.63c-0.01,0.3,0.02,0.61-0.05,0.91c-0.13,0.59-0.63,0.46-1.02,0.43c-0.41-0.04-0.16-0.39-0.17-0.58
		c-0.02-0.57-0.02-1.14,0.03-1.71c0.04-0.47-0.15-0.58-0.58-0.56C9.48,41,9.64,40.88,9.62,41.69c-0.01,0.27,0,0.53,0,0.8
		c-0.01,0.3,0.02,0.6-0.06,0.91C9.41,43.91,9,43.82,8.62,43.81c-0.44-0.01-0.24-0.36-0.25-0.55c-0.03-0.61-0.05-1.22,0-1.82
		c0.04-0.52-0.25-0.5-0.59-0.47c-0.31,0.03-0.75-0.2-0.73,0.45c0.03,0.83,0.07,1.67-0.05,2.5c-0.17,1.11-1.13,1.74-2.05,1.32
		c-0.68-0.31-0.92-0.93-0.95-1.63c-0.03-0.72-0.04-1.45,0-2.17c0.04-0.63-0.39-0.46-0.71-0.48c-0.34-0.02-0.71-0.08-0.64,0.49
		C2.71,41.81,2.67,42.18,2.67,42.54z M34.62,45.16c-0.12,0.28-0.37,0.28-0.61,0.35c-0.46,0.14-0.17,0.53-0.23,0.8
		c-0.05,0.26,0.16,0.25,0.33,0.25c0.89,0.01,1.53-0.37,1.81-1.18c0.11-0.3,0.27-0.3,0.5-0.3c1.2,0,2.39,0,3.59,0
		c0.3,0,0.6-0.01,0.9-0.12c0.97-0.35,1.46-1.36,1.21-2.53c-0.2-0.93-1.17-1.57-2.22-1.47c-1.2,0.11-1.86,0.81-1.89,2.01
		c-0.02,0.85-0.02,0.85-0.89,0.82c-1.02-0.03-1.02-0.03-1.14-1.02c-0.13-1.12-1.02-1.89-2.09-1.81c-1.21,0.09-1.95,0.9-1.94,2.1
		c0.01,1.15,0.81,1.97,1.95,2.02C34.13,45.1,34.38,45.01,34.62,45.16z M56.6,43.77c-0.38,0.12-0.76,0.02-1.14,0.04
		c-0.79,0.04-0.79,0.03-0.8-0.75c-0.03-1.58-1.47-2.52-2.9-1.91c-0.87,0.38-1.33,1.3-1.14,2.31c0.18,0.96,0.94,1.58,1.98,1.63
		c0.21,0.01,0.55-0.12,0.59,0.11c0.04,0.24-0.3,0.27-0.52,0.31c-0.02,0-0.04,0-0.06,0c-0.38,0.16-0.13,0.49-0.19,0.73
		c-0.03,0.14-0.03,0.28,0.2,0.32c0.66,0.12,1.62-0.31,1.84-0.97c0.17-0.5,0.45-0.54,0.89-0.53c1.18,0.02,2.35,0.03,3.53,0
		c0.87-0.03,1.53-0.58,1.74-1.39c0.22-0.85,0.12-1.65-0.6-2.23c-0.75-0.6-1.62-0.64-2.47-0.25c-0.85,0.4-1.06,1.18-1.02,2.05
		C56.54,43.43,56.58,43.59,56.6,43.77z M17.6,42.19c0.81,0,1.52,0,2.22,0c0.81,0,1.36,0.39,1.71,1.11c0.19,0.4,0.1,0.53-0.35,0.53
		c-1.52-0.02-3.04-0.02-4.56-0.02c-0.75,0-0.95-0.19-0.96-0.93c0-1.06-0.01-2.13,0-3.19c0-0.31-0.07-0.47-0.41-0.43
		c-0.19,0.02-0.38,0.01-0.57,0c-0.28-0.02-0.36,0.11-0.36,0.37c0.01,1.35-0.02,2.7,0.01,4.05c0.02,0.9,0.55,1.39,1.46,1.41
		c0.66,0.02,1.33,0,1.99,0c1.62,0,3.23,0,4.85-0.01c0.18,0,0.44,0.12,0.46-0.24c0.09-1.77-0.46-3.84-3.02-3.89
		c-0.02,0-0.05-0.05-0.1-0.1c0.31-0.48,0.63-0.96,0.96-1.48c-0.47-0.12-0.9-0.03-1.33-0.06c-0.15-0.01-0.24,0.07-0.32,0.2
		C18.75,40.36,18.2,41.23,17.6,42.19z M25.48,42.61c0,0.32,0,0.65,0,0.97c0.01,1.57,1.07,2.84,2.5,2.98
		c1.54,0.15,2.77-0.8,3.11-2.38c0.17-0.79,0.08-1.59,0.08-2.39c0.01-0.92,0.19-0.81-0.86-0.82c-0.04,0-0.08,0-0.11,0
		c-0.31-0.04-0.39,0.12-0.38,0.4c0.01,0.7,0,1.41,0.01,2.11c0,0.35-0.07,0.67-0.21,0.99c-0.25,0.59-0.72,0.9-1.33,0.9
		c-0.62-0.01-1.07-0.35-1.32-0.93c-0.15-0.36-0.19-0.73-0.2-1.11c0-0.67,0-1.33,0-2c0-0.17,0.02-0.32-0.24-0.37
		c-0.88-0.16-1.06-0.02-1.06,0.86C25.48,42.08,25.48,42.35,25.48,42.61z M47.48,45.08c0.4,0,0.8,0,1.2,0c1.11,0,1.08,0,1.12-1.13
		c0.08-1.95-1.26-3.03-3.33-2.97c-0.1,0-0.17,0.02-0.21,0.13c-0.2,0.49,0.05,0.93,0.57,1.02c0.17,0.03,0.34,0.04,0.51,0.08
		c0.64,0.16,1.02,0.61,1.12,1.21c0.05,0.32-0.05,0.4-0.34,0.39c-0.82-0.01-1.64,0.01-2.45-0.01c-0.58-0.02-0.38,0.4-0.39,0.67
		c-0.01,0.27-0.14,0.64,0.39,0.61C46.26,45.06,46.87,45.08,47.48,45.08z M44.42,42.25c0-0.89-0.01-1.78,0.01-2.67
		c0-0.26-0.06-0.39-0.35-0.36c-0.17,0.02-0.34,0.03-0.51,0c-0.43-0.07-0.54,0.1-0.53,0.52c0.03,1.5,0.01,3,0.01,4.49
		c0,0.94,0,0.92,0.91,0.93c0.37,0.01,0.48-0.1,0.47-0.47C44.4,43.88,44.42,43.06,44.42,42.25z M40.02,40.34
		c0.45,0.1,0.58-0.08,0.58-0.53c0-0.44-0.11-0.58-0.57-0.58c-0.46,0-0.61,0.11-0.62,0.6C39.41,40.33,39.61,40.42,40.02,40.34z
		 M10.19,38.87c0.38,0.05,0.65,0.06,0.63-0.48c-0.01-0.49-0.16-0.6-0.62-0.58c-0.4,0.02-0.6,0.05-0.59,0.55
		C9.62,38.81,9.75,38.97,10.19,38.87z M58.67,38.22c-0.42-0.09-0.56,0.05-0.56,0.5c-0.01,0.47,0.18,0.51,0.57,0.51
		c0.38,0,0.53-0.07,0.52-0.49C59.19,38.34,59.13,38.1,58.67,38.22z M9.37,40.35c0.39,0.07,0.65,0.04,0.61-0.49
		c-0.03-0.4-0.05-0.61-0.54-0.58c-0.4,0.03-0.66,0-0.64,0.55C8.82,40.28,8.92,40.47,9.37,40.35z M11.09,40.35
		c0.42,0.09,0.6-0.02,0.6-0.51c-0.01-0.46-0.15-0.56-0.58-0.56c-0.43,0-0.63,0.05-0.63,0.57C10.48,40.37,10.69,40.43,11.09,40.35z
		 M28.33,40.35c0.4,0.1,0.59,0,0.58-0.5c-0.01-0.45-0.13-0.58-0.57-0.57c-0.42,0.01-0.64,0.04-0.64,0.56
		C27.71,40.35,27.9,40.44,28.33,40.35z M57.92,40.47c0.36,0.07,0.53-0.01,0.55-0.45c0.01-0.48-0.2-0.49-0.57-0.51
		c-0.4-0.01-0.51,0.1-0.52,0.51C57.37,40.46,57.56,40.54,57.92,40.47z M59.46,39.54c-0.33-0.06-0.57-0.04-0.55,0.43
		c0.01,0.38,0.07,0.55,0.5,0.51c0.33-0.03,0.62,0.04,0.59-0.48C59.97,39.61,59.87,39.44,59.46,39.54z"/>
	<path fill="#FEFCFC" d="M18.47,18.51c1.83,0.13,3.42-0.48,4.91-1.49c0.29-0.2,0.39-0.4,0.39-0.74c-0.01-3.44-0.01-6.88-0.01-10.32
		c0-1.72,1.17-2.89,2.9-2.89c3.23,0,6.46,0,9.7,0c1.67,0,2.88,1.19,2.89,2.86c0.01,1.37,0,2.74,0,4.17
		c-0.64-0.19-1.19-0.52-1.76-0.78c-0.21-0.09-0.13-0.3-0.14-0.46c-0.01-0.97-0.01-1.94,0-2.91c0-0.29-0.06-0.39-0.37-0.39
		c-3.65,0.01-7.3,0.01-10.95,0c-0.27,0-0.41,0.04-0.41,0.37c0.01,2.91,0.01,5.82,0.01,8.73c0,0.05,0.03,0.1,0.06,0.19
		c0.39-0.26,0.56-0.68,0.88-0.97c0.38,0.47,0.73,0.96,1.13,1.42c0.41,0.48,0.9,0.87,1.48,1.14c0.31,0.15,0.54,0.11,0.82-0.11
		c2.25-1.8,3.94-4.04,5.2-6.61c0.19-0.38,0.32-0.44,0.7-0.25c2.93,1.43,5.87,2.84,8.81,4.24c0.36,0.17,0.36,0.31,0.15,0.61
		c-1.82,2.49-4.28,4.05-7.19,4.94c-3.5,1.08-7.09,1.2-10.71,0.85c-1.34-0.13-1.34-0.16-1.34,1.19c0,1.39,0.01,2.78-0.01,4.16
		c-0.01,0.38,0.11,0.48,0.48,0.48c3.59-0.01,7.19-0.01,10.78,0c0.37,0,0.48-0.1,0.48-0.47c-0.02-1.6,0-3.19-0.02-4.79
		c0-0.35,0.11-0.5,0.43-0.59c0.36-0.1,0.73-0.22,1.07-0.38c0.36-0.17,0.41-0.03,0.41,0.3c-0.01,1.06,0,2.13,0,3.19
		c0,2.13-0.03,4.26,0.01,6.39c0.04,1.8-1.51,2.99-2.92,2.96c-3.27-0.08-6.54-0.02-9.81-0.03c-1.59,0-2.76-1.17-2.76-2.77
		c0-3.17-0.01-6.35,0.01-9.52c0-0.44-0.16-0.55-0.53-0.6C21.64,19.35,20.06,18.97,18.47,18.51z M32.78,28.8
		c-0.02-1.36,0.2-1.22-1.19-1.22c-1.4,0.01-1.28-0.23-1.28,1.26c0,1.37-0.15,1.22,1.2,1.22C33.03,30.06,32.76,30.2,32.78,28.8z
		 M28.01,28.18c-0.5-0.12-0.73,0.04-0.72,0.63c0.01,0.52,0.13,0.74,0.7,0.74c0.56,0,0.71-0.18,0.7-0.72
		C28.69,28.34,28.6,28.05,28.01,28.18z M34.5,28.78c-0.09,0.5,0.01,0.77,0.63,0.77c0.56-0.01,0.71-0.19,0.72-0.72
		c0.01-0.52-0.14-0.71-0.67-0.68C34.71,28.16,34.35,28.18,34.5,28.78z"/>
	<path fill="#FDF8F8" d="M2.67,42.54c0-0.36,0.04-0.73-0.01-1.08c-0.07-0.57,0.29-0.51,0.64-0.49c0.33,0.02,0.75-0.16,0.71,0.48
		c-0.04,0.72-0.03,1.44,0,2.17c0.03,0.7,0.26,1.32,0.95,1.63c0.92,0.42,1.88-0.21,2.05-1.32c0.13-0.83,0.08-1.67,0.05-2.5
		C7.04,40.76,7.48,41,7.79,40.97c0.34-0.04,0.63-0.05,0.59,0.47c-0.05,0.6-0.03,1.22,0,1.82c0.01,0.19-0.19,0.54,0.25,0.55
		c0.37,0.01,0.78,0.1,0.93-0.42c0.09-0.3,0.05-0.6,0.06-0.91c0.01-0.27,0-0.53,0-0.8c0.02-0.81-0.14-0.69,0.73-0.73
		c0.43-0.02,0.62,0.09,0.58,0.56c-0.05,0.57-0.05,1.14-0.03,1.71c0.01,0.19-0.25,0.54,0.17,0.58c0.39,0.03,0.89,0.17,1.02-0.43
		c0.06-0.29,0.04-0.6,0.05-0.91c0.01-0.21,0-0.42,0-0.63c0-0.91,0.18-1.05,1.09-0.88c0.2,0.04,0.26,0.13,0.25,0.3
		c-0.02,0.76,0.07,1.52-0.09,2.27c-0.2,0.97-0.9,1.54-1.9,1.54c-1.01,0-2.02,0.01-3.02,0c-0.29,0-0.48,0.07-0.67,0.31
		c-0.8,1.06-1.91,1.43-3.06,1.08c-1.16-0.36-1.99-1.45-2.06-2.73C2.66,43.34,2.67,42.94,2.67,42.54
		C2.67,42.54,2.67,42.54,2.67,42.54z"/>
	<path fill="#FDF8F8" d="M34.62,45.16c-0.23-0.15-0.48-0.07-0.72-0.08c-1.15-0.05-1.94-0.87-1.95-2.02c-0.01-1.2,0.74-2,1.94-2.1
		c1.07-0.08,1.97,0.69,2.09,1.81c0.11,0.99,0.11,0.99,1.14,1.02c0.87,0.03,0.87,0.03,0.89-0.82c0.03-1.2,0.69-1.9,1.89-2.01
		c1.06-0.1,2.03,0.54,2.22,1.47c0.25,1.17-0.24,2.18-1.21,2.53c-0.29,0.11-0.59,0.12-0.9,0.12c-1.2,0-2.39,0-3.59,0
		c-0.24,0-0.4,0-0.5,0.3c-0.28,0.81-0.92,1.19-1.81,1.18c-0.18,0-0.39,0.01-0.33-0.25c0.06-0.27-0.23-0.67,0.23-0.8
		C34.24,45.44,34.49,45.45,34.62,45.16z M40.88,43.05c0-0.66-0.28-1-0.81-1c-0.47,0.01-0.79,0.41-0.79,0.99
		c0,0.57,0.34,0.98,0.8,0.99C40.56,44.02,40.88,43.63,40.88,43.05z M34.72,43.34c0-0.79-0.25-1.16-0.75-1.16
		c-0.52,0-0.67,0.35-0.69,0.78c-0.02,0.57,0.3,0.82,0.93,0.86C34.65,43.85,34.81,43.71,34.72,43.34z"/>
	<path fill="#FDF8F8" d="M56.6,43.77c-0.03-0.17-0.06-0.34-0.07-0.51c-0.04-0.87,0.17-1.65,1.02-2.05c0.85-0.4,1.72-0.36,2.47,0.25
		c0.72,0.58,0.81,1.38,0.6,2.23c-0.21,0.81-0.86,1.37-1.74,1.39c-1.18,0.03-2.35,0.03-3.53,0c-0.43-0.01-0.72,0.03-0.89,0.53
		c-0.22,0.66-1.18,1.09-1.84,0.97c-0.23-0.04-0.24-0.18-0.2-0.32c0.06-0.25-0.19-0.57,0.19-0.73c0.02-0.01,0.04,0,0.06,0
		c0.22-0.04,0.56-0.07,0.52-0.31c-0.04-0.23-0.39-0.1-0.59-0.11c-1.04-0.04-1.81-0.66-1.98-1.63c-0.19-1.01,0.27-1.93,1.14-2.31
		c1.43-0.62,2.87,0.33,2.9,1.91c0.02,0.78,0.02,0.79,0.8,0.75C55.84,43.78,56.22,43.89,56.6,43.77z M59.4,43.01
		c-0.01-0.64-0.27-0.96-0.78-0.96c-0.49,0-0.8,0.38-0.8,0.97c0,0.62,0.33,1.02,0.83,1.01C59.11,44.01,59.41,43.61,59.4,43.01z
		 M53.33,43.29c0-0.79-0.21-1.1-0.7-1.11c-0.43-0.01-0.7,0.28-0.71,0.77c-0.01,0.6,0.28,0.82,0.92,0.88
		C53.41,43.88,53.35,43.55,53.33,43.29z"/>
	<path fill="#FDF8F8" d="M17.6,42.19c0.6-0.96,1.14-1.83,1.68-2.7c0.08-0.12,0.17-0.2,0.32-0.2c0.43,0.02,0.86-0.06,1.33,0.06
		c-0.34,0.52-0.65,1.01-0.96,1.48c0.05,0.06,0.08,0.1,0.1,0.1c2.56,0.05,3.11,2.13,3.02,3.89c-0.02,0.36-0.28,0.24-0.46,0.24
		c-1.62,0.01-3.23,0.01-4.85,0.01c-0.66,0-1.33,0.01-1.99,0c-0.9-0.02-1.43-0.5-1.46-1.41c-0.03-1.35-0.01-2.7-0.01-4.05
		c0-0.26,0.08-0.39,0.36-0.37c0.19,0.01,0.38,0.02,0.57,0c0.34-0.04,0.42,0.12,0.41,0.43c-0.02,1.06-0.01,2.13,0,3.19
		c0,0.74,0.21,0.93,0.96,0.93c1.52,0,3.04,0,4.56,0.02c0.45,0.01,0.54-0.13,0.35-0.53c-0.35-0.72-0.9-1.1-1.71-1.11
		C19.12,42.19,18.42,42.19,17.6,42.19z"/>
	<path fill="#FDF8F8" d="M25.48,42.61c0-0.27,0-0.53,0-0.8c0-0.88,0.18-1.01,1.06-0.86c0.26,0.05,0.24,0.2,0.24,0.37
		c0,0.67,0,1.33,0,2c0,0.38,0.04,0.76,0.2,1.11c0.25,0.58,0.7,0.92,1.32,0.93c0.61,0.01,1.08-0.3,1.33-0.9
		c0.13-0.32,0.21-0.64,0.21-0.99c-0.01-0.7,0.01-1.41-0.01-2.11c-0.01-0.28,0.07-0.44,0.38-0.4c0.04,0,0.08,0,0.11,0
		c1.05,0.01,0.86-0.1,0.86,0.82c0,0.8,0.09,1.59-0.08,2.39c-0.33,1.58-1.57,2.53-3.11,2.38c-1.43-0.14-2.49-1.41-2.5-2.98
		C25.48,43.26,25.48,42.94,25.48,42.61z"/>
	<path fill="#FDF8F8" d="M47.48,45.08c-0.61,0-1.22-0.02-1.82,0.01c-0.53,0.03-0.41-0.34-0.39-0.61c0.01-0.27-0.19-0.69,0.39-0.67
		c0.82,0.02,1.63,0,2.45,0.01c0.3,0,0.4-0.07,0.34-0.39c-0.1-0.61-0.48-1.05-1.12-1.21c-0.16-0.04-0.34-0.06-0.51-0.08
		c-0.52-0.08-0.76-0.53-0.57-1.02c0.04-0.11,0.11-0.13,0.21-0.13c2.07-0.06,3.4,1.02,3.33,2.97c-0.04,1.13-0.01,1.13-1.12,1.13
		C48.27,45.08,47.88,45.08,47.48,45.08z"/>
	<path fill="#FEFCFC" d="M44.42,42.25c0,0.82-0.02,1.63,0.01,2.45c0.01,0.37-0.1,0.48-0.47,0.47c-0.91-0.02-0.91,0-0.91-0.93
		c0-1.5,0.02-3-0.01-4.49c-0.01-0.43,0.1-0.59,0.53-0.52c0.17,0.03,0.34,0.02,0.51,0c0.28-0.03,0.35,0.09,0.35,0.36
		C44.42,40.47,44.42,41.36,44.42,42.25z"/>
	<path fill="#FDF8F8" d="M40.02,40.34c-0.41,0.08-0.61-0.01-0.61-0.51c0-0.49,0.16-0.59,0.62-0.6c0.46,0,0.57,0.14,0.57,0.58
		C40.6,40.27,40.47,40.45,40.02,40.34z"/>
	<path fill="#FEFCFC" d="M10.19,38.87c-0.43,0.1-0.57-0.06-0.58-0.52c-0.01-0.49,0.19-0.53,0.59-0.55c0.46-0.02,0.61,0.09,0.62,0.58
		C10.83,38.93,10.57,38.92,10.19,38.87z"/>
	<path fill="#FDF8F8" d="M58.67,38.22c0.46-0.12,0.52,0.12,0.53,0.52c0.01,0.42-0.15,0.49-0.52,0.49c-0.39,0-0.57-0.05-0.57-0.51
		C58.11,38.27,58.26,38.13,58.67,38.22z"/>
	<path fill="#FEFCFC" d="M9.37,40.35c-0.45,0.11-0.55-0.07-0.57-0.52c-0.02-0.55,0.24-0.52,0.64-0.55c0.49-0.03,0.52,0.18,0.54,0.58
		C10.02,40.39,9.76,40.42,9.37,40.35z"/>
	<path fill="#FEFCFC" d="M11.09,40.35c-0.4,0.08-0.61,0.01-0.61-0.5c0-0.52,0.2-0.57,0.63-0.57c0.43,0,0.58,0.1,0.58,0.56
		C11.69,40.34,11.5,40.44,11.09,40.35z"/>
	<path fill="#FEFCFC" d="M28.33,40.35c-0.44,0.09-0.62,0-0.63-0.5c-0.01-0.53,0.22-0.56,0.64-0.56c0.44-0.01,0.56,0.12,0.57,0.57
		C28.92,40.35,28.73,40.45,28.33,40.35z"/>
	<path fill="#FEFCFC" d="M57.92,40.47c-0.36,0.07-0.55-0.01-0.54-0.45c0.01-0.4,0.12-0.52,0.52-0.51c0.37,0.01,0.59,0.03,0.57,0.51
		C58.46,40.46,58.28,40.54,57.92,40.47z"/>
	<path fill="#FEFCFC" d="M59.46,39.54c0.42-0.1,0.51,0.07,0.54,0.47c0.03,0.52-0.26,0.45-0.59,0.48c-0.42,0.04-0.48-0.14-0.5-0.51
		C58.89,39.5,59.13,39.48,59.46,39.54z"/>
	<path fill="#ED1C23" d="M32.78,28.8c-0.03,1.4,0.24,1.26-1.27,1.26c-1.35,0-1.2,0.15-1.2-1.22c0-1.48-0.13-1.25,1.28-1.26
		C32.98,27.57,32.77,27.44,32.78,28.8z"/>
	<path fill="#ED1C23" d="M28.01,28.18c0.59-0.13,0.68,0.16,0.68,0.65c0.01,0.53-0.14,0.72-0.7,0.72c-0.57,0-0.69-0.22-0.7-0.74
		C27.28,28.22,27.5,28.06,28.01,28.18z"/>
	<path fill="#ED1C23" d="M34.5,28.78c-0.15-0.6,0.2-0.62,0.67-0.64c0.54-0.02,0.68,0.16,0.67,0.68c-0.01,0.54-0.16,0.71-0.72,0.72
		C34.51,29.56,34.41,29.28,34.5,28.78z"/>
	<path fill="#ED1C23" d="M40.88,43.05c0,0.58-0.32,0.98-0.8,0.98c-0.46,0-0.8-0.42-0.8-0.99c0-0.58,0.32-0.98,0.79-0.99
		C40.61,42.04,40.89,42.38,40.88,43.05z"/>
	<path fill="#ED1C23" d="M34.72,43.34c0.08,0.37-0.07,0.51-0.51,0.49c-0.63-0.04-0.95-0.29-0.93-0.86c0.02-0.44,0.17-0.78,0.69-0.78
		C34.48,42.18,34.72,42.55,34.72,43.34z"/>
	<path fill="#ED1C23" d="M59.4,43.01c0.01,0.6-0.29,1-0.76,1.01c-0.49,0.02-0.83-0.39-0.83-1.01c0-0.59,0.32-0.97,0.8-0.97
		C59.13,42.05,59.39,42.37,59.4,43.01z"/>
	<path fill="#ED1C23" d="M53.33,43.29c0.02,0.26,0.08,0.59-0.48,0.54c-0.64-0.05-0.93-0.28-0.92-0.88c0-0.48,0.28-0.78,0.71-0.77
		C53.12,42.19,53.33,42.5,53.33,43.29z"/>
</g>
</svg>
