<?xml version="1.0" encoding="utf-8"?>
<!-- Generator: Adobe Illustrator 24.2.0, SVG Export Plug-In . SVG Version: 6.00 Build 0)  -->
<svg version="1.1" id="Layer_1" xmlns="http://www.w3.org/2000/svg" xmlns:xlink="http://www.w3.org/1999/xlink" x="0px" y="0px"
	 viewBox="0 0 510.93 441.57" enable-background="new 0 0 510.93 441.57" xml:space="preserve">
<g>
	<g>
		<path fill="#F86EAC" stroke="#F86EAC" stroke-width="30" stroke-miterlimit="10" d="M255.63,95.36c2.86-4.71,5.2-8.69,7.67-12.62
			c15.16-24.15,33.8-44.69,61.67-53.96C415.85-1.45,499.5,68.4,491.51,158.24c-3.97,44.63-24.88,80.41-56.9,109.73
			c-27.78,25.45-57.75,48.49-86.4,73c-28.18,24.11-55.96,48.71-83.81,73.21c-6.4,5.62-11.02,6.31-16.57,0.81
			c-39.12-38.8-82.8-72.18-125.6-106.63c-26.37-21.22-52.59-42.78-72.43-70.65c-29.18-40.99-39.55-85.82-23.08-134.35
			c16.98-50.07,65.72-82.3,118.4-81.64c45.78,0.58,78.57,21.99,102.04,59.9C249.82,85.9,252.46,90.22,255.63,95.36z M255.67,394.59
			c0.64-0.46,1.36-0.84,1.92-1.39c36.45-35.32,76.77-66.03,116.22-97.79c25.09-20.19,50.03-40.65,69.51-66.7
			c22.72-30.39,33.53-64.23,27.15-102.17c-7.62-45.26-45.36-80.18-91.07-84.51c-37.87-3.59-69.75,7.95-91.94,40.28
			c-7.98,11.63-14.76,24.08-21.86,36.27c-2.4,4.13-5.19,8.49-10.13,7.31c-3.6-0.86-7.42-4.07-9.53-7.3
			c-5.14-7.87-9.18-16.45-13.97-24.55c-21.34-36.16-52.19-54.73-95.04-52.51c-39.27,2.02-76.97,28.43-90.56,65.38
			c-14.49,39.34-7.27,76.25,14.21,110.99c14.63,23.66,34.69,42.53,55.93,60.09c33.52,27.68,67.46,54.84,100.94,82.55
			C230.52,371.39,242.83,383.13,255.67,394.59z"/>
	</g>
	<g>
	</g>
	<g>
	</g>
	<g>
	</g>
	<g>
	</g>
	<g>
	</g>
	<g>
	</g>
</g>
<g>
</g>
<g>
</g>
<g>
</g>
<g>
</g>
<g>
</g>
<g>
</g>
</svg>
