<?xml version="1.0" encoding="utf-8"?>
<!-- Generator: Adobe Illustrator 24.1.2, SVG Export Plug-In . SVG Version: 6.00 Build 0)  -->
<svg version="1.1" id="Layer_1" xmlns="http://www.w3.org/2000/svg" xmlns:xlink="http://www.w3.org/1999/xlink" x="0px" y="0px"
	 viewBox="0 0 61.17 79.29" enable-background="new 0 0 61.17 79.29" xml:space="preserve">
<path fill="none" stroke="#FFFFFF" stroke-width="2" stroke-miterlimit="10" d="M31.95,66.5c0,0,0.67,8.58,9.58,11.66"/>
<g>
	<path fill="#FFFFFF" d="M34.37,35.29c-0.15,0.12-0.29,0.25-0.47,0.41c0-0.27,0-0.5,0-0.73c0-1.16,0-2.31,0-3.47
		c0-0.11,0.04-0.25-0.15-0.25c-0.59,0-1.19,0-1.79,0c0,4.7,0,9.36,0,14.02c0.66,0,1.3,0,1.96,0c0-0.24,0-0.46,0-0.66
		c0.28,0.2,0.52,0.44,0.81,0.58c1.03,0.48,2.29,0.26,2.63-1.09c0.09-0.35,0.12-0.71,0.12-1.07c0.01-1.82,0.01-3.63,0-5.45
		c0-0.39-0.04-0.78-0.1-1.16C37.09,34.87,35.61,34.32,34.37,35.29z M35.47,42.86c0,0.05,0,0.11,0,0.16
		c-0.02,0.65-0.47,0.94-1.07,0.7c-0.38-0.15-0.51-0.34-0.51-0.74c0-1.92,0-3.85,0-5.77c0-0.42,0.25-0.69,0.7-0.75
		c0.37-0.05,0.72,0.19,0.81,0.56c0.04,0.16,0.06,0.32,0.06,0.48c0.01,0.9,0,1.81,0,2.71C35.47,41.09,35.47,41.97,35.47,42.86z"/>
	<path fill="#FFFFFF" d="M28.13,35.31c0,2.4,0,4.81,0,7.21c0,0.11,0,0.27-0.07,0.33c-0.28,0.24-0.57,0.5-0.9,0.67
		c-0.32,0.16-0.61-0.06-0.64-0.42c-0.02-0.22-0.03-0.45-0.03-0.68c0-2.38,0-4.76,0-7.13c0-0.11,0-0.23,0-0.35c-0.66,0-1.28,0-1.92,0
		c0,0.11,0,0.21,0,0.31c0,2.75,0,5.5,0,8.24c0,0.26,0.01,0.53,0.06,0.78c0.11,0.56,0.38,1.08,1.13,1.15
		c0.58,0.05,1.08-0.17,1.53-0.49c0.29-0.21,0.54-0.46,0.84-0.73c0,0.38,0,0.72,0,1.07c0.66,0,1.27,0,1.9,0c0-3.45,0-6.89,0-10.34
		c-0.63,0-1.24,0-1.9,0C28.13,35.08,28.13,35.2,28.13,35.31z"/>
	<path fill="#FFFFFF" d="M24.62,31.54c0.01-0.25-0.08-0.3-0.31-0.3c-2.02,0.01-4.05,0-6.07,0.01c-0.09,0-0.18,0.01-0.27,0.01
		c0,0.69,0,1.36,0,2.05c0.74,0,1.46,0,2.21,0c0,4,0,7.98,0,11.96c0.74,0,1.45,0,2.18,0c0-3.99,0-7.96,0-11.98c0.77,0,1.5,0,2.25,0
		C24.62,32.69,24.6,32.11,24.62,31.54z"/>
	<path fill="#FFFFFF" d="M30.46,23.92c0.6,0.17,1.1-0.21,1.11-0.85c0.01-0.93,0-1.86,0-2.79c0-0.91,0-1.82,0-2.74
		c0-0.1,0-0.2-0.02-0.29c-0.11-0.41-0.48-0.62-0.98-0.56c-0.4,0.05-0.64,0.33-0.64,0.79c0,1.85,0,3.7,0,5.55c0,0.1,0,0.2,0.02,0.3
		C30,23.62,30.15,23.84,30.46,23.92z"/>
	<path fill="#FFFFFF" d="M42.52,43.05c-0.05,0.5-0.26,0.68-0.78,0.7c-0.44,0.01-0.75-0.21-0.79-0.68c-0.05-0.6-0.05-1.21-0.06-1.81
		c-0.01-0.29,0-0.59,0-0.91c1.24,0,2.45,0,3.65,0c0.02-0.05,0.03-0.07,0.03-0.1c-0.02-1.07,0-2.13-0.06-3.19
		c-0.03-0.6-0.26-1.16-0.69-1.61c-0.88-0.92-2.59-1.05-3.68-0.28c-0.86,0.6-1.24,1.46-1.25,2.48c-0.02,1.53-0.01,3.05,0,4.58
		c0,0.38,0.03,0.76,0.11,1.13c0.19,0.95,0.69,1.68,1.62,2.04c0.64,0.24,1.3,0.23,1.97,0.07c0.61-0.15,1.12-0.45,1.46-0.99
		c0.3-0.47,0.44-0.98,0.48-1.53c0.03-0.45,0.04-0.89,0.06-1.35c-0.7,0-1.34,0-1.99,0C42.58,42.1,42.57,42.57,42.52,43.05z
		 M40.96,37.08c0.05-0.42,0.34-0.59,0.84-0.58c0.4,0.01,0.67,0.21,0.72,0.63c0.06,0.52,0.06,1.04,0.09,1.59c-0.6,0-1.14,0-1.73,0
		C40.9,38.17,40.9,37.62,40.96,37.08z"/>
	<path fill="#FFFFFF" d="M60.6,30.05c0-16.5-13.38-29.88-29.88-29.88c-16.5,0-29.88,13.38-29.88,29.88
		c0,16.02,12.61,29.05,28.44,29.81c-0.02,0.03-0.04,0.05-0.06,0.07l-1.42,7.21h8.3l-1.09-7.51c0,0-0.02-0.01-0.05-0.03
		C49.44,57.54,60.6,45.11,60.6,30.05z M35.15,15.16c0.65,0,1.26,0,1.9,0c0,0.12,0,0.22,0,0.33c0,2.47,0,4.93,0,7.4
		c0,0.14,0.02,0.29,0.04,0.43c0.07,0.39,0.36,0.57,0.71,0.38c0.31-0.17,0.58-0.42,0.84-0.66c0.07-0.06,0.07-0.21,0.07-0.32
		c0-2.4,0-4.81,0-7.21c0-0.11,0-0.22,0-0.34c0.64,0,1.26,0,1.89,0c0,3.44,0,6.87,0,10.31c-0.62,0-1.23,0-1.87,0
		c0-0.35,0-0.71,0-1.11c-0.25,0.23-0.45,0.43-0.67,0.61c-0.4,0.33-0.84,0.58-1.37,0.63c-0.84,0.09-1.4-0.34-1.49-1.18
		c-0.03-0.31-0.05-0.63-0.05-0.94c0-2.66,0-5.31,0-7.97C35.15,15.4,35.15,15.3,35.15,15.16z M30.44,14.9
		c0.56-0.02,1.1-0.01,1.61,0.24c0.98,0.48,1.44,1.3,1.47,2.37c0.02,0.92,0,1.84,0,2.77c0,0.91,0.01,1.83,0,2.74
		c-0.02,0.73-0.2,1.41-0.73,1.95c-0.67,0.68-1.5,0.82-2.41,0.76c-1.14-0.07-2.12-0.82-2.37-2.1c-0.04-0.23-0.07-0.46-0.08-0.7
		c-0.01-1.81,0-3.61,0-5.42C27.93,16.03,28.98,14.96,30.44,14.9z M22.79,11.49c0.15,0,0.19,0.06,0.22,0.2
		c0.42,1.71,0.86,3.42,1.29,5.13c0.02,0.09,0.05,0.18,0.14,0.27c0.53-1.85,0.94-3.73,1.4-5.59c0.73,0,1.44,0,2.18,0
		c-0.15,0.49-0.28,0.96-0.43,1.42c-0.68,2.19-1.35,4.38-2.03,6.58c-0.04,0.14-0.07,0.3-0.07,0.45c0,1.74,0,3.47,0,5.21
		c0,0.1,0,0.2,0,0.32c-0.7,0-1.39,0-2.13,0c0-0.09,0-0.18,0-0.28c0-1.37-0.02-2.73,0.01-4.1c0.02-0.77-0.11-1.49-0.33-2.22
		c-0.75-2.39-1.47-4.78-2.2-7.17c-0.02-0.06-0.03-0.12-0.05-0.22C21.49,11.49,22.14,11.49,22.79,11.49z M42.41,48.62
		c-0.56,0.15-1.15,0.24-1.73,0.24c-3.33,0.02-6.65,0.01-9.98,0.01c-3.32,0-6.64,0.04-9.95-0.01c-2.68-0.04-4.64-1.32-5.88-3.68
		c-0.47-0.89-0.67-1.85-0.67-2.86c0.01-2.65,0-5.3,0.01-7.95c0-1.44,0.49-2.72,1.36-3.85c1.03-1.33,2.38-2.14,4.03-2.47
		c0.35-0.07,0.72-0.1,1.07-0.1c6.69-0.01,13.38-0.01,20.07,0c3.04,0,5.79,2.29,6.35,5.28c0.09,0.47,0.13,0.95,0.14,1.42
		c0.01,2.53,0.01,5.06,0.01,7.59C47.23,45.24,45.29,47.82,42.41,48.62z"/>
</g>
</svg>
