<?xml version="1.0" encoding="utf-8"?>
<!-- Generator: Adobe Illustrator 24.1.2, SVG Export Plug-In . SVG Version: 6.00 Build 0)  -->
<svg version="1.1" id="Layer_1" xmlns="http://www.w3.org/2000/svg" xmlns:xlink="http://www.w3.org/1999/xlink" x="0px" y="0px"
	 viewBox="0 0 31.17 34.47" enable-background="new 0 0 31.17 34.47" xml:space="preserve">
<g>
	<path fill="#FFFFFF" d="M15.58,34.18c-3.01,0-6.02,0.03-9.03-0.01c-2.43-0.03-4.21-1.19-5.33-3.34c-0.42-0.81-0.61-1.68-0.6-2.59
		c0.01-2.4,0-4.8,0-7.21c0-1.3,0.44-2.46,1.23-3.49c0.93-1.21,2.16-1.94,3.65-2.24c0.32-0.06,0.65-0.09,0.97-0.09
		c6.07-0.01,12.13-0.01,18.2,0c2.76,0,5.25,2.07,5.75,4.79c0.08,0.42,0.12,0.86,0.12,1.29c0.01,2.3,0.01,4.59,0.01,6.89
		c0,2.71-1.75,5.05-4.36,5.78c-0.5,0.14-1.04,0.22-1.57,0.22C21.62,34.19,18.6,34.18,15.58,34.18z M16.71,18.2
		c0,4.26,0,8.49,0,12.71c0.6,0,1.17,0,1.78,0c0-0.22,0-0.42,0-0.6c0.25,0.18,0.47,0.4,0.74,0.53c0.93,0.44,2.08,0.24,2.38-0.99
		c0.08-0.31,0.11-0.65,0.11-0.97c0.01-1.65,0.01-3.3,0-4.94c0-0.35-0.03-0.7-0.1-1.05c-0.25-1.4-1.59-1.9-2.72-1.02
		c-0.14,0.11-0.26,0.23-0.43,0.38c0-0.24,0-0.45,0-0.66c0-1.05,0-2.1,0-3.15c0-0.1,0.04-0.23-0.14-0.23
		C17.8,18.2,17.26,18.2,16.71,18.2z M28.13,26.45c0.02-0.04,0.03-0.07,0.03-0.09c-0.01-0.97,0-1.93-0.05-2.9
		c-0.03-0.54-0.23-1.05-0.62-1.46c-0.8-0.84-2.34-0.96-3.34-0.26c-0.78,0.55-1.12,1.32-1.13,2.25c-0.02,1.38-0.01,2.77,0,4.15
		c0,0.34,0.03,0.69,0.1,1.02c0.18,0.86,0.62,1.53,1.47,1.85c0.58,0.22,1.18,0.21,1.78,0.07c0.56-0.13,1.01-0.41,1.32-0.89
		c0.27-0.42,0.4-0.89,0.43-1.38c0.03-0.4,0.04-0.81,0.06-1.22c-0.63,0-1.22,0-1.8,0c-0.03,0.45-0.04,0.88-0.08,1.31
		c-0.04,0.45-0.24,0.62-0.7,0.64c-0.4,0.01-0.68-0.19-0.71-0.61c-0.05-0.54-0.04-1.09-0.06-1.64c-0.01-0.27,0-0.53,0-0.83
		C25.95,26.45,27.04,26.45,28.13,26.45z M13.25,21.55c0,0.13,0,0.23,0,0.34c0,2.18,0,4.36,0,6.54c0,0.1,0,0.25-0.06,0.3
		c-0.26,0.22-0.52,0.45-0.82,0.61c-0.29,0.15-0.55-0.05-0.58-0.38c-0.02-0.2-0.03-0.41-0.03-0.61c0-2.16,0-4.31,0-6.47
		c0-0.1,0-0.21,0-0.32c-0.6,0-1.16,0-1.74,0c0,0.1,0,0.19,0,0.28c0,2.49,0,4.98,0,7.48c0,0.24,0.01,0.48,0.05,0.71
		c0.1,0.51,0.35,0.98,1.03,1.04c0.53,0.05,0.98-0.15,1.38-0.45c0.26-0.19,0.49-0.42,0.77-0.66c0,0.34,0,0.66,0,0.97
		c0.59,0,1.16,0,1.72,0c0-3.13,0-6.25,0-9.37C14.4,21.55,13.85,21.55,13.25,21.55z M8.02,20.05c0.7,0,1.36,0,2.04,0
		c0-0.55-0.01-1.07,0.01-1.59c0.01-0.23-0.07-0.27-0.28-0.27c-1.84,0.01-3.67,0-5.51,0c-0.08,0-0.16,0.01-0.25,0.01
		c0,0.63,0,1.23,0,1.86c0.67,0,1.32,0,2.01,0c0,3.63,0,7.23,0,10.85c0.67,0,1.31,0,1.98,0C8.02,27.3,8.02,23.7,8.02,20.05z"/>
	<path fill="#FFFFFF" d="M18.14,8.25c0,0.83,0.01,1.66,0,2.48c-0.01,0.66-0.18,1.28-0.66,1.77c-0.61,0.62-1.36,0.74-2.19,0.69
		c-1.04-0.07-1.92-0.75-2.15-1.91c-0.04-0.21-0.07-0.42-0.07-0.63c-0.01-1.64,0-3.28,0-4.92c0-1.33,0.95-2.3,2.27-2.35
		c0.5-0.02,1-0.01,1.46,0.22c0.89,0.44,1.31,1.18,1.33,2.15C18.15,6.58,18.14,7.42,18.14,8.25z M16.37,8.26c0-0.83,0-1.65,0-2.48
		c0-0.09,0-0.18-0.02-0.27c-0.1-0.37-0.43-0.56-0.89-0.51c-0.37,0.04-0.58,0.3-0.58,0.71c0,1.68,0,3.36,0,5.03
		c0,0.09,0,0.18,0.02,0.27c0.05,0.27,0.19,0.46,0.47,0.54c0.54,0.15,1-0.19,1-0.77C16.37,9.94,16.37,9.1,16.37,8.26z"/>
	<path fill="#FFFFFF" d="M6.61,0.29c0.62,0,1.21,0,1.8,0c0.14,0,0.17,0.06,0.2,0.18c0.38,1.55,0.78,3.1,1.17,4.65
		C9.8,5.2,9.83,5.28,9.9,5.36c0.48-1.68,0.85-3.38,1.27-5.07c0.66,0,1.3,0,1.98,0c-0.13,0.44-0.26,0.87-0.39,1.29
		c-0.61,1.99-1.23,3.97-1.84,5.96c-0.04,0.13-0.06,0.27-0.06,0.41c0,1.57,0,3.15,0,4.72c0,0.09,0,0.18,0,0.29c-0.64,0-1.26,0-1.93,0
		c0-0.08,0-0.17,0-0.25c0-1.24-0.02-2.48,0.01-3.71c0.02-0.7-0.1-1.35-0.3-2.02c-0.68-2.16-1.33-4.33-1.99-6.5
		C6.63,0.43,6.63,0.37,6.61,0.29z"/>
	<path fill="#FFFFFF" d="M19.61,3.62c0.59,0,1.14,0,1.73,0c0,0.11,0,0.2,0,0.3c0,2.24,0,4.47,0,6.71c0,0.13,0.02,0.26,0.04,0.39
		c0.06,0.36,0.32,0.52,0.64,0.34c0.28-0.15,0.52-0.38,0.76-0.6c0.06-0.06,0.07-0.19,0.07-0.29c0-2.18,0-4.36,0-6.54
		c0-0.1,0-0.2,0-0.31c0.58,0,1.14,0,1.71,0c0,3.12,0,6.23,0,9.35c-0.56,0-1.12,0-1.7,0c0-0.32,0-0.64,0-1.01
		c-0.23,0.21-0.41,0.39-0.61,0.55c-0.36,0.3-0.76,0.52-1.25,0.57c-0.76,0.08-1.27-0.31-1.35-1.07c-0.03-0.28-0.05-0.57-0.05-0.86
		c0-2.41,0-4.82,0-7.23C19.61,3.83,19.61,3.74,19.61,3.62z"/>
	<path fill="#FFFFFF" d="M19.91,26.32c0,0.8,0,1.6,0,2.41c0,0.05,0,0.1,0,0.15c-0.02,0.59-0.42,0.85-0.97,0.63
		c-0.35-0.14-0.46-0.31-0.46-0.68c0-1.74,0-3.49,0-5.23c0-0.38,0.23-0.63,0.64-0.68c0.33-0.04,0.65,0.17,0.74,0.51
		c0.04,0.14,0.05,0.29,0.05,0.43C19.91,24.68,19.91,25.5,19.91,26.32z"/>
	<path fill="#FFFFFF" d="M26.38,24.98c-0.54,0-1.03,0-1.57,0c0.02-0.5,0.02-1,0.08-1.49c0.05-0.38,0.31-0.53,0.76-0.52
		c0.36,0.01,0.61,0.19,0.65,0.57C26.35,24,26.35,24.48,26.38,24.98z"/>
</g>
</svg>
